{"asset":{"generator":"Khronos glTF Blender I/O v5.2.40","version":"2.0"},"scene":0,"scenes":[{"name":"Scene","nodes":[1]}],"nodes":[{"mesh":0,"name":"tile","translation":[0,-0.05999999865889549,0]},{"children":[0],"name":"grass_tile_root"}],"materials":[{"doubleSided":true,"name":"zoo_leaf","pbrMetallicRoughness":{"baseColorFactor":[0.45490196347236633,0.6784313917160034,0.3137255012989044,1],"metallicFactor":0,"roughnessFactor":0.8199999928474426}}],"meshes":[{"name":"Cube.041","primitives":[{"attributes":{"POSITION":0,"NORMAL":1,"TEXCOORD_0":2},"indices":3,"material":0}]}],"accessors":[{"bufferView":0,"componentType":5126,"count":216,"max":[0.5,0.05999999865889549,0.5],"min":[-0.5,-0.05999999865889549,-0.5],"type":"VEC3"},{"bufferView":1,"componentType":5126,"count":216,"type":"VEC3"},{"bufferView":2,"componentType":5126,"count":216,"type":"VEC2"},{"bufferView":3,"componentType":5123,"count":324,"type":"SCALAR"}],"bufferViews":[{"buffer":0,"byteLength":2592,"byteOffset":0,"target":34962},{"buffer":0,"byteLength":2592,"byteOffset":2592,"target":34962},{"buffer":0,"byteLength":1728,"byteOffset":5184,"target":34962},{"buffer":0,"byteLength":648,"byteOffset":6912,"target":34963}],"buffers":[{"byteLength":7560,"uri":"grass_tile.bin"}]}