{"asset":{"generator":"Khronos glTF Blender I/O v5.2.40","version":"2.0"},"scene":0,"scenes":[{"name":"Scene","nodes":[2]}],"nodes":[{"mesh":0,"name":"marker","translation":[0,0.019999999552965164,0]},{"mesh":1,"name":"tile","translation":[0,-0.05999999865889549,0]},{"children":[0,1],"name":"habitat_marker_root"}],"materials":[{"doubleSided":true,"name":"zoo_yellow","pbrMetallicRoughness":{"baseColorFactor":[0.8784313797950745,0.7490196228027344,0.3960784375667572,1],"metallicFactor":0,"roughnessFactor":0.8199999928474426}},{"doubleSided":true,"name":"zoo_wood","pbrMetallicRoughness":{"baseColorFactor":[0.21960784494876862,0.3176470696926117,0.23529411852359772,1],"metallicFactor":0,"roughnessFactor":0.8199999928474426}}],"meshes":[{"name":"Cube.044","primitives":[{"attributes":{"POSITION":0,"NORMAL":1,"TEXCOORD_0":2},"indices":3,"material":0}]},{"name":"Cube.043","primitives":[{"attributes":{"POSITION":4,"NORMAL":5,"TEXCOORD_0":6},"indices":3,"material":1}]}],"accessors":[{"bufferView":0,"componentType":5126,"count":216,"max":[0.2750000059604645,0.012500000186264515,0.2750000059604645],"min":[-0.2750000059604645,-0.012500000186264515,-0.2750000059604645],"type":"VEC3"},{"bufferView":1,"componentType":5126,"count":216,"type":"VEC3"},{"bufferView":2,"componentType":5126,"count":216,"type":"VEC2"},{"bufferView":3,"componentType":5123,"count":324,"type":"SCALAR"},{"bufferView":4,"componentType":5126,"count":216,"max":[0.5,0.05999999865889549,0.5],"min":[-0.5,-0.05999999865889549,-0.5],"type":"VEC3"},{"bufferView":5,"componentType":5126,"count":216,"type":"VEC3"},{"bufferView":6,"componentType":5126,"count":216,"type":"VEC2"}],"bufferViews":[{"buffer":0,"byteLength":2592,"byteOffset":0,"target":34962},{"buffer":0,"byteLength":2592,"byteOffset":2592,"target":34962},{"buffer":0,"byteLength":1728,"byteOffset":5184,"target":34962},{"buffer":0,"byteLength":648,"byteOffset":6912,"target":34963},{"buffer":0,"byteLength":2592,"byteOffset":7560,"target":34962},{"buffer":0,"byteLength":2592,"byteOffset":10152,"target":34962},{"buffer":0,"byteLength":1728,"byteOffset":12744,"target":34962}],"buffers":[{"byteLength":14472,"uri":"habitat_marker.bin"}]}