{"asset":{"generator":"Khronos glTF Blender I/O v5.2.40","version":"2.0"},"scene":0,"scenes":[{"name":"Scene","nodes":[7]}],"nodes":[{"mesh":0,"name":"brace_0.22","translation":[0.2199999988079071,0.23999999463558197,-0.2549999952316284]},{"mesh":1,"name":"brace_-0.22","translation":[-0.2199999988079071,0.23999999463558197,-0.2549999952316284]},{"mesh":2,"name":"crate","translation":[0,0.23999999463558197,0]},{"mesh":3,"name":"feed_label","translation":[0,0.25,-0.28999999165534973]},{"mesh":4,"name":"front_slat_0","translation":[0,0.07999999821186066,-0.2680000066757202]},{"mesh":5,"name":"front_slat_1","translation":[0,0.23999999463558197,-0.2680000066757202]},{"mesh":6,"name":"front_slat_2","translation":[0,0.4000000059604645,-0.2680000066757202]},{"children":[0,1,2,3,4,5,6],"name":"feed_crate_root"}],"materials":[{"doubleSided":true,"name":"zoo_dark_wood","pbrMetallicRoughness":{"baseColorFactor":[0.1411764770746231,0.24705882370471954,0.21960784494876862,1],"metallicFactor":0,"roughnessFactor":0.8199999928474426}},{"doubleSided":true,"name":"zoo_crate","pbrMetallicRoughness":{"baseColorFactor":[0.7176470756530762,0.5137255191802979,0.30588236451148987,1],"metallicFactor":0,"roughnessFactor":0.8199999928474426}},{"doubleSided":true,"name":"zoo_yellow","pbrMetallicRoughness":{"baseColorFactor":[0.8784313797950745,0.7490196228027344,0.3960784375667572,1],"metallicFactor":0,"roughnessFactor":0.8199999928474426}}],"meshes":[{"name":"Cube.047","primitives":[{"attributes":{"POSITION":0,"NORMAL":1,"TEXCOORD_0":2},"indices":3,"material":0}]},{"name":"Cube.046","primitives":[{"attributes":{"POSITION":4,"NORMAL":5,"TEXCOORD_0":6},"indices":3,"material":0}]},{"name":"Cube.045","primitives":[{"attributes":{"POSITION":7,"NORMAL":8,"TEXCOORD_0":9},"indices":3,"material":1}]},{"name":"Cube.051","primitives":[{"attributes":{"POSITION":10,"NORMAL":11,"TEXCOORD_0":12},"indices":3,"material":2}]},{"name":"Cube.048","primitives":[{"attributes":{"POSITION":13,"NORMAL":14,"TEXCOORD_0":15},"indices":3,"material":0}]},{"name":"Cube.049","primitives":[{"attributes":{"POSITION":16,"NORMAL":17,"TEXCOORD_0":18},"indices":3,"material":0}]},{"name":"Cube.050","primitives":[{"attributes":{"POSITION":19,"NORMAL":20,"TEXCOORD_0":21},"indices":3,"material":0}]}],"accessors":[{"bufferView":0,"componentType":5126,"count":216,"max":[0.029999999329447746,0.2199999988079071,0.014999999664723873],"min":[-0.029999999329447746,-0.2199999988079071,-0.014999999664723873],"type":"VEC3"},{"bufferView":1,"componentType":5126,"count":216,"type":"VEC3"},{"bufferView":2,"componentType":5126,"count":216,"type":"VEC2"},{"bufferView":3,"componentType":5123,"count":324,"type":"SCALAR"},{"bufferView":4,"componentType":5126,"count":216,"max":[0.029999999329447746,0.2199999988079071,0.014999999664723873],"min":[-0.029999999329447746,-0.2199999988079071,-0.014999999664723873],"type":"VEC3"},{"bufferView":5,"componentType":5126,"count":216,"type":"VEC3"},{"bufferView":6,"componentType":5126,"count":216,"type":"VEC2"},{"bufferView":7,"componentType":5126,"count":216,"max":[0.25,0.23999999463558197,0.25],"min":[-0.25,-0.23999999463558197,-0.25],"type":"VEC3"},{"bufferView":8,"componentType":5126,"count":216,"type":"VEC3"},{"bufferView":9,"componentType":5126,"count":216,"type":"VEC2"},{"bufferView":10,"componentType":5126,"count":216,"max":[0.09000000357627869,0.05999999865889549,0.012500000186264515],"min":[-0.09000000357627869,-0.05999999865889549,-0.012500000186264515],"type":"VEC3"},{"bufferView":11,"componentType":5126,"count":216,"type":"VEC3"},{"bufferView":12,"componentType":5126,"count":216,"type":"VEC2"},{"bufferView":13,"componentType":5126,"count":216,"max":[0.22499999403953552,0.027499999850988388,0.017500000074505806],"min":[-0.22499999403953552,-0.027499999850988388,-0.017500000074505806],"type":"VEC3"},{"bufferView":14,"componentType":5126,"count":216,"type":"VEC3"},{"bufferView":15,"componentType":5126,"count":216,"type":"VEC2"},{"bufferView":16,"componentType":5126,"count":216,"max":[0.22499999403953552,0.027499999850988388,0.017500000074505806],"min":[-0.22499999403953552,-0.027499999850988388,-0.017500000074505806],"type":"VEC3"},{"bufferView":17,"componentType":5126,"count":216,"type":"VEC3"},{"bufferView":18,"componentType":5126,"count":216,"type":"VEC2"},{"bufferView":19,"componentType":5126,"count":216,"max":[0.22499999403953552,0.027499999850988388,0.017500000074505806],"min":[-0.22499999403953552,-0.027499999850988388,-0.017500000074505806],"type":"VEC3"},{"bufferView":20,"componentType":5126,"count":216,"type":"VEC3"},{"bufferView":21,"componentType":5126,"count":216,"type":"VEC2"}],"bufferViews":[{"buffer":0,"byteLength":2592,"byteOffset":0,"target":34962},{"buffer":0,"byteLength":2592,"byteOffset":2592,"target":34962},{"buffer":0,"byteLength":1728,"byteOffset":5184,"target":34962},{"buffer":0,"byteLength":648,"byteOffset":6912,"target":34963},{"buffer":0,"byteLength":2592,"byteOffset":7560,"target":34962},{"buffer":0,"byteLength":2592,"byteOffset":10152,"target":34962},{"buffer":0,"byteLength":1728,"byteOffset":12744,"target":34962},{"buffer":0,"byteLength":2592,"byteOffset":14472,"target":34962},{"buffer":0,"byteLength":2592,"byteOffset":17064,"target":34962},{"buffer":0,"byteLength":1728,"byteOffset":19656,"target":34962},{"buffer":0,"byteLength":2592,"byteOffset":21384,"target":34962},{"buffer":0,"byteLength":2592,"byteOffset":23976,"target":34962},{"buffer":0,"byteLength":1728,"byteOffset":26568,"target":34962},{"buffer":0,"byteLength":2592,"byteOffset":28296,"target":34962},{"buffer":0,"byteLength":2592,"byteOffset":30888,"target":34962},{"buffer":0,"byteLength":1728,"byteOffset":33480,"target":34962},{"buffer":0,"byteLength":2592,"byteOffset":35208,"target":34962},{"buffer":0,"byteLength":2592,"byteOffset":37800,"target":34962},{"buffer":0,"byteLength":1728,"byteOffset":40392,"target":34962},{"buffer":0,"byteLength":2592,"byteOffset":42120,"target":34962},{"buffer":0,"byteLength":2592,"byteOffset":44712,"target":34962},{"buffer":0,"byteLength":1728,"byteOffset":47304,"target":34962}],"buffers":[{"byteLength":49032,"uri":"feed_crate.bin"}]}