{"asset":{"generator":"Khronos glTF Blender I/O v5.2.40","version":"2.0"},"scene":0,"scenes":[{"name":"Scene","nodes":[13]}],"nodes":[{"mesh":0,"name":"column_0.23","translation":[0.23000000417232513,0.4699999988079071,-0.41999998688697815]},{"mesh":1,"name":"column_-0.23","translation":[-0.23000000417232513,0.4699999988079071,-0.41999998688697815]},{"mesh":2,"name":"door","translation":[0,0.38999998569488525,-0.38999998569488525]},{"mesh":3,"name":"plinth","translation":[0,0.05999999865889549,0]},{"mesh":4,"name":"roof_0.56"},{"mesh":5,"name":"roof_-0.56"},{"mesh":6,"name":"tower","translation":[0,0.6200000047683716,0]},{"mesh":7,"name":"tower_roof","translation":[0,1.2799999713897705,0]},{"mesh":8,"name":"window_0.56","translation":[0.5600000023841858,0.5699999928474426,-0.35199999809265137]},{"mesh":9,"name":"window_-0.56","translation":[-0.5600000023841858,0.5699999928474426,-0.35199999809265137]},{"mesh":10,"name":"wing_0.56","translation":[0.5600000023841858,0.49000000953674316,0]},{"mesh":11,"name":"wing_-0.56","translation":[-0.5600000023841858,0.49000000953674316,0]},{"mesh":12,"name":"zoo_sign","translation":[0,0.8799999952316284,-0.4050000011920929]},{"children":[0,1,2,3,4,5,6,7,8,9,10,11,12],"name":"entrance_root"}],"materials":[{"doubleSided":true,"name":"zoo_trim","pbrMetallicRoughness":{"baseColorFactor":[0.9176470637321472,0.8745098114013672,0.7490196228027344,1],"metallicFactor":0,"roughnessFactor":0.8199999928474426}},{"doubleSided":true,"name":"zoo_teal","pbrMetallicRoughness":{"baseColorFactor":[0.1921568661928177,0.3607843220233917,0.3450980484485626,1],"metallicFactor":0,"roughnessFactor":0.8199999928474426}},{"doubleSided":true,"name":"zoo_path","pbrMetallicRoughness":{"baseColorFactor":[0.8196078538894653,0.7333333492279053,0.5529412031173706,1],"metallicFactor":0,"roughnessFactor":0.8199999928474426}},{"doubleSided":true,"name":"zoo_roof","pbrMetallicRoughness":{"baseColorFactor":[0.615686297416687,0.2862745225429535,0.21568627655506134,1],"metallicFactor":0,"roughnessFactor":0.8199999928474426}},{"doubleSided":true,"name":"zoo_cream","pbrMetallicRoughness":{"baseColorFactor":[0.8470588326454163,0.7803921699523926,0.615686297416687,1],"metallicFactor":0,"roughnessFactor":0.8199999928474426}},{"doubleSided":true,"name":"zoo_drink","pbrMetallicRoughness":{"baseColorFactor":[0.529411792755127,0.7803921699523926,0.8470588326454163,1],"metallicFactor":0,"roughnessFactor":0.8199999928474426}},{"doubleSided":true,"name":"zoo_yellow","pbrMetallicRoughness":{"baseColorFactor":[0.8784313797950745,0.7490196228027344,0.3960784375667572,1],"metallicFactor":0,"roughnessFactor":0.8199999928474426}}],"meshes":[{"name":"Cube.010","primitives":[{"attributes":{"POSITION":0,"NORMAL":1,"TEXCOORD_0":2},"indices":3,"material":0}]},{"name":"Cube.009","primitives":[{"attributes":{"POSITION":4,"NORMAL":5,"TEXCOORD_0":6},"indices":3,"material":0}]},{"name":"Cube.007","primitives":[{"attributes":{"POSITION":7,"NORMAL":8,"TEXCOORD_0":9},"indices":3,"material":1}]},{"name":"Cube.001","primitives":[{"attributes":{"POSITION":10,"NORMAL":11,"TEXCOORD_0":12},"indices":3,"material":2}]},{"name":"roof_0.56_mesh","primitives":[{"attributes":{"POSITION":13,"NORMAL":14},"indices":15,"material":3}]},{"name":"roof_-0.56_mesh","primitives":[{"attributes":{"POSITION":16,"NORMAL":17},"indices":15,"material":3}]},{"name":"Cube.006","primitives":[{"attributes":{"POSITION":18,"NORMAL":19,"TEXCOORD_0":20},"indices":3,"material":4}]},{"name":"Cone","primitives":[{"attributes":{"POSITION":21,"NORMAL":22,"TEXCOORD_0":23},"indices":24,"material":3}]},{"name":"Cube.005","primitives":[{"attributes":{"POSITION":25,"NORMAL":26,"TEXCOORD_0":27},"indices":3,"material":5}]},{"name":"Cube.003","primitives":[{"attributes":{"POSITION":28,"NORMAL":29,"TEXCOORD_0":30},"indices":3,"material":5}]},{"name":"Cube.004","primitives":[{"attributes":{"POSITION":31,"NORMAL":32,"TEXCOORD_0":33},"indices":3,"material":4}]},{"name":"Cube.002","primitives":[{"attributes":{"POSITION":34,"NORMAL":35,"TEXCOORD_0":36},"indices":3,"material":4}]},{"name":"Cube.008","primitives":[{"attributes":{"POSITION":37,"NORMAL":38,"TEXCOORD_0":39},"indices":3,"material":6}]}],"accessors":[{"bufferView":0,"componentType":5126,"count":216,"max":[0.03999999910593033,0.36000001430511475,0.03999999910593033],"min":[-0.03999999910593033,-0.36000001430511475,-0.03999999910593033],"type":"VEC3"},{"bufferView":1,"componentType":5126,"count":216,"type":"VEC3"},{"bufferView":2,"componentType":5126,"count":216,"type":"VEC2"},{"bufferView":3,"componentType":5123,"count":324,"type":"SCALAR"},{"bufferView":4,"componentType":5126,"count":216,"max":[0.03999999910593033,0.36000001430511475,0.03999999910593033],"min":[-0.03999999910593033,-0.36000001430511475,-0.03999999910593033],"type":"VEC3"},{"bufferView":5,"componentType":5126,"count":216,"type":"VEC3"},{"bufferView":6,"componentType":5126,"count":216,"type":"VEC2"},{"bufferView":7,"componentType":5126,"count":216,"max":[0.14000000059604645,0.27000001072883606,0.029999999329447746],"min":[-0.14000000059604645,-0.27000001072883606,-0.029999999329447746],"type":"VEC3"},{"bufferView":8,"componentType":5126,"count":216,"type":"VEC3"},{"bufferView":9,"componentType":5126,"count":216,"type":"VEC2"},{"bufferView":10,"componentType":5126,"count":216,"max":[0.8600000143051147,0.05999999865889549,0.4699999988079071],"min":[-0.8600000143051147,-0.05999999865889549,-0.4699999988079071],"type":"VEC3"},{"bufferView":11,"componentType":5126,"count":216,"type":"VEC3"},{"bufferView":12,"componentType":5126,"count":216,"type":"VEC2"},{"bufferView":13,"componentType":5126,"count":18,"max":[0.8899999856948853,1.159999966621399,0.41999998688697815],"min":[0.23000000417232513,0.8799999952316284,-0.41999998688697815],"type":"VEC3"},{"bufferView":14,"componentType":5126,"count":18,"type":"VEC3"},{"bufferView":15,"componentType":5123,"count":24,"type":"SCALAR"},{"bufferView":16,"componentType":5126,"count":18,"max":[-0.23000000417232513,1.159999966621399,0.41999998688697815],"min":[-0.8899999856948853,0.8799999952316284,-0.41999998688697815],"type":"VEC3"},{"bufferView":17,"componentType":5126,"count":18,"type":"VEC3"},{"bufferView":18,"componentType":5126,"count":216,"max":[0.28999999165534973,0.5600000023841858,0.3700000047683716],"min":[-0.28999999165534973,-0.5600000023841858,-0.3700000047683716],"type":"VEC3"},{"bufferView":19,"componentType":5126,"count":216,"type":"VEC3"},{"bufferView":20,"componentType":5126,"count":216,"type":"VEC2"},{"bufferView":21,"componentType":5126,"count":96,"max":[0.4300000071525574,0.17000000178813934,0.4300000071525574],"min":[-0.4300000071525574,-0.17000000178813934,-0.4300000071525574],"type":"VEC3"},{"bufferView":22,"componentType":5126,"count":96,"type":"VEC3"},{"bufferView":23,"componentType":5126,"count":96,"type":"VEC2"},{"bufferView":24,"componentType":5123,"count":180,"type":"SCALAR"},{"bufferView":25,"componentType":5126,"count":216,"max":[0.10999999940395355,0.15000000596046448,0.017500000074505806],"min":[-0.10999999940395355,-0.15000000596046448,-0.017500000074505806],"type":"VEC3"},{"bufferView":26,"componentType":5126,"count":216,"type":"VEC3"},{"bufferView":27,"componentType":5126,"count":216,"type":"VEC2"},{"bufferView":28,"componentType":5126,"count":216,"max":[0.10999999940395355,0.15000000596046448,0.017500000074505806],"min":[-0.10999999940395355,-0.15000000596046448,-0.017500000074505806],"type":"VEC3"},{"bufferView":29,"componentType":5126,"count":216,"type":"VEC3"},{"bufferView":30,"componentType":5126,"count":216,"type":"VEC2"},{"bufferView":31,"componentType":5126,"count":216,"max":[0.25,0.4300000071525574,0.3400000035762787],"min":[-0.25,-0.4300000071525574,-0.3400000035762787],"type":"VEC3"},{"bufferView":32,"componentType":5126,"count":216,"type":"VEC3"},{"bufferView":33,"componentType":5126,"count":216,"type":"VEC2"},{"bufferView":34,"componentType":5126,"count":216,"max":[0.25,0.4300000071525574,0.3400000035762787],"min":[-0.25,-0.4300000071525574,-0.3400000035762787],"type":"VEC3"},{"bufferView":35,"componentType":5126,"count":216,"type":"VEC3"},{"bufferView":36,"componentType":5126,"count":216,"type":"VEC2"},{"bufferView":37,"componentType":5126,"count":216,"max":[0.3199999928474426,0.09000000357627869,0.02500000037252903],"min":[-0.3199999928474426,-0.09000000357627869,-0.02500000037252903],"type":"VEC3"},{"bufferView":38,"componentType":5126,"count":216,"type":"VEC3"},{"bufferView":39,"componentType":5126,"count":216,"type":"VEC2"}],"bufferViews":[{"buffer":0,"byteLength":2592,"byteOffset":0,"target":34962},{"buffer":0,"byteLength":2592,"byteOffset":2592,"target":34962},{"buffer":0,"byteLength":1728,"byteOffset":5184,"target":34962},{"buffer":0,"byteLength":648,"byteOffset":6912,"target":34963},{"buffer":0,"byteLength":2592,"byteOffset":7560,"target":34962},{"buffer":0,"byteLength":2592,"byteOffset":10152,"target":34962},{"buffer":0,"byteLength":1728,"byteOffset":12744,"target":34962},{"buffer":0,"byteLength":2592,"byteOffset":14472,"target":34962},{"buffer":0,"byteLength":2592,"byteOffset":17064,"target":34962},{"buffer":0,"byteLength":1728,"byteOffset":19656,"target":34962},{"buffer":0,"byteLength":2592,"byteOffset":21384,"target":34962},{"buffer":0,"byteLength":2592,"byteOffset":23976,"target":34962},{"buffer":0,"byteLength":1728,"byteOffset":26568,"target":34962},{"buffer":0,"byteLength":216,"byteOffset":28296,"target":34962},{"buffer":0,"byteLength":216,"byteOffset":28512,"target":34962},{"buffer":0,"byteLength":48,"byteOffset":28728,"target":34963},{"buffer":0,"byteLength":216,"byteOffset":28776,"target":34962},{"buffer":0,"byteLength":216,"byteOffset":28992,"target":34962},{"buffer":0,"byteLength":2592,"byteOffset":29208,"target":34962},{"buffer":0,"byteLength":2592,"byteOffset":31800,"target":34962},{"buffer":0,"byteLength":1728,"byteOffset":34392,"target":34962},{"buffer":0,"byteLength":1152,"byteOffset":36120,"target":34962},{"buffer":0,"byteLength":1152,"byteOffset":37272,"target":34962},{"buffer":0,"byteLength":768,"byteOffset":38424,"target":34962},{"buffer":0,"byteLength":360,"byteOffset":39192,"target":34963},{"buffer":0,"byteLength":2592,"byteOffset":39552,"target":34962},{"buffer":0,"byteLength":2592,"byteOffset":42144,"target":34962},{"buffer":0,"byteLength":1728,"byteOffset":44736,"target":34962},{"buffer":0,"byteLength":2592,"byteOffset":46464,"target":34962},{"buffer":0,"byteLength":2592,"byteOffset":49056,"target":34962},{"buffer":0,"byteLength":1728,"byteOffset":51648,"target":34962},{"buffer":0,"byteLength":2592,"byteOffset":53376,"target":34962},{"buffer":0,"byteLength":2592,"byteOffset":55968,"target":34962},{"buffer":0,"byteLength":1728,"byteOffset":58560,"target":34962},{"buffer":0,"byteLength":2592,"byteOffset":60288,"target":34962},{"buffer":0,"byteLength":2592,"byteOffset":62880,"target":34962},{"buffer":0,"byteLength":1728,"byteOffset":65472,"target":34962},{"buffer":0,"byteLength":2592,"byteOffset":67200,"target":34962},{"buffer":0,"byteLength":2592,"byteOffset":69792,"target":34962},{"buffer":0,"byteLength":1728,"byteOffset":72384,"target":34962}],"buffers":[{"byteLength":74112,"uri":"entrance.bin"}]}