{"asset":{"generator":"Khronos glTF Blender I/O v5.2.40","version":"2.0"},"scene":0,"scenes":[{"name":"Scene","nodes":[12]}],"nodes":[{"mesh":0,"name":"beak","rotation":[0.7071068286895752,0,0,0.7071068286895752],"translation":[0,1.0800000429153442,-0.23999999463558197]},{"mesh":1,"name":"belly","translation":[0,0.5400000214576721,-0.2199999988079071]},{"mesh":2,"name":"body","translation":[0,0.550000011920929,0]},{"mesh":3,"name":"eye_1","translation":[0.07000000029802322,1.1299999952316284,-0.1599999964237213]},{"mesh":4,"name":"eye_-1","translation":[-0.07000000029802322,1.1299999952316284,-0.1599999964237213]},{"mesh":5,"name":"foot_1","translation":[0.10999999940395355,0.07999999821186066,-0.10000000149011612]},{"mesh":6,"name":"foot_-1","translation":[-0.10999999940395355,0.07999999821186066,-0.10000000149011612]},{"mesh":7,"name":"head","translation":[0,1.0800000429153442,0]},{"mesh":8,"name":"pupil_1","translation":[0.07000000029802322,1.1299999952316284,-0.17800000309944153]},{"mesh":9,"name":"pupil_-1","translation":[-0.07000000029802322,1.1299999952316284,-0.17800000309944153]},{"mesh":10,"name":"wing_1","translation":[0.27000001072883606,0.6399999856948853,0]},{"mesh":11,"name":"wing_-1","translation":[-0.27000001072883606,0.6399999856948853,0]},{"children":[0,1,2,3,4,5,6,7,8,9,10,11],"name":"animal_root"}],"animations":[{"name":"idle","samplers":[{"input":42,"interpolation":"LINEAR","output":43},{"input":42,"interpolation":"LINEAR","output":44}],"channels":[{"sampler":0,"target":{"node":12,"path":"translation"}},{"sampler":1,"target":{"node":7,"path":"rotation"}}]},{"name":"walk","samplers":[{"input":42,"interpolation":"LINEAR","output":45},{"input":42,"interpolation":"LINEAR","output":46}],"channels":[{"sampler":0,"target":{"node":10,"path":"rotation"}},{"sampler":1,"target":{"node":11,"path":"rotation"}}]}],"materials":[{"doubleSided":true,"name":"zoo_food","pbrMetallicRoughness":{"baseColorFactor":[0.9058823585510254,0.7254902124404907,0.34117648005485535,1],"metallicFactor":0,"roughnessFactor":0.8199999928474426}},{"doubleSided":true,"name":"zoo_white","pbrMetallicRoughness":{"baseColorFactor":[0.95686274766922,0.9372549057006836,0.886274516582489,1],"metallicFactor":0,"roughnessFactor":0.8199999928474426}},{"doubleSided":true,"name":"zoo_penguin","pbrMetallicRoughness":{"baseColorFactor":[0.20392157137393951,0.26274511218070984,0.2980392277240753,1],"metallicFactor":0,"roughnessFactor":0.8199999928474426}},{"doubleSided":true,"name":"zoo_black","pbrMetallicRoughness":{"baseColorFactor":[0.14901961386203766,0.1725490242242813,0.1921568661928177,1],"metallicFactor":0,"roughnessFactor":0.8199999928474426}}],"meshes":[{"name":"Cone.004","primitives":[{"attributes":{"POSITION":0,"NORMAL":1,"TEXCOORD_0":2},"indices":3,"material":0}]},{"name":"Icosphere.052","primitives":[{"attributes":{"POSITION":4,"NORMAL":5,"TEXCOORD_0":6},"indices":7,"material":1}]},{"name":"Icosphere.051","primitives":[{"attributes":{"POSITION":8,"NORMAL":9,"TEXCOORD_0":10},"indices":11,"material":2}]},{"name":"Icosphere.056","primitives":[{"attributes":{"POSITION":12,"NORMAL":13,"TEXCOORD_0":14},"indices":15,"material":1}]},{"name":"Icosphere.054","primitives":[{"attributes":{"POSITION":16,"NORMAL":17,"TEXCOORD_0":18},"indices":15,"material":1}]},{"name":"Cube.079","primitives":[{"attributes":{"POSITION":19,"NORMAL":20,"TEXCOORD_0":21},"indices":22,"material":0}]},{"name":"Cube.077","primitives":[{"attributes":{"POSITION":23,"NORMAL":24,"TEXCOORD_0":25},"indices":22,"material":0}]},{"name":"Icosphere.053","primitives":[{"attributes":{"POSITION":26,"NORMAL":27,"TEXCOORD_0":28},"indices":29,"material":2}]},{"name":"Icosphere.057","primitives":[{"attributes":{"POSITION":30,"NORMAL":31,"TEXCOORD_0":32},"indices":15,"material":3}]},{"name":"Icosphere.055","primitives":[{"attributes":{"POSITION":33,"NORMAL":34,"TEXCOORD_0":35},"indices":15,"material":3}]},{"name":"Cube.078","primitives":[{"attributes":{"POSITION":36,"NORMAL":37,"TEXCOORD_0":38},"indices":22,"material":2}]},{"name":"Cube.076","primitives":[{"attributes":{"POSITION":39,"NORMAL":40,"TEXCOORD_0":41},"indices":22,"material":2}]}],"accessors":[{"bufferView":0,"componentType":5126,"count":96,"max":[0.07000000029802322,0.09000000357627869,0.07000000029802322],"min":[-0.07000000029802322,-0.09000000357627869,-0.07000000029802322],"type":"VEC3"},{"bufferView":1,"componentType":5126,"count":96,"type":"VEC3"},{"bufferView":2,"componentType":5126,"count":96,"type":"VEC2"},{"bufferView":3,"componentType":5123,"count":180,"type":"SCALAR"},{"bufferView":4,"componentType":5126,"count":240,"max":[0.17119042575359344,0.3499999940395355,0.034999996423721313],"min":[-0.17119042575359344,-0.3499999940395355,-0.034999996423721313],"type":"VEC3"},{"bufferView":5,"componentType":5126,"count":240,"type":"VEC3"},{"bufferView":6,"componentType":5126,"count":240,"type":"VEC2"},{"bufferView":7,"componentType":5123,"count":240,"type":"SCALAR"},{"bufferView":8,"componentType":5126,"count":960,"max":[0.2800000011920929,0.5,0.22999998927116394],"min":[-0.2799999713897705,-0.5,-0.22999998927116394],"type":"VEC3"},{"bufferView":9,"componentType":5126,"count":960,"type":"VEC3"},{"bufferView":10,"componentType":5126,"count":960,"type":"VEC2"},{"bufferView":11,"componentType":5123,"count":960,"type":"SCALAR"},{"bufferView":12,"componentType":5126,"count":60,"max":[0.022360624745488167,0.02500000037252903,0.015311519615352154],"min":[-0.022360624745488167,-0.02500000037252903,-0.015311519615352154],"type":"VEC3"},{"bufferView":13,"componentType":5126,"count":60,"type":"VEC3"},{"bufferView":14,"componentType":5126,"count":60,"type":"VEC2"},{"bufferView":15,"componentType":5123,"count":60,"type":"SCALAR"},{"bufferView":16,"componentType":5126,"count":60,"max":[0.022360624745488167,0.02500000037252903,0.015311519615352154],"min":[-0.022360624745488167,-0.02500000037252903,-0.015311519615352154],"type":"VEC3"},{"bufferView":17,"componentType":5126,"count":60,"type":"VEC3"},{"bufferView":18,"componentType":5126,"count":60,"type":"VEC2"},{"bufferView":19,"componentType":5126,"count":216,"max":[0.08500000089406967,0.03500000014901161,0.12999999523162842],"min":[-0.08500000089406967,-0.03500000014901161,-0.12999999523162842],"type":"VEC3"},{"bufferView":20,"componentType":5126,"count":216,"type":"VEC3"},{"bufferView":21,"componentType":5126,"count":216,"type":"VEC2"},{"bufferView":22,"componentType":5123,"count":324,"type":"SCALAR"},{"bufferView":23,"componentType":5126,"count":216,"max":[0.08500000089406967,0.03500000014901161,0.12999999523162842],"min":[-0.08500000089406967,-0.03500000014901161,-0.12999999523162842],"type":"VEC3"},{"bufferView":24,"componentType":5126,"count":216,"type":"VEC3"},{"bufferView":25,"componentType":5126,"count":216,"type":"VEC2"},{"bufferView":26,"componentType":5126,"count":960,"max":[0.20000000298023224,0.20000000298023224,0.17999999225139618],"min":[-0.19999998807907104,-0.20000000298023224,-0.17999999225139618],"type":"VEC3"},{"bufferView":27,"componentType":5126,"count":960,"type":"VEC3"},{"bufferView":28,"componentType":5126,"count":960,"type":"VEC2"},{"bufferView":29,"componentType":5123,"count":960,"type":"SCALAR"},{"bufferView":30,"componentType":5126,"count":60,"max":[0.010733099654316902,0.012000000104308128,0.006805120501667261],"min":[-0.010733099654316902,-0.012000000104308128,-0.006805120501667261],"type":"VEC3"},{"bufferView":31,"componentType":5126,"count":60,"type":"VEC3"},{"bufferView":32,"componentType":5126,"count":60,"type":"VEC2"},{"bufferView":33,"componentType":5126,"count":60,"max":[0.010733099654316902,0.012000000104308128,0.006805120501667261],"min":[-0.010733099654316902,-0.012000000104308128,-0.006805120501667261],"type":"VEC3"},{"bufferView":34,"componentType":5126,"count":60,"type":"VEC3"},{"bufferView":35,"componentType":5126,"count":60,"type":"VEC2"},{"bufferView":36,"componentType":5126,"count":216,"max":[0.05000000074505806,0.1899999976158142,0.05000000074505806],"min":[-0.05000000074505806,-0.1899999976158142,-0.05000000074505806],"type":"VEC3"},{"bufferView":37,"componentType":5126,"count":216,"type":"VEC3"},{"bufferView":38,"componentType":5126,"count":216,"type":"VEC2"},{"bufferView":39,"componentType":5126,"count":216,"max":[0.05000000074505806,0.1899999976158142,0.05000000074505806],"min":[-0.05000000074505806,-0.1899999976158142,-0.05000000074505806],"type":"VEC3"},{"bufferView":40,"componentType":5126,"count":216,"type":"VEC3"},{"bufferView":41,"componentType":5126,"count":216,"type":"VEC2"},{"bufferView":42,"componentType":5126,"count":25,"max":[1.0416666666666667],"min":[0.041666666666666664],"type":"SCALAR"},{"bufferView":43,"componentType":5126,"count":25,"type":"VEC3"},{"bufferView":44,"componentType":5126,"count":25,"type":"VEC4"},{"bufferView":45,"componentType":5126,"count":25,"type":"VEC4"},{"bufferView":46,"componentType":5126,"count":25,"type":"VEC4"}],"bufferViews":[{"buffer":0,"byteLength":1152,"byteOffset":0,"target":34962},{"buffer":0,"byteLength":1152,"byteOffset":1152,"target":34962},{"buffer":0,"byteLength":768,"byteOffset":2304,"target":34962},{"buffer":0,"byteLength":360,"byteOffset":3072,"target":34963},{"buffer":0,"byteLength":2880,"byteOffset":3432,"target":34962},{"buffer":0,"byteLength":2880,"byteOffset":6312,"target":34962},{"buffer":0,"byteLength":1920,"byteOffset":9192,"target":34962},{"buffer":0,"byteLength":480,"byteOffset":11112,"target":34963},{"buffer":0,"byteLength":11520,"byteOffset":11592,"target":34962},{"buffer":0,"byteLength":11520,"byteOffset":23112,"target":34962},{"buffer":0,"byteLength":7680,"byteOffset":34632,"target":34962},{"buffer":0,"byteLength":1920,"byteOffset":42312,"target":34963},{"buffer":0,"byteLength":720,"byteOffset":44232,"target":34962},{"buffer":0,"byteLength":720,"byteOffset":44952,"target":34962},{"buffer":0,"byteLength":480,"byteOffset":45672,"target":34962},{"buffer":0,"byteLength":120,"byteOffset":46152,"target":34963},{"buffer":0,"byteLength":720,"byteOffset":46272,"target":34962},{"buffer":0,"byteLength":720,"byteOffset":46992,"target":34962},{"buffer":0,"byteLength":480,"byteOffset":47712,"target":34962},{"buffer":0,"byteLength":2592,"byteOffset":48192,"target":34962},{"buffer":0,"byteLength":2592,"byteOffset":50784,"target":34962},{"buffer":0,"byteLength":1728,"byteOffset":53376,"target":34962},{"buffer":0,"byteLength":648,"byteOffset":55104,"target":34963},{"buffer":0,"byteLength":2592,"byteOffset":55752,"target":34962},{"buffer":0,"byteLength":2592,"byteOffset":58344,"target":34962},{"buffer":0,"byteLength":1728,"byteOffset":60936,"target":34962},{"buffer":0,"byteLength":11520,"byteOffset":62664,"target":34962},{"buffer":0,"byteLength":11520,"byteOffset":74184,"target":34962},{"buffer":0,"byteLength":7680,"byteOffset":85704,"target":34962},{"buffer":0,"byteLength":1920,"byteOffset":93384,"target":34963},{"buffer":0,"byteLength":720,"byteOffset":95304,"target":34962},{"buffer":0,"byteLength":720,"byteOffset":96024,"target":34962},{"buffer":0,"byteLength":480,"byteOffset":96744,"target":34962},{"buffer":0,"byteLength":720,"byteOffset":97224,"target":34962},{"buffer":0,"byteLength":720,"byteOffset":97944,"target":34962},{"buffer":0,"byteLength":480,"byteOffset":98664,"target":34962},{"buffer":0,"byteLength":2592,"byteOffset":99144,"target":34962},{"buffer":0,"byteLength":2592,"byteOffset":101736,"target":34962},{"buffer":0,"byteLength":1728,"byteOffset":104328,"target":34962},{"buffer":0,"byteLength":2592,"byteOffset":106056,"target":34962},{"buffer":0,"byteLength":2592,"byteOffset":108648,"target":34962},{"buffer":0,"byteLength":1728,"byteOffset":111240,"target":34962},{"buffer":0,"byteLength":100,"byteOffset":112968},{"buffer":0,"byteLength":300,"byteOffset":113068},{"buffer":0,"byteLength":400,"byteOffset":113368},{"buffer":0,"byteLength":400,"byteOffset":113768},{"buffer":0,"byteLength":400,"byteOffset":114168}],"buffers":[{"byteLength":114568,"uri":"penguin.bin"}]}