{"asset":{"generator":"Khronos glTF Blender I/O v5.2.40","version":"2.0"},"scene":0,"scenes":[{"name":"Scene","nodes":[11]}],"nodes":[{"mesh":0,"name":"garage_door","translation":[0,0.38999998569488525,-0.4749999940395355]},{"mesh":1,"name":"garage_slat_0","translation":[0,0.18000000715255737,-0.5080000162124634]},{"mesh":2,"name":"garage_slat_1","translation":[0,0.3100000023841858,-0.5080000162124634]},{"mesh":3,"name":"garage_slat_2","translation":[0,0.4399999976158142,-0.5080000162124634]},{"mesh":4,"name":"garage_slat_3","translation":[0,0.5699999928474426,-0.5080000162124634]},{"mesh":5,"name":"plinth","translation":[0,0.05999999865889549,0]},{"mesh":6,"name":"roof","translation":[0,0.9800000190734863,0]},{"mesh":7,"name":"roof_vent","translation":[-0.2800000011920929,1.159999966621399,0.07999999821186066]},{"mesh":8,"name":"shell","translation":[0,0.49000000953674316,0]},{"mesh":9,"name":"side_window","translation":[0.38999998569488525,0.6399999856948853,-0.4580000042915344]},{"mesh":10,"name":"sign","translation":[0,0.8399999737739563,-0.4950000047683716]},{"children":[0,1,2,3,4,5,6,7,8,9,10],"name":"animal_care_depot_root"}],"materials":[{"doubleSided":true,"name":"zoo_teal","pbrMetallicRoughness":{"baseColorFactor":[0.1921568661928177,0.3607843220233917,0.3450980484485626,1],"metallicFactor":0,"roughnessFactor":0.8199999928474426}},{"doubleSided":true,"name":"zoo_trim","pbrMetallicRoughness":{"baseColorFactor":[0.9176470637321472,0.8745098114013672,0.7490196228027344,1],"metallicFactor":0,"roughnessFactor":0.8199999928474426}},{"doubleSided":true,"name":"zoo_path","pbrMetallicRoughness":{"baseColorFactor":[0.8196078538894653,0.7333333492279053,0.5529412031173706,1],"metallicFactor":0,"roughnessFactor":0.8199999928474426}},{"doubleSided":true,"name":"zoo_elephant","pbrMetallicRoughness":{"baseColorFactor":[0.5372549295425415,0.6039215922355652,0.615686297416687,1],"metallicFactor":0,"roughnessFactor":0.8199999928474426}},{"doubleSided":true,"name":"zoo_cream","pbrMetallicRoughness":{"baseColorFactor":[0.8470588326454163,0.7803921699523926,0.615686297416687,1],"metallicFactor":0,"roughnessFactor":0.8199999928474426}},{"doubleSided":true,"name":"zoo_drink","pbrMetallicRoughness":{"baseColorFactor":[0.529411792755127,0.7803921699523926,0.8470588326454163,1],"metallicFactor":0,"roughnessFactor":0.8199999928474426}},{"doubleSided":true,"name":"zoo_yellow","pbrMetallicRoughness":{"baseColorFactor":[0.8784313797950745,0.7490196228027344,0.3960784375667572,1],"metallicFactor":0,"roughnessFactor":0.8199999928474426}}],"meshes":[{"name":"Cube.014","primitives":[{"attributes":{"POSITION":0,"NORMAL":1,"TEXCOORD_0":2},"indices":3,"material":0}]},{"name":"Cube.016","primitives":[{"attributes":{"POSITION":4,"NORMAL":5,"TEXCOORD_0":6},"indices":3,"material":1}]},{"name":"Cube.017","primitives":[{"attributes":{"POSITION":7,"NORMAL":8,"TEXCOORD_0":9},"indices":3,"material":1}]},{"name":"Cube.018","primitives":[{"attributes":{"POSITION":10,"NORMAL":11,"TEXCOORD_0":12},"indices":3,"material":1}]},{"name":"Cube.019","primitives":[{"attributes":{"POSITION":13,"NORMAL":14,"TEXCOORD_0":15},"indices":3,"material":1}]},{"name":"Cube.011","primitives":[{"attributes":{"POSITION":16,"NORMAL":17,"TEXCOORD_0":18},"indices":3,"material":2}]},{"name":"Cube.013","primitives":[{"attributes":{"POSITION":19,"NORMAL":20,"TEXCOORD_0":21},"indices":3,"material":0}]},{"name":"Cylinder","primitives":[{"attributes":{"POSITION":22,"NORMAL":23,"TEXCOORD_0":24},"indices":25,"material":3}]},{"name":"Cube.012","primitives":[{"attributes":{"POSITION":26,"NORMAL":27,"TEXCOORD_0":28},"indices":3,"material":4}]},{"name":"Cube.020","primitives":[{"attributes":{"POSITION":29,"NORMAL":30,"TEXCOORD_0":31},"indices":3,"material":5}]},{"name":"Cube.015","primitives":[{"attributes":{"POSITION":32,"NORMAL":33,"TEXCOORD_0":34},"indices":3,"material":6}]}],"accessors":[{"bufferView":0,"componentType":5126,"count":216,"max":[0.36000001430511475,0.2800000011920929,0.02500000037252903],"min":[-0.36000001430511475,-0.2800000011920929,-0.02500000037252903],"type":"VEC3"},{"bufferView":1,"componentType":5126,"count":216,"type":"VEC3"},{"bufferView":2,"componentType":5126,"count":216,"type":"VEC2"},{"bufferView":3,"componentType":5123,"count":324,"type":"SCALAR"},{"bufferView":4,"componentType":5126,"count":216,"max":[0.33000001311302185,0.012500000186264515,0.008999999612569809],"min":[-0.33000001311302185,-0.012500000186264515,-0.008999999612569809],"type":"VEC3"},{"bufferView":5,"componentType":5126,"count":216,"type":"VEC3"},{"bufferView":6,"componentType":5126,"count":216,"type":"VEC2"},{"bufferView":7,"componentType":5126,"count":216,"max":[0.33000001311302185,0.012500000186264515,0.008999999612569809],"min":[-0.33000001311302185,-0.012500000186264515,-0.008999999612569809],"type":"VEC3"},{"bufferView":8,"componentType":5126,"count":216,"type":"VEC3"},{"bufferView":9,"componentType":5126,"count":216,"type":"VEC2"},{"bufferView":10,"componentType":5126,"count":216,"max":[0.33000001311302185,0.012500000186264515,0.008999999612569809],"min":[-0.33000001311302185,-0.012500000186264515,-0.008999999612569809],"type":"VEC3"},{"bufferView":11,"componentType":5126,"count":216,"type":"VEC3"},{"bufferView":12,"componentType":5126,"count":216,"type":"VEC2"},{"bufferView":13,"componentType":5126,"count":216,"max":[0.33000001311302185,0.012500000186264515,0.008999999612569809],"min":[-0.33000001311302185,-0.012500000186264515,-0.008999999612569809],"type":"VEC3"},{"bufferView":14,"componentType":5126,"count":216,"type":"VEC3"},{"bufferView":15,"componentType":5126,"count":216,"type":"VEC2"},{"bufferView":16,"componentType":5126,"count":216,"max":[0.6499999761581421,0.05999999865889549,0.5099999904632568],"min":[-0.6499999761581421,-0.05999999865889549,-0.5099999904632568],"type":"VEC3"},{"bufferView":17,"componentType":5126,"count":216,"type":"VEC3"},{"bufferView":18,"componentType":5126,"count":216,"type":"VEC2"},{"bufferView":19,"componentType":5126,"count":216,"max":[0.6600000262260437,0.05999999865889549,0.5199999809265137],"min":[-0.6600000262260437,-0.05999999865889549,-0.5199999809265137],"type":"VEC3"},{"bufferView":20,"componentType":5126,"count":216,"type":"VEC3"},{"bufferView":21,"componentType":5126,"count":216,"type":"VEC2"},{"bufferView":22,"componentType":5126,"count":96,"max":[0.07500000298023224,0.10999999940395355,0.07500000298023224],"min":[-0.07500000298023224,-0.10999999940395355,-0.07500000298023224],"type":"VEC3"},{"bufferView":23,"componentType":5126,"count":96,"type":"VEC3"},{"bufferView":24,"componentType":5126,"count":96,"type":"VEC2"},{"bufferView":25,"componentType":5123,"count":180,"type":"SCALAR"},{"bufferView":26,"componentType":5126,"count":216,"max":[0.5899999737739563,0.4300000071525574,0.44999998807907104],"min":[-0.5899999737739563,-0.4300000071525574,-0.44999998807907104],"type":"VEC3"},{"bufferView":27,"componentType":5126,"count":216,"type":"VEC3"},{"bufferView":28,"componentType":5126,"count":216,"type":"VEC2"},{"bufferView":29,"componentType":5126,"count":216,"max":[0.11999999731779099,0.10000000149011612,0.012500000186264515],"min":[-0.11999999731779099,-0.10000000149011612,-0.012500000186264515],"type":"VEC3"},{"bufferView":30,"componentType":5126,"count":216,"type":"VEC3"},{"bufferView":31,"componentType":5126,"count":216,"type":"VEC2"},{"bufferView":32,"componentType":5126,"count":216,"max":[0.3100000023841858,0.08500000089406967,0.02500000037252903],"min":[-0.3100000023841858,-0.08500000089406967,-0.02500000037252903],"type":"VEC3"},{"bufferView":33,"componentType":5126,"count":216,"type":"VEC3"},{"bufferView":34,"componentType":5126,"count":216,"type":"VEC2"}],"bufferViews":[{"buffer":0,"byteLength":2592,"byteOffset":0,"target":34962},{"buffer":0,"byteLength":2592,"byteOffset":2592,"target":34962},{"buffer":0,"byteLength":1728,"byteOffset":5184,"target":34962},{"buffer":0,"byteLength":648,"byteOffset":6912,"target":34963},{"buffer":0,"byteLength":2592,"byteOffset":7560,"target":34962},{"buffer":0,"byteLength":2592,"byteOffset":10152,"target":34962},{"buffer":0,"byteLength":1728,"byteOffset":12744,"target":34962},{"buffer":0,"byteLength":2592,"byteOffset":14472,"target":34962},{"buffer":0,"byteLength":2592,"byteOffset":17064,"target":34962},{"buffer":0,"byteLength":1728,"byteOffset":19656,"target":34962},{"buffer":0,"byteLength":2592,"byteOffset":21384,"target":34962},{"buffer":0,"byteLength":2592,"byteOffset":23976,"target":34962},{"buffer":0,"byteLength":1728,"byteOffset":26568,"target":34962},{"buffer":0,"byteLength":2592,"byteOffset":28296,"target":34962},{"buffer":0,"byteLength":2592,"byteOffset":30888,"target":34962},{"buffer":0,"byteLength":1728,"byteOffset":33480,"target":34962},{"buffer":0,"byteLength":2592,"byteOffset":35208,"target":34962},{"buffer":0,"byteLength":2592,"byteOffset":37800,"target":34962},{"buffer":0,"byteLength":1728,"byteOffset":40392,"target":34962},{"buffer":0,"byteLength":2592,"byteOffset":42120,"target":34962},{"buffer":0,"byteLength":2592,"byteOffset":44712,"target":34962},{"buffer":0,"byteLength":1728,"byteOffset":47304,"target":34962},{"buffer":0,"byteLength":1152,"byteOffset":49032,"target":34962},{"buffer":0,"byteLength":1152,"byteOffset":50184,"target":34962},{"buffer":0,"byteLength":768,"byteOffset":51336,"target":34962},{"buffer":0,"byteLength":360,"byteOffset":52104,"target":34963},{"buffer":0,"byteLength":2592,"byteOffset":52464,"target":34962},{"buffer":0,"byteLength":2592,"byteOffset":55056,"target":34962},{"buffer":0,"byteLength":1728,"byteOffset":57648,"target":34962},{"buffer":0,"byteLength":2592,"byteOffset":59376,"target":34962},{"buffer":0,"byteLength":2592,"byteOffset":61968,"target":34962},{"buffer":0,"byteLength":1728,"byteOffset":64560,"target":34962},{"buffer":0,"byteLength":2592,"byteOffset":66288,"target":34962},{"buffer":0,"byteLength":2592,"byteOffset":68880,"target":34962},{"buffer":0,"byteLength":1728,"byteOffset":71472,"target":34962}],"buffers":[{"byteLength":73200,"uri":"animal_care_depot.bin"}]}