{"asset":{"generator":"Khronos glTF Blender I/O v5.2.40","version":"2.0"},"scene":0,"scenes":[{"name":"Scene","nodes":[24]}],"nodes":[{"mesh":0,"name":"body","translation":[0,0.6800000071525574,0]},{"mesh":1,"name":"ear_1","translation":[0.5400000214576721,1.169600009918213,-0.12960000336170197]},{"mesh":2,"name":"ear_-1","translation":[0.5400000214576721,1.169600009918213,0.12960000336170197]},{"mesh":3,"name":"eye_left","translation":[0.6499999761581421,1.0099999904632568,0.12999999523162842]},{"mesh":4,"name":"eye_right","translation":[0.6499999761581421,1.0099999904632568,-0.12999999523162842]},{"mesh":5,"name":"head","translation":[0.5400000214576721,0.9399999976158142,0]},{"mesh":6,"name":"hoof_0","translation":[-0.3799999952316284,0.054999999701976776,0.19499999284744263]},{"mesh":7,"name":"hoof_1","translation":[-0.3799999952316284,0.054999999701976776,-0.24500000476837158]},{"mesh":8,"name":"hoof_2","translation":[0.3799999952316284,0.054999999701976776,0.19499999284744263]},{"mesh":9,"name":"hoof_3","translation":[0.3799999952316284,0.054999999701976776,-0.24500000476837158]},{"mesh":10,"name":"leg_0","translation":[-0.3799999952316284,0.30000001192092896,0.2199999988079071]},{"mesh":11,"name":"leg_1","translation":[-0.3799999952316284,0.30000001192092896,-0.2199999988079071]},{"mesh":12,"name":"leg_2","translation":[0.3799999952316284,0.30000001192092896,0.2199999988079071]},{"mesh":13,"name":"leg_3","translation":[0.3799999952316284,0.30000001192092896,-0.2199999988079071]},{"mesh":14,"name":"mane","translation":[0.2800000011920929,1.0499999523162842,0]},{"mesh":15,"name":"muzzle","translation":[0.7039999961853027,0.9049999713897705,0]},{"mesh":16,"name":"nose","translation":[0.7900000214576721,0.9200000166893005,0]},{"mesh":17,"name":"stripe_0","translation":[-0.41999998688697815,0.6899999976158142,0]},{"mesh":18,"name":"stripe_1","translation":[-0.27000001072883606,0.6899999976158142,0]},{"mesh":19,"name":"stripe_2","translation":[-0.10999999940395355,0.6899999976158142,0]},{"mesh":20,"name":"stripe_3","translation":[0.05999999865889549,0.6899999976158142,0]},{"mesh":21,"name":"stripe_4","translation":[0.23000000417232513,0.6899999976158142,0]},{"mesh":22,"name":"stripe_5","translation":[0.38999998569488525,0.6899999976158142,0]},{"mesh":23,"name":"tail","rotation":[0,0,-0.7071068286895752,0.7071068286895752],"translation":[-0.5130000114440918,0.7200000286102295,0]},{"children":[0,1,2,3,4,5,6,7,8,9,10,11,12,13,14,15,16,17,18,19,20,21,22,23],"name":"animal_root"}],"animations":[{"name":"idle","samplers":[{"input":79,"interpolation":"LINEAR","output":80},{"input":79,"interpolation":"LINEAR","output":81},{"input":79,"interpolation":"LINEAR","output":84}],"channels":[{"sampler":0,"target":{"node":24,"path":"translation"}},{"sampler":1,"target":{"node":5,"path":"rotation"}},{"sampler":2,"target":{"node":23,"path":"rotation"}}]},{"name":"walk","samplers":[{"input":79,"interpolation":"LINEAR","output":82},{"input":79,"interpolation":"LINEAR","output":83},{"input":79,"interpolation":"LINEAR","output":83},{"input":79,"interpolation":"LINEAR","output":82}],"channels":[{"sampler":0,"target":{"node":10,"path":"rotation"}},{"sampler":1,"target":{"node":11,"path":"rotation"}},{"sampler":2,"target":{"node":12,"path":"rotation"}},{"sampler":3,"target":{"node":13,"path":"rotation"}}]}],"materials":[{"doubleSided":true,"name":"zoo_zebra","pbrMetallicRoughness":{"baseColorFactor":[0.9607843160629272,0.9411764740943909,0.8627451062202454,1],"metallicFactor":0,"roughnessFactor":0.8199999928474426}},{"doubleSided":true,"name":"zoo_black","pbrMetallicRoughness":{"baseColorFactor":[0.14901961386203766,0.1725490242242813,0.1921568661928177,1],"metallicFactor":0,"roughnessFactor":0.8199999928474426}}],"meshes":[{"name":"Icosphere.014","primitives":[{"attributes":{"POSITION":0,"NORMAL":1,"TEXCOORD_0":2},"indices":3,"material":0}]},{"name":"Icosphere.021","primitives":[{"attributes":{"POSITION":4,"NORMAL":5,"TEXCOORD_0":6},"indices":7,"material":0}]},{"name":"Icosphere.020","primitives":[{"attributes":{"POSITION":8,"NORMAL":9,"TEXCOORD_0":10},"indices":7,"material":0}]},{"name":"Icosphere.016","primitives":[{"attributes":{"POSITION":11,"NORMAL":12,"TEXCOORD_0":13},"indices":14,"material":1}]},{"name":"Icosphere.017","primitives":[{"attributes":{"POSITION":15,"NORMAL":16,"TEXCOORD_0":17},"indices":14,"material":1}]},{"name":"Icosphere.015","primitives":[{"attributes":{"POSITION":18,"NORMAL":19,"TEXCOORD_0":20},"indices":21,"material":0}]},{"name":"Cube.059","primitives":[{"attributes":{"POSITION":22,"NORMAL":23,"TEXCOORD_0":24},"indices":25,"material":1}]},{"name":"Cube.060","primitives":[{"attributes":{"POSITION":26,"NORMAL":27,"TEXCOORD_0":28},"indices":25,"material":1}]},{"name":"Cube.061","primitives":[{"attributes":{"POSITION":29,"NORMAL":30,"TEXCOORD_0":31},"indices":25,"material":1}]},{"name":"Cube.062","primitives":[{"attributes":{"POSITION":32,"NORMAL":33,"TEXCOORD_0":34},"indices":25,"material":1}]},{"name":"Cylinder.023","primitives":[{"attributes":{"POSITION":35,"NORMAL":36,"TEXCOORD_0":37},"indices":38,"material":0}]},{"name":"Cylinder.024","primitives":[{"attributes":{"POSITION":39,"NORMAL":40,"TEXCOORD_0":41},"indices":38,"material":0}]},{"name":"Cylinder.025","primitives":[{"attributes":{"POSITION":42,"NORMAL":43,"TEXCOORD_0":44},"indices":38,"material":0}]},{"name":"Cylinder.026","primitives":[{"attributes":{"POSITION":45,"NORMAL":46,"TEXCOORD_0":47},"indices":38,"material":0}]},{"name":"Cube.063","primitives":[{"attributes":{"POSITION":48,"NORMAL":49,"TEXCOORD_0":50},"indices":25,"material":1}]},{"name":"Icosphere.018","primitives":[{"attributes":{"POSITION":51,"NORMAL":52,"TEXCOORD_0":53},"indices":54,"material":0}]},{"name":"Icosphere.019","primitives":[{"attributes":{"POSITION":55,"NORMAL":56,"TEXCOORD_0":57},"indices":14,"material":1}]},{"name":"Icosphere.022","primitives":[{"attributes":{"POSITION":58,"NORMAL":59,"TEXCOORD_0":60},"indices":54,"material":1}]},{"name":"Icosphere.023","primitives":[{"attributes":{"POSITION":61,"NORMAL":62,"TEXCOORD_0":63},"indices":54,"material":1}]},{"name":"Icosphere.024","primitives":[{"attributes":{"POSITION":64,"NORMAL":65,"TEXCOORD_0":66},"indices":54,"material":1}]},{"name":"Icosphere.025","primitives":[{"attributes":{"POSITION":67,"NORMAL":68,"TEXCOORD_0":69},"indices":54,"material":1}]},{"name":"Icosphere.026","primitives":[{"attributes":{"POSITION":70,"NORMAL":71,"TEXCOORD_0":72},"indices":54,"material":1}]},{"name":"Icosphere.027","primitives":[{"attributes":{"POSITION":73,"NORMAL":74,"TEXCOORD_0":75},"indices":54,"material":1}]},{"name":"Cylinder.027","primitives":[{"attributes":{"POSITION":76,"NORMAL":77,"TEXCOORD_0":78},"indices":38,"material":0}]}],"accessors":[{"bufferView":0,"componentType":5126,"count":960,"max":[0.5400000214576721,0.3199999928474426,0.2499999850988388],"min":[-0.5399999618530273,-0.3199999928474426,-0.2499999850988388],"type":"VEC3"},{"bufferView":1,"componentType":5126,"count":960,"type":"VEC3"},{"bufferView":2,"componentType":5126,"count":960,"type":"VEC2"},{"bufferView":3,"componentType":5123,"count":960,"type":"SCALAR"},{"bufferView":4,"componentType":5126,"count":240,"max":[0.06657405197620392,0.10000000149011612,0.05499999597668648],"min":[-0.06657405197620392,-0.10000000149011612,-0.05499999597668648],"type":"VEC3"},{"bufferView":5,"componentType":5126,"count":240,"type":"VEC3"},{"bufferView":6,"componentType":5126,"count":240,"type":"VEC2"},{"bufferView":7,"componentType":5123,"count":240,"type":"SCALAR"},{"bufferView":8,"componentType":5126,"count":240,"max":[0.06657405197620392,0.10000000149011612,0.05499999597668648],"min":[-0.06657405197620392,-0.10000000149011612,-0.05499999597668648],"type":"VEC3"},{"bufferView":9,"componentType":5126,"count":240,"type":"VEC3"},{"bufferView":10,"componentType":5126,"count":240,"type":"VEC2"},{"bufferView":11,"componentType":5126,"count":60,"max":[0.031304873526096344,0.03500000014901161,0.021266000345349312],"min":[-0.031304873526096344,-0.03500000014901161,-0.021266000345349312],"type":"VEC3"},{"bufferView":12,"componentType":5126,"count":60,"type":"VEC3"},{"bufferView":13,"componentType":5126,"count":60,"type":"VEC2"},{"bufferView":14,"componentType":5123,"count":60,"type":"SCALAR"},{"bufferView":15,"componentType":5126,"count":60,"max":[0.031304873526096344,0.03500000014901161,0.021266000345349312],"min":[-0.031304873526096344,-0.03500000014901161,-0.021266000345349312],"type":"VEC3"},{"bufferView":16,"componentType":5126,"count":60,"type":"VEC3"},{"bufferView":17,"componentType":5126,"count":60,"type":"VEC2"},{"bufferView":18,"componentType":5126,"count":960,"max":[0.20000000298023224,0.2800000011920929,0.17999999225139618],"min":[-0.19999998807907104,-0.2800000011920929,-0.17999999225139618],"type":"VEC3"},{"bufferView":19,"componentType":5126,"count":960,"type":"VEC3"},{"bufferView":20,"componentType":5126,"count":960,"type":"VEC2"},{"bufferView":21,"componentType":5123,"count":960,"type":"SCALAR"},{"bufferView":22,"componentType":5126,"count":216,"max":[0.060499999672174454,0.05000000074505806,0.07699999958276749],"min":[-0.060499999672174454,-0.05000000074505806,-0.07699999958276749],"type":"VEC3"},{"bufferView":23,"componentType":5126,"count":216,"type":"VEC3"},{"bufferView":24,"componentType":5126,"count":216,"type":"VEC2"},{"bufferView":25,"componentType":5123,"count":324,"type":"SCALAR"},{"bufferView":26,"componentType":5126,"count":216,"max":[0.060499999672174454,0.05000000074505806,0.07699999958276749],"min":[-0.060499999672174454,-0.05000000074505806,-0.07699999958276749],"type":"VEC3"},{"bufferView":27,"componentType":5126,"count":216,"type":"VEC3"},{"bufferView":28,"componentType":5126,"count":216,"type":"VEC2"},{"bufferView":29,"componentType":5126,"count":216,"max":[0.060499999672174454,0.05000000074505806,0.07699999958276749],"min":[-0.060499999672174454,-0.05000000074505806,-0.07699999958276749],"type":"VEC3"},{"bufferView":30,"componentType":5126,"count":216,"type":"VEC3"},{"bufferView":31,"componentType":5126,"count":216,"type":"VEC2"},{"bufferView":32,"componentType":5126,"count":216,"max":[0.060499999672174454,0.05000000074505806,0.07699999958276749],"min":[-0.060499999672174454,-0.05000000074505806,-0.07699999958276749],"type":"VEC3"},{"bufferView":33,"componentType":5126,"count":216,"type":"VEC3"},{"bufferView":34,"componentType":5126,"count":216,"type":"VEC2"},{"bufferView":35,"componentType":5126,"count":96,"max":[0.054999999701976776,0.28999999165534973,0.054999999701976776],"min":[-0.054999999701976776,-0.28999999165534973,-0.054999999701976776],"type":"VEC3"},{"bufferView":36,"componentType":5126,"count":96,"type":"VEC3"},{"bufferView":37,"componentType":5126,"count":96,"type":"VEC2"},{"bufferView":38,"componentType":5123,"count":180,"type":"SCALAR"},{"bufferView":39,"componentType":5126,"count":96,"max":[0.054999999701976776,0.28999999165534973,0.054999999701976776],"min":[-0.054999999701976776,-0.28999999165534973,-0.054999999701976776],"type":"VEC3"},{"bufferView":40,"componentType":5126,"count":96,"type":"VEC3"},{"bufferView":41,"componentType":5126,"count":96,"type":"VEC2"},{"bufferView":42,"componentType":5126,"count":96,"max":[0.054999999701976776,0.28999999165534973,0.054999999701976776],"min":[-0.054999999701976776,-0.28999999165534973,-0.054999999701976776],"type":"VEC3"},{"bufferView":43,"componentType":5126,"count":96,"type":"VEC3"},{"bufferView":44,"componentType":5126,"count":96,"type":"VEC2"},{"bufferView":45,"componentType":5126,"count":96,"max":[0.054999999701976776,0.28999999165534973,0.054999999701976776],"min":[-0.054999999701976776,-0.28999999165534973,-0.054999999701976776],"type":"VEC3"},{"bufferView":46,"componentType":5126,"count":96,"type":"VEC3"},{"bufferView":47,"componentType":5126,"count":96,"type":"VEC2"},{"bufferView":48,"componentType":5126,"count":216,"max":[0.23999999463558197,0.04500000178813934,0.03999999910593033],"min":[-0.23999999463558197,-0.04500000178813934,-0.03999999910593033],"type":"VEC3"},{"bufferView":49,"componentType":5126,"count":216,"type":"VEC3"},{"bufferView":50,"componentType":5126,"count":216,"type":"VEC2"},{"bufferView":51,"componentType":5126,"count":240,"max":[0.09130155295133591,0.11760000139474869,0.11699999123811722],"min":[-0.09130155295133591,-0.11760000139474869,-0.11699999123811722],"type":"VEC3"},{"bufferView":52,"componentType":5126,"count":240,"type":"VEC3"},{"bufferView":53,"componentType":5126,"count":240,"type":"VEC2"},{"bufferView":54,"componentType":5123,"count":240,"type":"SCALAR"},{"bufferView":55,"componentType":5126,"count":60,"max":[0.049193374812603,0.04500000178813934,0.05529159680008888],"min":[-0.049193374812603,-0.04500000178813934,-0.05529159680008888],"type":"VEC3"},{"bufferView":56,"componentType":5126,"count":60,"type":"VEC3"},{"bufferView":57,"componentType":5126,"count":60,"type":"VEC2"},{"bufferView":58,"componentType":5126,"count":240,"max":[0.03328702598810196,0.3149999976158142,0.25499996542930603],"min":[-0.03328702598810196,-0.3149999976158142,-0.25499996542930603],"type":"VEC3"},{"bufferView":59,"componentType":5126,"count":240,"type":"VEC3"},{"bufferView":60,"componentType":5126,"count":240,"type":"VEC2"},{"bufferView":61,"componentType":5126,"count":240,"max":[0.03328702598810196,0.3149999976158142,0.25499996542930603],"min":[-0.03328702598810196,-0.3149999976158142,-0.25499996542930603],"type":"VEC3"},{"bufferView":62,"componentType":5126,"count":240,"type":"VEC3"},{"bufferView":63,"componentType":5126,"count":240,"type":"VEC2"},{"bufferView":64,"componentType":5126,"count":240,"max":[0.03328702598810196,0.3149999976158142,0.25499996542930603],"min":[-0.03328702598810196,-0.3149999976158142,-0.25499996542930603],"type":"VEC3"},{"bufferView":65,"componentType":5126,"count":240,"type":"VEC3"},{"bufferView":66,"componentType":5126,"count":240,"type":"VEC2"},{"bufferView":67,"componentType":5126,"count":240,"max":[0.03328702598810196,0.3149999976158142,0.25499996542930603],"min":[-0.03328702598810196,-0.3149999976158142,-0.25499996542930603],"type":"VEC3"},{"bufferView":68,"componentType":5126,"count":240,"type":"VEC3"},{"bufferView":69,"componentType":5126,"count":240,"type":"VEC2"},{"bufferView":70,"componentType":5126,"count":240,"max":[0.03328702598810196,0.3149999976158142,0.25499996542930603],"min":[-0.03328702598810196,-0.3149999976158142,-0.25499996542930603],"type":"VEC3"},{"bufferView":71,"componentType":5126,"count":240,"type":"VEC3"},{"bufferView":72,"componentType":5126,"count":240,"type":"VEC2"},{"bufferView":73,"componentType":5126,"count":240,"max":[0.03328702598810196,0.3149999976158142,0.25499996542930603],"min":[-0.03328702598810196,-0.3149999976158142,-0.25499996542930603],"type":"VEC3"},{"bufferView":74,"componentType":5126,"count":240,"type":"VEC3"},{"bufferView":75,"componentType":5126,"count":240,"type":"VEC2"},{"bufferView":76,"componentType":5126,"count":96,"max":[0.030249999836087227,0.148499995470047,0.030249999836087227],"min":[-0.030249999836087227,-0.148499995470047,-0.030249999836087227],"type":"VEC3"},{"bufferView":77,"componentType":5126,"count":96,"type":"VEC3"},{"bufferView":78,"componentType":5126,"count":96,"type":"VEC2"},{"bufferView":79,"componentType":5126,"count":25,"max":[1.0416666666666667],"min":[0.041666666666666664],"type":"SCALAR"},{"bufferView":80,"componentType":5126,"count":25,"type":"VEC3"},{"bufferView":81,"componentType":5126,"count":25,"type":"VEC4"},{"bufferView":82,"componentType":5126,"count":25,"type":"VEC4"},{"bufferView":83,"componentType":5126,"count":25,"type":"VEC4"},{"bufferView":84,"componentType":5126,"count":25,"type":"VEC4"}],"bufferViews":[{"buffer":0,"byteLength":11520,"byteOffset":0,"target":34962},{"buffer":0,"byteLength":11520,"byteOffset":11520,"target":34962},{"buffer":0,"byteLength":7680,"byteOffset":23040,"target":34962},{"buffer":0,"byteLength":1920,"byteOffset":30720,"target":34963},{"buffer":0,"byteLength":2880,"byteOffset":32640,"target":34962},{"buffer":0,"byteLength":2880,"byteOffset":35520,"target":34962},{"buffer":0,"byteLength":1920,"byteOffset":38400,"target":34962},{"buffer":0,"byteLength":480,"byteOffset":40320,"target":34963},{"buffer":0,"byteLength":2880,"byteOffset":40800,"target":34962},{"buffer":0,"byteLength":2880,"byteOffset":43680,"target":34962},{"buffer":0,"byteLength":1920,"byteOffset":46560,"target":34962},{"buffer":0,"byteLength":720,"byteOffset":48480,"target":34962},{"buffer":0,"byteLength":720,"byteOffset":49200,"target":34962},{"buffer":0,"byteLength":480,"byteOffset":49920,"target":34962},{"buffer":0,"byteLength":120,"byteOffset":50400,"target":34963},{"buffer":0,"byteLength":720,"byteOffset":50520,"target":34962},{"buffer":0,"byteLength":720,"byteOffset":51240,"target":34962},{"buffer":0,"byteLength":480,"byteOffset":51960,"target":34962},{"buffer":0,"byteLength":11520,"byteOffset":52440,"target":34962},{"buffer":0,"byteLength":11520,"byteOffset":63960,"target":34962},{"buffer":0,"byteLength":7680,"byteOffset":75480,"target":34962},{"buffer":0,"byteLength":1920,"byteOffset":83160,"target":34963},{"buffer":0,"byteLength":2592,"byteOffset":85080,"target":34962},{"buffer":0,"byteLength":2592,"byteOffset":87672,"target":34962},{"buffer":0,"byteLength":1728,"byteOffset":90264,"target":34962},{"buffer":0,"byteLength":648,"byteOffset":91992,"target":34963},{"buffer":0,"byteLength":2592,"byteOffset":92640,"target":34962},{"buffer":0,"byteLength":2592,"byteOffset":95232,"target":34962},{"buffer":0,"byteLength":1728,"byteOffset":97824,"target":34962},{"buffer":0,"byteLength":2592,"byteOffset":99552,"target":34962},{"buffer":0,"byteLength":2592,"byteOffset":102144,"target":34962},{"buffer":0,"byteLength":1728,"byteOffset":104736,"target":34962},{"buffer":0,"byteLength":2592,"byteOffset":106464,"target":34962},{"buffer":0,"byteLength":2592,"byteOffset":109056,"target":34962},{"buffer":0,"byteLength":1728,"byteOffset":111648,"target":34962},{"buffer":0,"byteLength":1152,"byteOffset":113376,"target":34962},{"buffer":0,"byteLength":1152,"byteOffset":114528,"target":34962},{"buffer":0,"byteLength":768,"byteOffset":115680,"target":34962},{"buffer":0,"byteLength":360,"byteOffset":116448,"target":34963},{"buffer":0,"byteLength":1152,"byteOffset":116808,"target":34962},{"buffer":0,"byteLength":1152,"byteOffset":117960,"target":34962},{"buffer":0,"byteLength":768,"byteOffset":119112,"target":34962},{"buffer":0,"byteLength":1152,"byteOffset":119880,"target":34962},{"buffer":0,"byteLength":1152,"byteOffset":121032,"target":34962},{"buffer":0,"byteLength":768,"byteOffset":122184,"target":34962},{"buffer":0,"byteLength":1152,"byteOffset":122952,"target":34962},{"buffer":0,"byteLength":1152,"byteOffset":124104,"target":34962},{"buffer":0,"byteLength":768,"byteOffset":125256,"target":34962},{"buffer":0,"byteLength":2592,"byteOffset":126024,"target":34962},{"buffer":0,"byteLength":2592,"byteOffset":128616,"target":34962},{"buffer":0,"byteLength":1728,"byteOffset":131208,"target":34962},{"buffer":0,"byteLength":2880,"byteOffset":132936,"target":34962},{"buffer":0,"byteLength":2880,"byteOffset":135816,"target":34962},{"buffer":0,"byteLength":1920,"byteOffset":138696,"target":34962},{"buffer":0,"byteLength":480,"byteOffset":140616,"target":34963},{"buffer":0,"byteLength":720,"byteOffset":141096,"target":34962},{"buffer":0,"byteLength":720,"byteOffset":141816,"target":34962},{"buffer":0,"byteLength":480,"byteOffset":142536,"target":34962},{"buffer":0,"byteLength":2880,"byteOffset":143016,"target":34962},{"buffer":0,"byteLength":2880,"byteOffset":145896,"target":34962},{"buffer":0,"byteLength":1920,"byteOffset":148776,"target":34962},{"buffer":0,"byteLength":2880,"byteOffset":150696,"target":34962},{"buffer":0,"byteLength":2880,"byteOffset":153576,"target":34962},{"buffer":0,"byteLength":1920,"byteOffset":156456,"target":34962},{"buffer":0,"byteLength":2880,"byteOffset":158376,"target":34962},{"buffer":0,"byteLength":2880,"byteOffset":161256,"target":34962},{"buffer":0,"byteLength":1920,"byteOffset":164136,"target":34962},{"buffer":0,"byteLength":2880,"byteOffset":166056,"target":34962},{"buffer":0,"byteLength":2880,"byteOffset":168936,"target":34962},{"buffer":0,"byteLength":1920,"byteOffset":171816,"target":34962},{"buffer":0,"byteLength":2880,"byteOffset":173736,"target":34962},{"buffer":0,"byteLength":2880,"byteOffset":176616,"target":34962},{"buffer":0,"byteLength":1920,"byteOffset":179496,"target":34962},{"buffer":0,"byteLength":2880,"byteOffset":181416,"target":34962},{"buffer":0,"byteLength":2880,"byteOffset":184296,"target":34962},{"buffer":0,"byteLength":1920,"byteOffset":187176,"target":34962},{"buffer":0,"byteLength":1152,"byteOffset":189096,"target":34962},{"buffer":0,"byteLength":1152,"byteOffset":190248,"target":34962},{"buffer":0,"byteLength":768,"byteOffset":191400,"target":34962},{"buffer":0,"byteLength":100,"byteOffset":192168},{"buffer":0,"byteLength":300,"byteOffset":192268},{"buffer":0,"byteLength":400,"byteOffset":192568},{"buffer":0,"byteLength":400,"byteOffset":192968},{"buffer":0,"byteLength":400,"byteOffset":193368},{"buffer":0,"byteLength":400,"byteOffset":193768}],"buffers":[{"byteLength":194168,"uri":"zebra.bin"}]}