{"asset":{"generator":"Khronos glTF Blender I/O v5.2.40","version":"2.0"},"scene":0,"scenes":[{"name":"Scene","nodes":[14]}],"nodes":[{"mesh":0,"name":"awning_post_0.42","translation":[0.41999998688697815,0.6600000262260437,-0.2800000011920929]},{"mesh":1,"name":"awning_post_-0.42","translation":[-0.41999998688697815,0.6600000262260437,-0.2800000011920929]},{"mesh":2,"name":"awning_stripe_0","translation":[-0.4000000059604645,0.8399999737739563,-0.07999999821186066]},{"mesh":3,"name":"awning_stripe_1","translation":[-0.20000000298023224,0.8399999737739563,-0.07999999821186066]},{"mesh":4,"name":"awning_stripe_2","translation":[0,0.8399999737739563,-0.07999999821186066]},{"mesh":5,"name":"awning_stripe_3","translation":[0.20000000298023224,0.8399999737739563,-0.07999999821186066]},{"mesh":6,"name":"awning_stripe_4","translation":[0.4000000059604645,0.8399999737739563,-0.07999999821186066]},{"mesh":7,"name":"burger_bun_bottom","translation":[0,1.0800000429153442,-0.08500000089406967]},{"mesh":8,"name":"burger_bun_top","translation":[0,1.1799999475479126,-0.08500000089406967]},{"mesh":9,"name":"burger_patty","translation":[0,1.1299999952316284,-0.08500000089406967]},{"mesh":10,"name":"counter","translation":[0,0.3799999952316284,0]},{"mesh":11,"name":"menu_sign","translation":[0,1.0199999809265137,-0.029999999329447746]},{"mesh":12,"name":"service_window","translation":[0,0.4699999988079071,-0.32199999690055847]},{"mesh":13,"name":"serving_counter","translation":[0,0.3100000023841858,-0.3799999952316284]},{"children":[0,1,2,3,4,5,6,7,8,9,10,11,12,13],"name":"food_stand_root"}],"materials":[{"doubleSided":true,"name":"zoo_trim","pbrMetallicRoughness":{"baseColorFactor":[0.9176470637321472,0.8745098114013672,0.7490196228027344,1],"metallicFactor":0,"roughnessFactor":0.8199999928474426}},{"doubleSided":true,"name":"zoo_food","pbrMetallicRoughness":{"baseColorFactor":[0.9058823585510254,0.7254902124404907,0.34117648005485535,1],"metallicFactor":0,"roughnessFactor":0.8199999928474426}},{"doubleSided":true,"name":"zoo_white","pbrMetallicRoughness":{"baseColorFactor":[0.95686274766922,0.9372549057006836,0.886274516582489,1],"metallicFactor":0,"roughnessFactor":0.8199999928474426}},{"doubleSided":true,"name":"zoo_roof","pbrMetallicRoughness":{"baseColorFactor":[0.615686297416687,0.2862745225429535,0.21568627655506134,1],"metallicFactor":0,"roughnessFactor":0.8199999928474426}},{"doubleSided":true,"name":"zoo_dark_wood","pbrMetallicRoughness":{"baseColorFactor":[0.1411764770746231,0.24705882370471954,0.21960784494876862,1],"metallicFactor":0,"roughnessFactor":0.8199999928474426}},{"doubleSided":true,"name":"zoo_cream","pbrMetallicRoughness":{"baseColorFactor":[0.8470588326454163,0.7803921699523926,0.615686297416687,1],"metallicFactor":0,"roughnessFactor":0.8199999928474426}}],"meshes":[{"name":"Cylinder.002","primitives":[{"attributes":{"POSITION":0,"NORMAL":1,"TEXCOORD_0":2},"indices":3,"material":0}]},{"name":"Cylinder.001","primitives":[{"attributes":{"POSITION":4,"NORMAL":5,"TEXCOORD_0":6},"indices":3,"material":0}]},{"name":"Cube.024","primitives":[{"attributes":{"POSITION":7,"NORMAL":8,"TEXCOORD_0":9},"indices":10,"material":1}]},{"name":"Cube.025","primitives":[{"attributes":{"POSITION":11,"NORMAL":12,"TEXCOORD_0":13},"indices":10,"material":2}]},{"name":"Cube.026","primitives":[{"attributes":{"POSITION":14,"NORMAL":15,"TEXCOORD_0":16},"indices":10,"material":1}]},{"name":"Cube.027","primitives":[{"attributes":{"POSITION":17,"NORMAL":18,"TEXCOORD_0":19},"indices":10,"material":2}]},{"name":"Cube.028","primitives":[{"attributes":{"POSITION":20,"NORMAL":21,"TEXCOORD_0":22},"indices":10,"material":1}]},{"name":"Cylinder.003","primitives":[{"attributes":{"POSITION":23,"NORMAL":24,"TEXCOORD_0":25},"indices":26,"material":1}]},{"name":"Cylinder.005","primitives":[{"attributes":{"POSITION":27,"NORMAL":28,"TEXCOORD_0":29},"indices":26,"material":1}]},{"name":"Cylinder.004","primitives":[{"attributes":{"POSITION":30,"NORMAL":31,"TEXCOORD_0":32},"indices":26,"material":3}]},{"name":"Cube.021","primitives":[{"attributes":{"POSITION":33,"NORMAL":34,"TEXCOORD_0":35},"indices":10,"material":1}]},{"name":"Cube.029","primitives":[{"attributes":{"POSITION":36,"NORMAL":37,"TEXCOORD_0":38},"indices":10,"material":1}]},{"name":"Cube.022","primitives":[{"attributes":{"POSITION":39,"NORMAL":40,"TEXCOORD_0":41},"indices":10,"material":4}]},{"name":"Cube.023","primitives":[{"attributes":{"POSITION":42,"NORMAL":43,"TEXCOORD_0":44},"indices":10,"material":5}]}],"accessors":[{"bufferView":0,"componentType":5126,"count":72,"max":[0.02500000037252903,0.27000001072883606,0.02500000037252903],"min":[-0.02500000037252903,-0.27000001072883606,-0.02500000037252903],"type":"VEC3"},{"bufferView":1,"componentType":5126,"count":72,"type":"VEC3"},{"bufferView":2,"componentType":5126,"count":72,"type":"VEC2"},{"bufferView":3,"componentType":5123,"count":132,"type":"SCALAR"},{"bufferView":4,"componentType":5126,"count":72,"max":[0.02500000037252903,0.27000001072883606,0.02500000037252903],"min":[-0.02500000037252903,-0.27000001072883606,-0.02500000037252903],"type":"VEC3"},{"bufferView":5,"componentType":5126,"count":72,"type":"VEC3"},{"bufferView":6,"componentType":5126,"count":72,"type":"VEC2"},{"bufferView":7,"componentType":5126,"count":216,"max":[0.10249999910593033,0.06499999761581421,0.38999998569488525],"min":[-0.10249999910593033,-0.06499999761581421,-0.38999998569488525],"type":"VEC3"},{"bufferView":8,"componentType":5126,"count":216,"type":"VEC3"},{"bufferView":9,"componentType":5126,"count":216,"type":"VEC2"},{"bufferView":10,"componentType":5123,"count":324,"type":"SCALAR"},{"bufferView":11,"componentType":5126,"count":216,"max":[0.10249999910593033,0.06499999761581421,0.38999998569488525],"min":[-0.10249999910593033,-0.06499999761581421,-0.38999998569488525],"type":"VEC3"},{"bufferView":12,"componentType":5126,"count":216,"type":"VEC3"},{"bufferView":13,"componentType":5126,"count":216,"type":"VEC2"},{"bufferView":14,"componentType":5126,"count":216,"max":[0.10249999910593033,0.06499999761581421,0.38999998569488525],"min":[-0.10249999910593033,-0.06499999761581421,-0.38999998569488525],"type":"VEC3"},{"bufferView":15,"componentType":5126,"count":216,"type":"VEC3"},{"bufferView":16,"componentType":5126,"count":216,"type":"VEC2"},{"bufferView":17,"componentType":5126,"count":216,"max":[0.10249999910593033,0.06499999761581421,0.38999998569488525],"min":[-0.10249999910593033,-0.06499999761581421,-0.38999998569488525],"type":"VEC3"},{"bufferView":18,"componentType":5126,"count":216,"type":"VEC3"},{"bufferView":19,"componentType":5126,"count":216,"type":"VEC2"},{"bufferView":20,"componentType":5126,"count":216,"max":[0.10249999910593033,0.06499999761581421,0.38999998569488525],"min":[-0.10249999910593033,-0.06499999761581421,-0.38999998569488525],"type":"VEC3"},{"bufferView":21,"componentType":5126,"count":216,"type":"VEC3"},{"bufferView":22,"componentType":5126,"count":216,"type":"VEC2"},{"bufferView":23,"componentType":5126,"count":96,"max":[0.10999999940395355,0.02250000089406967,0.10999999940395355],"min":[-0.10999999940395355,-0.02250000089406967,-0.10999999940395355],"type":"VEC3"},{"bufferView":24,"componentType":5126,"count":96,"type":"VEC3"},{"bufferView":25,"componentType":5126,"count":96,"type":"VEC2"},{"bufferView":26,"componentType":5123,"count":180,"type":"SCALAR"},{"bufferView":27,"componentType":5126,"count":96,"max":[0.10999999940395355,0.02500000037252903,0.10999999940395355],"min":[-0.10999999940395355,-0.02500000037252903,-0.10999999940395355],"type":"VEC3"},{"bufferView":28,"componentType":5126,"count":96,"type":"VEC3"},{"bufferView":29,"componentType":5126,"count":96,"type":"VEC2"},{"bufferView":30,"componentType":5126,"count":96,"max":[0.10000000149011612,0.017500000074505806,0.10000000149011612],"min":[-0.10000000149011612,-0.017500000074505806,-0.10000000149011612],"type":"VEC3"},{"bufferView":31,"componentType":5126,"count":96,"type":"VEC3"},{"bufferView":32,"componentType":5126,"count":96,"type":"VEC2"},{"bufferView":33,"componentType":5126,"count":216,"max":[0.4099999964237213,0.3499999940395355,0.3100000023841858],"min":[-0.4099999964237213,-0.3499999940395355,-0.3100000023841858],"type":"VEC3"},{"bufferView":34,"componentType":5126,"count":216,"type":"VEC3"},{"bufferView":35,"componentType":5126,"count":216,"type":"VEC2"},{"bufferView":36,"componentType":5126,"count":216,"max":[0.25,0.11500000208616257,0.03999999910593033],"min":[-0.25,-0.11500000208616257,-0.03999999910593033],"type":"VEC3"},{"bufferView":37,"componentType":5126,"count":216,"type":"VEC3"},{"bufferView":38,"componentType":5126,"count":216,"type":"VEC2"},{"bufferView":39,"componentType":5126,"count":216,"max":[0.27000001072883606,0.14000000059604645,0.012500000186264515],"min":[-0.27000001072883606,-0.14000000059604645,-0.012500000186264515],"type":"VEC3"},{"bufferView":40,"componentType":5126,"count":216,"type":"VEC3"},{"bufferView":41,"componentType":5126,"count":216,"type":"VEC2"},{"bufferView":42,"componentType":5126,"count":216,"max":[0.3400000035762787,0.07000000029802322,0.07999999821186066],"min":[-0.3400000035762787,-0.07000000029802322,-0.07999999821186066],"type":"VEC3"},{"bufferView":43,"componentType":5126,"count":216,"type":"VEC3"},{"bufferView":44,"componentType":5126,"count":216,"type":"VEC2"}],"bufferViews":[{"buffer":0,"byteLength":864,"byteOffset":0,"target":34962},{"buffer":0,"byteLength":864,"byteOffset":864,"target":34962},{"buffer":0,"byteLength":576,"byteOffset":1728,"target":34962},{"buffer":0,"byteLength":264,"byteOffset":2304,"target":34963},{"buffer":0,"byteLength":864,"byteOffset":2568,"target":34962},{"buffer":0,"byteLength":864,"byteOffset":3432,"target":34962},{"buffer":0,"byteLength":576,"byteOffset":4296,"target":34962},{"buffer":0,"byteLength":2592,"byteOffset":4872,"target":34962},{"buffer":0,"byteLength":2592,"byteOffset":7464,"target":34962},{"buffer":0,"byteLength":1728,"byteOffset":10056,"target":34962},{"buffer":0,"byteLength":648,"byteOffset":11784,"target":34963},{"buffer":0,"byteLength":2592,"byteOffset":12432,"target":34962},{"buffer":0,"byteLength":2592,"byteOffset":15024,"target":34962},{"buffer":0,"byteLength":1728,"byteOffset":17616,"target":34962},{"buffer":0,"byteLength":2592,"byteOffset":19344,"target":34962},{"buffer":0,"byteLength":2592,"byteOffset":21936,"target":34962},{"buffer":0,"byteLength":1728,"byteOffset":24528,"target":34962},{"buffer":0,"byteLength":2592,"byteOffset":26256,"target":34962},{"buffer":0,"byteLength":2592,"byteOffset":28848,"target":34962},{"buffer":0,"byteLength":1728,"byteOffset":31440,"target":34962},{"buffer":0,"byteLength":2592,"byteOffset":33168,"target":34962},{"buffer":0,"byteLength":2592,"byteOffset":35760,"target":34962},{"buffer":0,"byteLength":1728,"byteOffset":38352,"target":34962},{"buffer":0,"byteLength":1152,"byteOffset":40080,"target":34962},{"buffer":0,"byteLength":1152,"byteOffset":41232,"target":34962},{"buffer":0,"byteLength":768,"byteOffset":42384,"target":34962},{"buffer":0,"byteLength":360,"byteOffset":43152,"target":34963},{"buffer":0,"byteLength":1152,"byteOffset":43512,"target":34962},{"buffer":0,"byteLength":1152,"byteOffset":44664,"target":34962},{"buffer":0,"byteLength":768,"byteOffset":45816,"target":34962},{"buffer":0,"byteLength":1152,"byteOffset":46584,"target":34962},{"buffer":0,"byteLength":1152,"byteOffset":47736,"target":34962},{"buffer":0,"byteLength":768,"byteOffset":48888,"target":34962},{"buffer":0,"byteLength":2592,"byteOffset":49656,"target":34962},{"buffer":0,"byteLength":2592,"byteOffset":52248,"target":34962},{"buffer":0,"byteLength":1728,"byteOffset":54840,"target":34962},{"buffer":0,"byteLength":2592,"byteOffset":56568,"target":34962},{"buffer":0,"byteLength":2592,"byteOffset":59160,"target":34962},{"buffer":0,"byteLength":1728,"byteOffset":61752,"target":34962},{"buffer":0,"byteLength":2592,"byteOffset":63480,"target":34962},{"buffer":0,"byteLength":2592,"byteOffset":66072,"target":34962},{"buffer":0,"byteLength":1728,"byteOffset":68664,"target":34962},{"buffer":0,"byteLength":2592,"byteOffset":70392,"target":34962},{"buffer":0,"byteLength":2592,"byteOffset":72984,"target":34962},{"buffer":0,"byteLength":1728,"byteOffset":75576,"target":34962}],"buffers":[{"byteLength":77304,"uri":"food_stand.bin"}]}