{"asset":{"generator":"Khronos glTF Blender I/O v5.2.40","version":"2.0"},"scene":0,"scenes":[{"name":"Scene","nodes":[19]}],"nodes":[{"mesh":0,"name":"body","translation":[0,0.6800000071525574,0]},{"mesh":1,"name":"capybara_cheek_1","translation":[0.7200000286102295,0.6499999761581421,-0.1599999964237213]},{"mesh":2,"name":"capybara_cheek_-1","translation":[0.7200000286102295,0.6499999761581421,0.1599999964237213]},{"mesh":3,"name":"ear_1","translation":[0.5600000023841858,0.843999981880188,-0.14399999380111694]},{"mesh":4,"name":"ear_-1","translation":[0.5600000023841858,0.843999981880188,0.14399999380111694]},{"mesh":5,"name":"eye_left","translation":[0.6919999718666077,0.7300000190734863,0.12999999523162842]},{"mesh":6,"name":"eye_right","translation":[0.6919999718666077,0.7300000190734863,-0.12999999523162842]},{"mesh":7,"name":"head","translation":[0.5600000023841858,0.6800000071525574,0]},{"mesh":8,"name":"hoof_0","translation":[-0.3799999952316284,0.054999999701976776,0.19499999284744263]},{"mesh":9,"name":"hoof_1","translation":[-0.3799999952316284,0.054999999701976776,-0.24500000476837158]},{"mesh":10,"name":"hoof_2","translation":[0.3799999952316284,0.054999999701976776,0.19499999284744263]},{"mesh":11,"name":"hoof_3","translation":[0.3799999952316284,0.054999999701976776,-0.24500000476837158]},{"mesh":12,"name":"leg_0","translation":[-0.3799999952316284,0.30000001192092896,0.2199999988079071]},{"mesh":13,"name":"leg_1","translation":[-0.3799999952316284,0.30000001192092896,-0.2199999988079071]},{"mesh":14,"name":"leg_2","translation":[0.3799999952316284,0.30000001192092896,0.2199999988079071]},{"mesh":15,"name":"leg_3","translation":[0.3799999952316284,0.30000001192092896,-0.2199999988079071]},{"mesh":16,"name":"muzzle","translation":[0.7567999958992004,0.6449999809265137,0]},{"mesh":17,"name":"nose","translation":[0.8600000143051147,0.6600000262260437,0]},{"mesh":18,"name":"tail","rotation":[0,0,-0.7071068286895752,0.7071068286895752],"translation":[-0.5320000052452087,0.7200000286102295,0]},{"children":[0,1,2,3,4,5,6,7,8,9,10,11,12,13,14,15,16,17,18],"name":"animal_root"}],"animations":[{"name":"idle","samplers":[{"input":64,"interpolation":"LINEAR","output":65},{"input":64,"interpolation":"LINEAR","output":66},{"input":64,"interpolation":"LINEAR","output":69}],"channels":[{"sampler":0,"target":{"node":19,"path":"translation"}},{"sampler":1,"target":{"node":7,"path":"rotation"}},{"sampler":2,"target":{"node":18,"path":"rotation"}}]},{"name":"walk","samplers":[{"input":64,"interpolation":"LINEAR","output":67},{"input":64,"interpolation":"LINEAR","output":68},{"input":64,"interpolation":"LINEAR","output":68},{"input":64,"interpolation":"LINEAR","output":67}],"channels":[{"sampler":0,"target":{"node":12,"path":"rotation"}},{"sampler":1,"target":{"node":13,"path":"rotation"}},{"sampler":2,"target":{"node":14,"path":"rotation"}},{"sampler":3,"target":{"node":15,"path":"rotation"}}]}],"materials":[{"doubleSided":true,"name":"zoo_capybara","pbrMetallicRoughness":{"baseColorFactor":[0.658823549747467,0.47058823704719543,0.3137255012989044,1],"metallicFactor":0,"roughnessFactor":0.8199999928474426}},{"doubleSided":true,"name":"zoo_black","pbrMetallicRoughness":{"baseColorFactor":[0.14901961386203766,0.1725490242242813,0.1921568661928177,1],"metallicFactor":0,"roughnessFactor":0.8199999928474426}}],"meshes":[{"name":"Icosphere","primitives":[{"attributes":{"POSITION":0,"NORMAL":1,"TEXCOORD_0":2},"indices":3,"material":0}]},{"name":"Icosphere.009","primitives":[{"attributes":{"POSITION":4,"NORMAL":5,"TEXCOORD_0":6},"indices":7,"material":0}]},{"name":"Icosphere.008","primitives":[{"attributes":{"POSITION":8,"NORMAL":9,"TEXCOORD_0":10},"indices":7,"material":0}]},{"name":"Icosphere.007","primitives":[{"attributes":{"POSITION":11,"NORMAL":12,"TEXCOORD_0":13},"indices":14,"material":0}]},{"name":"Icosphere.006","primitives":[{"attributes":{"POSITION":15,"NORMAL":16,"TEXCOORD_0":17},"indices":14,"material":0}]},{"name":"Icosphere.002","primitives":[{"attributes":{"POSITION":18,"NORMAL":19,"TEXCOORD_0":20},"indices":21,"material":1}]},{"name":"Icosphere.003","primitives":[{"attributes":{"POSITION":22,"NORMAL":23,"TEXCOORD_0":24},"indices":21,"material":1}]},{"name":"Icosphere.001","primitives":[{"attributes":{"POSITION":25,"NORMAL":26,"TEXCOORD_0":27},"indices":3,"material":0}]},{"name":"Cube.053","primitives":[{"attributes":{"POSITION":28,"NORMAL":29,"TEXCOORD_0":30},"indices":31,"material":0}]},{"name":"Cube.054","primitives":[{"attributes":{"POSITION":32,"NORMAL":33,"TEXCOORD_0":34},"indices":31,"material":0}]},{"name":"Cube.055","primitives":[{"attributes":{"POSITION":35,"NORMAL":36,"TEXCOORD_0":37},"indices":31,"material":0}]},{"name":"Cube.056","primitives":[{"attributes":{"POSITION":38,"NORMAL":39,"TEXCOORD_0":40},"indices":31,"material":0}]},{"name":"Cylinder.015","primitives":[{"attributes":{"POSITION":41,"NORMAL":42,"TEXCOORD_0":43},"indices":44,"material":0}]},{"name":"Cylinder.016","primitives":[{"attributes":{"POSITION":45,"NORMAL":46,"TEXCOORD_0":47},"indices":44,"material":0}]},{"name":"Cylinder.017","primitives":[{"attributes":{"POSITION":48,"NORMAL":49,"TEXCOORD_0":50},"indices":44,"material":0}]},{"name":"Cylinder.018","primitives":[{"attributes":{"POSITION":51,"NORMAL":52,"TEXCOORD_0":53},"indices":44,"material":0}]},{"name":"Icosphere.004","primitives":[{"attributes":{"POSITION":54,"NORMAL":55,"TEXCOORD_0":56},"indices":57,"material":0}]},{"name":"Icosphere.005","primitives":[{"attributes":{"POSITION":58,"NORMAL":59,"TEXCOORD_0":60},"indices":21,"material":1}]},{"name":"Cylinder.019","primitives":[{"attributes":{"POSITION":61,"NORMAL":62,"TEXCOORD_0":63},"indices":44,"material":0}]}],"accessors":[{"bufferView":0,"componentType":5126,"count":960,"max":[0.5600000023841858,0.30000001192092896,0.29999998211860657],"min":[-0.559999942779541,-0.30000001192092896,-0.29999998211860657],"type":"VEC3"},{"bufferView":1,"componentType":5126,"count":960,"type":"VEC3"},{"bufferView":2,"componentType":5126,"count":960,"type":"VEC2"},{"bufferView":3,"componentType":5123,"count":960,"type":"SCALAR"},{"bufferView":4,"componentType":5126,"count":240,"max":[0.12363751977682114,0.10999999940395355,0.07999999076128006],"min":[-0.12363751977682114,-0.10999999940395355,-0.07999999076128006],"type":"VEC3"},{"bufferView":5,"componentType":5126,"count":240,"type":"VEC3"},{"bufferView":6,"componentType":5126,"count":240,"type":"VEC2"},{"bufferView":7,"componentType":5123,"count":240,"type":"SCALAR"},{"bufferView":8,"componentType":5126,"count":240,"max":[0.12363751977682114,0.10999999940395355,0.07999999076128006],"min":[-0.12363751977682114,-0.10999999940395355,-0.07999999076128006],"type":"VEC3"},{"bufferView":9,"componentType":5126,"count":240,"type":"VEC3"},{"bufferView":10,"componentType":5126,"count":240,"type":"VEC2"},{"bufferView":11,"componentType":5126,"count":240,"max":[0.06657405197620392,0.10000000149011612,0.05499999597668648],"min":[-0.06657405197620392,-0.10000000149011612,-0.05499999597668648],"type":"VEC3"},{"bufferView":12,"componentType":5126,"count":240,"type":"VEC3"},{"bufferView":13,"componentType":5126,"count":240,"type":"VEC2"},{"bufferView":14,"componentType":5123,"count":240,"type":"SCALAR"},{"bufferView":15,"componentType":5126,"count":240,"max":[0.06657405197620392,0.10000000149011612,0.05499999597668648],"min":[-0.06657405197620392,-0.10000000149011612,-0.05499999597668648],"type":"VEC3"},{"bufferView":16,"componentType":5126,"count":240,"type":"VEC3"},{"bufferView":17,"componentType":5126,"count":240,"type":"VEC2"},{"bufferView":18,"componentType":5126,"count":60,"max":[0.031304873526096344,0.03500000014901161,0.021266000345349312],"min":[-0.031304873526096344,-0.03500000014901161,-0.021266000345349312],"type":"VEC3"},{"bufferView":19,"componentType":5126,"count":60,"type":"VEC3"},{"bufferView":20,"componentType":5126,"count":60,"type":"VEC2"},{"bufferView":21,"componentType":5123,"count":60,"type":"SCALAR"},{"bufferView":22,"componentType":5126,"count":60,"max":[0.031304873526096344,0.03500000014901161,0.021266000345349312],"min":[-0.031304873526096344,-0.03500000014901161,-0.021266000345349312],"type":"VEC3"},{"bufferView":23,"componentType":5126,"count":60,"type":"VEC3"},{"bufferView":24,"componentType":5126,"count":60,"type":"VEC2"},{"bufferView":25,"componentType":5126,"count":960,"max":[0.23999999463558197,0.20000000298023224,0.19999998807907104],"min":[-0.23999997973442078,-0.20000000298023224,-0.19999998807907104],"type":"VEC3"},{"bufferView":26,"componentType":5126,"count":960,"type":"VEC3"},{"bufferView":27,"componentType":5126,"count":960,"type":"VEC2"},{"bufferView":28,"componentType":5126,"count":216,"max":[0.08250000327825546,0.05000000074505806,0.10499999672174454],"min":[-0.08250000327825546,-0.05000000074505806,-0.10499999672174454],"type":"VEC3"},{"bufferView":29,"componentType":5126,"count":216,"type":"VEC3"},{"bufferView":30,"componentType":5126,"count":216,"type":"VEC2"},{"bufferView":31,"componentType":5123,"count":324,"type":"SCALAR"},{"bufferView":32,"componentType":5126,"count":216,"max":[0.08250000327825546,0.05000000074505806,0.10499999672174454],"min":[-0.08250000327825546,-0.05000000074505806,-0.10499999672174454],"type":"VEC3"},{"bufferView":33,"componentType":5126,"count":216,"type":"VEC3"},{"bufferView":34,"componentType":5126,"count":216,"type":"VEC2"},{"bufferView":35,"componentType":5126,"count":216,"max":[0.08250000327825546,0.05000000074505806,0.10499999672174454],"min":[-0.08250000327825546,-0.05000000074505806,-0.10499999672174454],"type":"VEC3"},{"bufferView":36,"componentType":5126,"count":216,"type":"VEC3"},{"bufferView":37,"componentType":5126,"count":216,"type":"VEC2"},{"bufferView":38,"componentType":5126,"count":216,"max":[0.08250000327825546,0.05000000074505806,0.10499999672174454],"min":[-0.08250000327825546,-0.05000000074505806,-0.10499999672174454],"type":"VEC3"},{"bufferView":39,"componentType":5126,"count":216,"type":"VEC3"},{"bufferView":40,"componentType":5126,"count":216,"type":"VEC2"},{"bufferView":41,"componentType":5126,"count":96,"max":[0.07500000298023224,0.28999999165534973,0.07500000298023224],"min":[-0.07500000298023224,-0.28999999165534973,-0.07500000298023224],"type":"VEC3"},{"bufferView":42,"componentType":5126,"count":96,"type":"VEC3"},{"bufferView":43,"componentType":5126,"count":96,"type":"VEC2"},{"bufferView":44,"componentType":5123,"count":180,"type":"SCALAR"},{"bufferView":45,"componentType":5126,"count":96,"max":[0.07500000298023224,0.28999999165534973,0.07500000298023224],"min":[-0.07500000298023224,-0.28999999165534973,-0.07500000298023224],"type":"VEC3"},{"bufferView":46,"componentType":5126,"count":96,"type":"VEC3"},{"bufferView":47,"componentType":5126,"count":96,"type":"VEC2"},{"bufferView":48,"componentType":5126,"count":96,"max":[0.07500000298023224,0.28999999165534973,0.07500000298023224],"min":[-0.07500000298023224,-0.28999999165534973,-0.07500000298023224],"type":"VEC3"},{"bufferView":49,"componentType":5126,"count":96,"type":"VEC3"},{"bufferView":50,"componentType":5126,"count":96,"type":"VEC2"},{"bufferView":51,"componentType":5126,"count":96,"max":[0.07500000298023224,0.28999999165534973,0.07500000298023224],"min":[-0.07500000298023224,-0.28999999165534973,-0.07500000298023224],"type":"VEC3"},{"bufferView":52,"componentType":5126,"count":96,"type":"VEC3"},{"bufferView":53,"componentType":5126,"count":96,"type":"VEC2"},{"bufferView":54,"componentType":5126,"count":240,"max":[0.10956186056137085,0.08399999886751175,0.12999998033046722],"min":[-0.10956186056137085,-0.08399999886751175,-0.12999998033046722],"type":"VEC3"},{"bufferView":55,"componentType":5126,"count":240,"type":"VEC3"},{"bufferView":56,"componentType":5126,"count":240,"type":"VEC2"},{"bufferView":57,"componentType":5123,"count":240,"type":"SCALAR"},{"bufferView":58,"componentType":5126,"count":60,"max":[0.049193374812603,0.04500000178813934,0.05529159680008888],"min":[-0.049193374812603,-0.04500000178813934,-0.05529159680008888],"type":"VEC3"},{"bufferView":59,"componentType":5126,"count":60,"type":"VEC3"},{"bufferView":60,"componentType":5126,"count":60,"type":"VEC2"},{"bufferView":61,"componentType":5126,"count":96,"max":[0.04125000163912773,0.15399999916553497,0.04125000163912773],"min":[-0.04125000163912773,-0.15399999916553497,-0.04125000163912773],"type":"VEC3"},{"bufferView":62,"componentType":5126,"count":96,"type":"VEC3"},{"bufferView":63,"componentType":5126,"count":96,"type":"VEC2"},{"bufferView":64,"componentType":5126,"count":25,"max":[1.0416666666666667],"min":[0.041666666666666664],"type":"SCALAR"},{"bufferView":65,"componentType":5126,"count":25,"type":"VEC3"},{"bufferView":66,"componentType":5126,"count":25,"type":"VEC4"},{"bufferView":67,"componentType":5126,"count":25,"type":"VEC4"},{"bufferView":68,"componentType":5126,"count":25,"type":"VEC4"},{"bufferView":69,"componentType":5126,"count":25,"type":"VEC4"}],"bufferViews":[{"buffer":0,"byteLength":11520,"byteOffset":0,"target":34962},{"buffer":0,"byteLength":11520,"byteOffset":11520,"target":34962},{"buffer":0,"byteLength":7680,"byteOffset":23040,"target":34962},{"buffer":0,"byteLength":1920,"byteOffset":30720,"target":34963},{"buffer":0,"byteLength":2880,"byteOffset":32640,"target":34962},{"buffer":0,"byteLength":2880,"byteOffset":35520,"target":34962},{"buffer":0,"byteLength":1920,"byteOffset":38400,"target":34962},{"buffer":0,"byteLength":480,"byteOffset":40320,"target":34963},{"buffer":0,"byteLength":2880,"byteOffset":40800,"target":34962},{"buffer":0,"byteLength":2880,"byteOffset":43680,"target":34962},{"buffer":0,"byteLength":1920,"byteOffset":46560,"target":34962},{"buffer":0,"byteLength":2880,"byteOffset":48480,"target":34962},{"buffer":0,"byteLength":2880,"byteOffset":51360,"target":34962},{"buffer":0,"byteLength":1920,"byteOffset":54240,"target":34962},{"buffer":0,"byteLength":480,"byteOffset":56160,"target":34963},{"buffer":0,"byteLength":2880,"byteOffset":56640,"target":34962},{"buffer":0,"byteLength":2880,"byteOffset":59520,"target":34962},{"buffer":0,"byteLength":1920,"byteOffset":62400,"target":34962},{"buffer":0,"byteLength":720,"byteOffset":64320,"target":34962},{"buffer":0,"byteLength":720,"byteOffset":65040,"target":34962},{"buffer":0,"byteLength":480,"byteOffset":65760,"target":34962},{"buffer":0,"byteLength":120,"byteOffset":66240,"target":34963},{"buffer":0,"byteLength":720,"byteOffset":66360,"target":34962},{"buffer":0,"byteLength":720,"byteOffset":67080,"target":34962},{"buffer":0,"byteLength":480,"byteOffset":67800,"target":34962},{"buffer":0,"byteLength":11520,"byteOffset":68280,"target":34962},{"buffer":0,"byteLength":11520,"byteOffset":79800,"target":34962},{"buffer":0,"byteLength":7680,"byteOffset":91320,"target":34962},{"buffer":0,"byteLength":2592,"byteOffset":99000,"target":34962},{"buffer":0,"byteLength":2592,"byteOffset":101592,"target":34962},{"buffer":0,"byteLength":1728,"byteOffset":104184,"target":34962},{"buffer":0,"byteLength":648,"byteOffset":105912,"target":34963},{"buffer":0,"byteLength":2592,"byteOffset":106560,"target":34962},{"buffer":0,"byteLength":2592,"byteOffset":109152,"target":34962},{"buffer":0,"byteLength":1728,"byteOffset":111744,"target":34962},{"buffer":0,"byteLength":2592,"byteOffset":113472,"target":34962},{"buffer":0,"byteLength":2592,"byteOffset":116064,"target":34962},{"buffer":0,"byteLength":1728,"byteOffset":118656,"target":34962},{"buffer":0,"byteLength":2592,"byteOffset":120384,"target":34962},{"buffer":0,"byteLength":2592,"byteOffset":122976,"target":34962},{"buffer":0,"byteLength":1728,"byteOffset":125568,"target":34962},{"buffer":0,"byteLength":1152,"byteOffset":127296,"target":34962},{"buffer":0,"byteLength":1152,"byteOffset":128448,"target":34962},{"buffer":0,"byteLength":768,"byteOffset":129600,"target":34962},{"buffer":0,"byteLength":360,"byteOffset":130368,"target":34963},{"buffer":0,"byteLength":1152,"byteOffset":130728,"target":34962},{"buffer":0,"byteLength":1152,"byteOffset":131880,"target":34962},{"buffer":0,"byteLength":768,"byteOffset":133032,"target":34962},{"buffer":0,"byteLength":1152,"byteOffset":133800,"target":34962},{"buffer":0,"byteLength":1152,"byteOffset":134952,"target":34962},{"buffer":0,"byteLength":768,"byteOffset":136104,"target":34962},{"buffer":0,"byteLength":1152,"byteOffset":136872,"target":34962},{"buffer":0,"byteLength":1152,"byteOffset":138024,"target":34962},{"buffer":0,"byteLength":768,"byteOffset":139176,"target":34962},{"buffer":0,"byteLength":2880,"byteOffset":139944,"target":34962},{"buffer":0,"byteLength":2880,"byteOffset":142824,"target":34962},{"buffer":0,"byteLength":1920,"byteOffset":145704,"target":34962},{"buffer":0,"byteLength":480,"byteOffset":147624,"target":34963},{"buffer":0,"byteLength":720,"byteOffset":148104,"target":34962},{"buffer":0,"byteLength":720,"byteOffset":148824,"target":34962},{"buffer":0,"byteLength":480,"byteOffset":149544,"target":34962},{"buffer":0,"byteLength":1152,"byteOffset":150024,"target":34962},{"buffer":0,"byteLength":1152,"byteOffset":151176,"target":34962},{"buffer":0,"byteLength":768,"byteOffset":152328,"target":34962},{"buffer":0,"byteLength":100,"byteOffset":153096},{"buffer":0,"byteLength":300,"byteOffset":153196},{"buffer":0,"byteLength":400,"byteOffset":153496},{"buffer":0,"byteLength":400,"byteOffset":153896},{"buffer":0,"byteLength":400,"byteOffset":154296},{"buffer":0,"byteLength":400,"byteOffset":154696}],"buffers":[{"byteLength":155096,"uri":"capybara.bin"}]}