{"asset":{"generator":"Khronos glTF Blender I/O v5.2.40","version":"2.0"},"scene":0,"scenes":[{"name":"Scene","nodes":[10]}],"nodes":[{"mesh":0,"name":"beak","rotation":[0,0,-0.7071068286895752,0.7071068286895752],"translation":[0.3700000047683716,1.840000033378601,0]},{"mesh":1,"name":"body","translation":[0,0.949999988079071,0]},{"mesh":2,"name":"eye_1","translation":[0.28999999165534973,1.8899999856948853,-0.08500000089406967]},{"mesh":3,"name":"eye_-1","translation":[0.28999999165534973,1.8899999856948853,0.08500000089406967]},{"mesh":4,"name":"foot_1","translation":[0.07000000029802322,0.03500000014901161,-0.07999999821186066]},{"mesh":5,"name":"foot_-1","translation":[-0.07000000029802322,0.03500000014901161,-0.07999999821186066]},{"mesh":6,"name":"head","translation":[0.20000000298023224,1.850000023841858,0]},{"mesh":7,"name":"leg_1","translation":[0.07000000029802322,0.4399999976158142,0]},{"mesh":8,"name":"leg_-1","translation":[-0.07000000029802322,0.4399999976158142,0]},{"mesh":9,"name":"neck","translation":[0.11999999731779099,1.4299999475479126,0]},{"children":[0,1,2,3,4,5,6,7,8,9],"name":"animal_root"}],"animations":[{"name":"idle","samplers":[{"input":35,"interpolation":"LINEAR","output":36},{"input":35,"interpolation":"LINEAR","output":37},{"input":35,"interpolation":"LINEAR","output":40}],"channels":[{"sampler":0,"target":{"node":10,"path":"translation"}},{"sampler":1,"target":{"node":6,"path":"rotation"}},{"sampler":2,"target":{"node":9,"path":"rotation"}}]},{"name":"walk","samplers":[{"input":35,"interpolation":"LINEAR","output":38},{"input":35,"interpolation":"LINEAR","output":39}],"channels":[{"sampler":0,"target":{"node":7,"path":"rotation"}},{"sampler":1,"target":{"node":8,"path":"rotation"}}]}],"materials":[{"doubleSided":true,"name":"zoo_black","pbrMetallicRoughness":{"baseColorFactor":[0.14901961386203766,0.1725490242242813,0.1921568661928177,1],"metallicFactor":0,"roughnessFactor":0.8199999928474426}},{"doubleSided":true,"name":"zoo_pink","pbrMetallicRoughness":{"baseColorFactor":[0.9137254953384399,0.5215686559677124,0.6078431606292725,1],"metallicFactor":0,"roughnessFactor":0.8199999928474426}}],"meshes":[{"name":"Cone.001","primitives":[{"attributes":{"POSITION":0,"NORMAL":1,"TEXCOORD_0":2},"indices":3,"material":0}]},{"name":"Icosphere.010","primitives":[{"attributes":{"POSITION":4,"NORMAL":5,"TEXCOORD_0":6},"indices":7,"material":1}]},{"name":"Icosphere.013","primitives":[{"attributes":{"POSITION":8,"NORMAL":9,"TEXCOORD_0":10},"indices":11,"material":0}]},{"name":"Icosphere.012","primitives":[{"attributes":{"POSITION":12,"NORMAL":13,"TEXCOORD_0":14},"indices":11,"material":0}]},{"name":"Cube.058","primitives":[{"attributes":{"POSITION":15,"NORMAL":16,"TEXCOORD_0":17},"indices":18,"material":1}]},{"name":"Cube.057","primitives":[{"attributes":{"POSITION":19,"NORMAL":20,"TEXCOORD_0":21},"indices":18,"material":1}]},{"name":"Icosphere.011","primitives":[{"attributes":{"POSITION":22,"NORMAL":23,"TEXCOORD_0":24},"indices":25,"material":1}]},{"name":"Cylinder.022","primitives":[{"attributes":{"POSITION":26,"NORMAL":27,"TEXCOORD_0":28},"indices":3,"material":1}]},{"name":"Cylinder.021","primitives":[{"attributes":{"POSITION":29,"NORMAL":30,"TEXCOORD_0":31},"indices":3,"material":1}]},{"name":"Cylinder.020","primitives":[{"attributes":{"POSITION":32,"NORMAL":33,"TEXCOORD_0":34},"indices":3,"material":1}]}],"accessors":[{"bufferView":0,"componentType":5126,"count":96,"max":[0.07500000298023224,0.125,0.07500000298023224],"min":[-0.07500000298023224,-0.125,-0.07500000298023224],"type":"VEC3"},{"bufferView":1,"componentType":5126,"count":96,"type":"VEC3"},{"bufferView":2,"componentType":5126,"count":96,"type":"VEC2"},{"bufferView":3,"componentType":5123,"count":180,"type":"SCALAR"},{"bufferView":4,"componentType":5126,"count":960,"max":[0.2800000011920929,0.3799999952316284,0.19999998807907104],"min":[-0.2799999713897705,-0.3799999952316284,-0.19999998807907104],"type":"VEC3"},{"bufferView":5,"componentType":5126,"count":960,"type":"VEC3"},{"bufferView":6,"componentType":5126,"count":960,"type":"VEC2"},{"bufferView":7,"componentType":5123,"count":960,"type":"SCALAR"},{"bufferView":8,"componentType":5126,"count":60,"max":[0.01967734843492508,0.02199999988079071,0.011908960528671741],"min":[-0.01967734843492508,-0.02199999988079071,-0.011908960528671741],"type":"VEC3"},{"bufferView":9,"componentType":5126,"count":60,"type":"VEC3"},{"bufferView":10,"componentType":5126,"count":60,"type":"VEC2"},{"bufferView":11,"componentType":5123,"count":60,"type":"SCALAR"},{"bufferView":12,"componentType":5126,"count":60,"max":[0.01967734843492508,0.02199999988079071,0.011908960528671741],"min":[-0.01967734843492508,-0.02199999988079071,-0.011908960528671741],"type":"VEC3"},{"bufferView":13,"componentType":5126,"count":60,"type":"VEC3"},{"bufferView":14,"componentType":5126,"count":60,"type":"VEC2"},{"bufferView":15,"componentType":5126,"count":216,"max":[0.06499999761581421,0.02250000089406967,0.12999999523162842],"min":[-0.06499999761581421,-0.02250000089406967,-0.12999999523162842],"type":"VEC3"},{"bufferView":16,"componentType":5126,"count":216,"type":"VEC3"},{"bufferView":17,"componentType":5126,"count":216,"type":"VEC2"},{"bufferView":18,"componentType":5123,"count":324,"type":"SCALAR"},{"bufferView":19,"componentType":5126,"count":216,"max":[0.06499999761581421,0.02250000089406967,0.12999999523162842],"min":[-0.06499999761581421,-0.02250000089406967,-0.12999999523162842],"type":"VEC3"},{"bufferView":20,"componentType":5126,"count":216,"type":"VEC3"},{"bufferView":21,"componentType":5126,"count":216,"type":"VEC2"},{"bufferView":22,"componentType":5126,"count":960,"max":[0.14000000059604645,0.14000000059604645,0.11999998986721039],"min":[-0.13999998569488525,-0.14000000059604645,-0.11999998986721039],"type":"VEC3"},{"bufferView":23,"componentType":5126,"count":960,"type":"VEC3"},{"bufferView":24,"componentType":5126,"count":960,"type":"VEC2"},{"bufferView":25,"componentType":5123,"count":960,"type":"SCALAR"},{"bufferView":26,"componentType":5126,"count":96,"max":[0.03500000014901161,0.4099999964237213,0.03500000014901161],"min":[-0.03500000014901161,-0.4099999964237213,-0.03500000014901161],"type":"VEC3"},{"bufferView":27,"componentType":5126,"count":96,"type":"VEC3"},{"bufferView":28,"componentType":5126,"count":96,"type":"VEC2"},{"bufferView":29,"componentType":5126,"count":96,"max":[0.03500000014901161,0.4099999964237213,0.03500000014901161],"min":[-0.03500000014901161,-0.4099999964237213,-0.03500000014901161],"type":"VEC3"},{"bufferView":30,"componentType":5126,"count":96,"type":"VEC3"},{"bufferView":31,"componentType":5126,"count":96,"type":"VEC2"},{"bufferView":32,"componentType":5126,"count":96,"max":[0.054999999701976776,0.3499999940395355,0.054999999701976776],"min":[-0.054999999701976776,-0.3499999940395355,-0.054999999701976776],"type":"VEC3"},{"bufferView":33,"componentType":5126,"count":96,"type":"VEC3"},{"bufferView":34,"componentType":5126,"count":96,"type":"VEC2"},{"bufferView":35,"componentType":5126,"count":25,"max":[1.0416666666666667],"min":[0.041666666666666664],"type":"SCALAR"},{"bufferView":36,"componentType":5126,"count":25,"type":"VEC3"},{"bufferView":37,"componentType":5126,"count":25,"type":"VEC4"},{"bufferView":38,"componentType":5126,"count":25,"type":"VEC4"},{"bufferView":39,"componentType":5126,"count":25,"type":"VEC4"},{"bufferView":40,"componentType":5126,"count":25,"type":"VEC4"}],"bufferViews":[{"buffer":0,"byteLength":1152,"byteOffset":0,"target":34962},{"buffer":0,"byteLength":1152,"byteOffset":1152,"target":34962},{"buffer":0,"byteLength":768,"byteOffset":2304,"target":34962},{"buffer":0,"byteLength":360,"byteOffset":3072,"target":34963},{"buffer":0,"byteLength":11520,"byteOffset":3432,"target":34962},{"buffer":0,"byteLength":11520,"byteOffset":14952,"target":34962},{"buffer":0,"byteLength":7680,"byteOffset":26472,"target":34962},{"buffer":0,"byteLength":1920,"byteOffset":34152,"target":34963},{"buffer":0,"byteLength":720,"byteOffset":36072,"target":34962},{"buffer":0,"byteLength":720,"byteOffset":36792,"target":34962},{"buffer":0,"byteLength":480,"byteOffset":37512,"target":34962},{"buffer":0,"byteLength":120,"byteOffset":37992,"target":34963},{"buffer":0,"byteLength":720,"byteOffset":38112,"target":34962},{"buffer":0,"byteLength":720,"byteOffset":38832,"target":34962},{"buffer":0,"byteLength":480,"byteOffset":39552,"target":34962},{"buffer":0,"byteLength":2592,"byteOffset":40032,"target":34962},{"buffer":0,"byteLength":2592,"byteOffset":42624,"target":34962},{"buffer":0,"byteLength":1728,"byteOffset":45216,"target":34962},{"buffer":0,"byteLength":648,"byteOffset":46944,"target":34963},{"buffer":0,"byteLength":2592,"byteOffset":47592,"target":34962},{"buffer":0,"byteLength":2592,"byteOffset":50184,"target":34962},{"buffer":0,"byteLength":1728,"byteOffset":52776,"target":34962},{"buffer":0,"byteLength":11520,"byteOffset":54504,"target":34962},{"buffer":0,"byteLength":11520,"byteOffset":66024,"target":34962},{"buffer":0,"byteLength":7680,"byteOffset":77544,"target":34962},{"buffer":0,"byteLength":1920,"byteOffset":85224,"target":34963},{"buffer":0,"byteLength":1152,"byteOffset":87144,"target":34962},{"buffer":0,"byteLength":1152,"byteOffset":88296,"target":34962},{"buffer":0,"byteLength":768,"byteOffset":89448,"target":34962},{"buffer":0,"byteLength":1152,"byteOffset":90216,"target":34962},{"buffer":0,"byteLength":1152,"byteOffset":91368,"target":34962},{"buffer":0,"byteLength":768,"byteOffset":92520,"target":34962},{"buffer":0,"byteLength":1152,"byteOffset":93288,"target":34962},{"buffer":0,"byteLength":1152,"byteOffset":94440,"target":34962},{"buffer":0,"byteLength":768,"byteOffset":95592,"target":34962},{"buffer":0,"byteLength":100,"byteOffset":96360},{"buffer":0,"byteLength":300,"byteOffset":96460},{"buffer":0,"byteLength":400,"byteOffset":96760},{"buffer":0,"byteLength":400,"byteOffset":97160},{"buffer":0,"byteLength":400,"byteOffset":97560},{"buffer":0,"byteLength":400,"byteOffset":97960}],"buffers":[{"byteLength":98360,"uri":"flamingo.bin"}]}