{"asset":{"generator":"Khronos glTF Blender I/O v5.2.40","version":"2.0"},"scene":0,"scenes":[{"name":"Scene","nodes":[2]}],"nodes":[{"mesh":0,"name":"cup","translation":[0.11999999731779099,0.05999999865889549,-0.05999999865889549]},{"mesh":1,"name":"paper","translation":[-0.10000000149011612,0.019999999552965164,0]},{"children":[0,1],"name":"litter_root"}],"materials":[{"doubleSided":true,"name":"zoo_food","pbrMetallicRoughness":{"baseColorFactor":[0.9058823585510254,0.7254902124404907,0.34117648005485535,1],"metallicFactor":0,"roughnessFactor":0.8199999928474426}},{"doubleSided":true,"name":"zoo_crate","pbrMetallicRoughness":{"baseColorFactor":[0.7176470756530762,0.5137255191802979,0.30588236451148987,1],"metallicFactor":0,"roughnessFactor":0.8199999928474426}}],"meshes":[{"name":"Cylinder.014","primitives":[{"attributes":{"POSITION":0,"NORMAL":1,"TEXCOORD_0":2},"indices":3,"material":0}]},{"name":"Cube.052","primitives":[{"attributes":{"POSITION":4,"NORMAL":5,"TEXCOORD_0":6},"indices":7,"material":1}]}],"accessors":[{"bufferView":0,"componentType":5126,"count":72,"max":[0.054999999701976776,0.054999999701976776,0.054999999701976776],"min":[-0.054999999701976776,-0.054999999701976776,-0.054999999701976776],"type":"VEC3"},{"bufferView":1,"componentType":5126,"count":72,"type":"VEC3"},{"bufferView":2,"componentType":5126,"count":72,"type":"VEC2"},{"bufferView":3,"componentType":5123,"count":132,"type":"SCALAR"},{"bufferView":4,"componentType":5126,"count":216,"max":[0.12999999523162842,0.017500000074505806,0.07999999821186066],"min":[-0.12999999523162842,-0.017500000074505806,-0.07999999821186066],"type":"VEC3"},{"bufferView":5,"componentType":5126,"count":216,"type":"VEC3"},{"bufferView":6,"componentType":5126,"count":216,"type":"VEC2"},{"bufferView":7,"componentType":5123,"count":324,"type":"SCALAR"}],"bufferViews":[{"buffer":0,"byteLength":864,"byteOffset":0,"target":34962},{"buffer":0,"byteLength":864,"byteOffset":864,"target":34962},{"buffer":0,"byteLength":576,"byteOffset":1728,"target":34962},{"buffer":0,"byteLength":264,"byteOffset":2304,"target":34963},{"buffer":0,"byteLength":2592,"byteOffset":2568,"target":34962},{"buffer":0,"byteLength":2592,"byteOffset":5160,"target":34962},{"buffer":0,"byteLength":1728,"byteOffset":7752,"target":34962},{"buffer":0,"byteLength":648,"byteOffset":9480,"target":34963}],"buffers":[{"byteLength":10128,"uri":"litter.bin"}]}