{"asset":{"generator":"Khronos glTF Blender I/O v5.2.40","version":"2.0"},"scene":0,"scenes":[{"name":"Scene","nodes":[16]}],"nodes":[{"mesh":0,"name":"arm_left","rotation":[0,0,0.059964004904031754,0.998200535774231],"translation":[-0.25,1.149999976158142,0]},{"mesh":1,"name":"arm_right","rotation":[0,0,-0.059964004904031754,0.998200535774231],"translation":[0.25,1.149999976158142,0]},{"mesh":2,"name":"cap","translation":[0,1.7599999904632568,0]},{"mesh":3,"name":"eye_1","translation":[0.06499999761581421,1.6299999952316284,-0.14499999582767487]},{"mesh":4,"name":"eye_-1","translation":[-0.06499999761581421,1.6299999952316284,-0.14499999582767487]},{"mesh":5,"name":"hand_1","translation":[0.27000001072883606,0.9100000262260437,0]},{"mesh":6,"name":"hand_-1","translation":[-0.27000001072883606,0.9100000262260437,0]},{"mesh":7,"name":"head","translation":[0,1.5800000429153442,0]},{"mesh":8,"name":"leg_left","translation":[-0.10499999672174454,0.5199999809265137,0]},{"mesh":9,"name":"leg_right","translation":[0.10499999672174454,0.5199999809265137,0]},{"mesh":10,"name":"nose","translation":[0,1.5700000524520874,-0.1550000011920929]},{"mesh":11,"name":"shoe_1","translation":[0.10499999672174454,0.17000000178813934,-0.054999999701976776]},{"mesh":12,"name":"shoe_-1","translation":[-0.10499999672174454,0.17000000178813934,-0.054999999701976776]},{"mesh":13,"name":"toolbox","translation":[0.30000001192092896,0.7799999713897705,0]},{"mesh":14,"name":"toolbox_handle","translation":[0.30000001192092896,0.9300000071525574,0]},{"mesh":15,"name":"torso","translation":[0,1.1200000047683716,0]},{"children":[0,1,2,3,4,5,6,7,8,9,10,11,12,13,14,15],"name":"character_root"}],"animations":[{"name":"idle","samplers":[{"input":52,"interpolation":"LINEAR","output":53},{"input":52,"interpolation":"LINEAR","output":56}],"channels":[{"sampler":0,"target":{"node":16,"path":"translation"}},{"sampler":1,"target":{"node":7,"path":"rotation"}}]},{"name":"walk","samplers":[{"input":52,"interpolation":"LINEAR","output":54},{"input":52,"interpolation":"LINEAR","output":55},{"input":52,"interpolation":"LINEAR","output":57},{"input":52,"interpolation":"LINEAR","output":58}],"channels":[{"sampler":0,"target":{"node":0,"path":"rotation"}},{"sampler":1,"target":{"node":1,"path":"rotation"}},{"sampler":2,"target":{"node":8,"path":"rotation"}},{"sampler":3,"target":{"node":9,"path":"rotation"}}]}],"materials":[{"doubleSided":true,"name":"zoo_mechanic","pbrMetallicRoughness":{"baseColorFactor":[0.32549020648002625,0.47058823704719543,0.5843137502670288,1],"metallicFactor":0,"roughnessFactor":0.8199999928474426}},{"doubleSided":true,"name":"zoo_black","pbrMetallicRoughness":{"baseColorFactor":[0.14901961386203766,0.1725490242242813,0.1921568661928177,1],"metallicFactor":0,"roughnessFactor":0.8199999928474426}},{"doubleSided":true,"name":"zoo_skin","pbrMetallicRoughness":{"baseColorFactor":[0.8823529481887817,0.7254902124404907,0.5529412031173706,1],"metallicFactor":0,"roughnessFactor":0.8199999928474426}},{"doubleSided":true,"name":"zoo_dark_wood","pbrMetallicRoughness":{"baseColorFactor":[0.1411764770746231,0.24705882370471954,0.21960784494876862,1],"metallicFactor":0,"roughnessFactor":0.8199999928474426}},{"doubleSided":true,"name":"zoo_roof","pbrMetallicRoughness":{"baseColorFactor":[0.615686297416687,0.2862745225429535,0.21568627655506134,1],"metallicFactor":0,"roughnessFactor":0.8199999928474426}}],"meshes":[{"name":"Cylinder.055","primitives":[{"attributes":{"POSITION":0,"NORMAL":1,"TEXCOORD_0":2},"indices":3,"material":0}]},{"name":"Cylinder.057","primitives":[{"attributes":{"POSITION":4,"NORMAL":5,"TEXCOORD_0":6},"indices":3,"material":0}]},{"name":"Cube.098","primitives":[{"attributes":{"POSITION":7,"NORMAL":8,"TEXCOORD_0":9},"indices":10,"material":0}]},{"name":"Icosphere.079","primitives":[{"attributes":{"POSITION":11,"NORMAL":12,"TEXCOORD_0":13},"indices":14,"material":1}]},{"name":"Icosphere.078","primitives":[{"attributes":{"POSITION":15,"NORMAL":16,"TEXCOORD_0":17},"indices":14,"material":1}]},{"name":"Icosphere.081","primitives":[{"attributes":{"POSITION":18,"NORMAL":19,"TEXCOORD_0":20},"indices":14,"material":2}]},{"name":"Icosphere.080","primitives":[{"attributes":{"POSITION":21,"NORMAL":22,"TEXCOORD_0":23},"indices":14,"material":2}]},{"name":"Icosphere.076","primitives":[{"attributes":{"POSITION":24,"NORMAL":25,"TEXCOORD_0":26},"indices":27,"material":2}]},{"name":"Cylinder.056","primitives":[{"attributes":{"POSITION":28,"NORMAL":29,"TEXCOORD_0":30},"indices":3,"material":3}]},{"name":"Cylinder.058","primitives":[{"attributes":{"POSITION":31,"NORMAL":32,"TEXCOORD_0":33},"indices":3,"material":3}]},{"name":"Icosphere.077","primitives":[{"attributes":{"POSITION":34,"NORMAL":35,"TEXCOORD_0":36},"indices":14,"material":2}]},{"name":"Cube.097","primitives":[{"attributes":{"POSITION":37,"NORMAL":38,"TEXCOORD_0":39},"indices":10,"material":1}]},{"name":"Cube.096","primitives":[{"attributes":{"POSITION":40,"NORMAL":41,"TEXCOORD_0":42},"indices":10,"material":1}]},{"name":"Cube.099","primitives":[{"attributes":{"POSITION":43,"NORMAL":44,"TEXCOORD_0":45},"indices":10,"material":4}]},{"name":"Cube.100","primitives":[{"attributes":{"POSITION":46,"NORMAL":47,"TEXCOORD_0":48},"indices":10,"material":3}]},{"name":"Cube.095","primitives":[{"attributes":{"POSITION":49,"NORMAL":50,"TEXCOORD_0":51},"indices":10,"material":0}]}],"accessors":[{"bufferView":0,"componentType":5126,"count":96,"max":[0.06499999761581421,0.23999999463558197,0.06499999761581421],"min":[-0.06499999761581421,-0.23999999463558197,-0.06499999761581421],"type":"VEC3"},{"bufferView":1,"componentType":5126,"count":96,"type":"VEC3"},{"bufferView":2,"componentType":5126,"count":96,"type":"VEC2"},{"bufferView":3,"componentType":5123,"count":180,"type":"SCALAR"},{"bufferView":4,"componentType":5126,"count":96,"max":[0.06499999761581421,0.23999999463558197,0.06499999761581421],"min":[-0.06499999761581421,-0.23999999463558197,-0.06499999761581421],"type":"VEC3"},{"bufferView":5,"componentType":5126,"count":96,"type":"VEC3"},{"bufferView":6,"componentType":5126,"count":96,"type":"VEC2"},{"bufferView":7,"componentType":5126,"count":216,"max":[0.17000000178813934,0.03999999910593033,0.14000000059604645],"min":[-0.17000000178813934,-0.03999999910593033,-0.14000000059604645],"type":"VEC3"},{"bufferView":8,"componentType":5126,"count":216,"type":"VEC3"},{"bufferView":9,"componentType":5126,"count":216,"type":"VEC2"},{"bufferView":10,"componentType":5123,"count":324,"type":"SCALAR"},{"bufferView":11,"componentType":5126,"count":60,"max":[0.022360624745488167,0.02500000037252903,0.015311519615352154],"min":[-0.022360624745488167,-0.02500000037252903,-0.015311519615352154],"type":"VEC3"},{"bufferView":12,"componentType":5126,"count":60,"type":"VEC3"},{"bufferView":13,"componentType":5126,"count":60,"type":"VEC2"},{"bufferView":14,"componentType":5123,"count":60,"type":"SCALAR"},{"bufferView":15,"componentType":5126,"count":60,"max":[0.022360624745488167,0.02500000037252903,0.015311519615352154],"min":[-0.022360624745488167,-0.02500000037252903,-0.015311519615352154],"type":"VEC3"},{"bufferView":16,"componentType":5126,"count":60,"type":"VEC3"},{"bufferView":17,"componentType":5126,"count":60,"type":"VEC2"},{"bufferView":18,"componentType":5126,"count":60,"max":[0.06708187609910965,0.07500000298023224,0.06379800289869308],"min":[-0.06708187609910965,-0.07500000298023224,-0.06379800289869308],"type":"VEC3"},{"bufferView":19,"componentType":5126,"count":60,"type":"VEC3"},{"bufferView":20,"componentType":5126,"count":60,"type":"VEC2"},{"bufferView":21,"componentType":5126,"count":60,"max":[0.06708187609910965,0.07500000298023224,0.06379800289869308],"min":[-0.06708187609910965,-0.07500000298023224,-0.06379800289869308],"type":"VEC3"},{"bufferView":22,"componentType":5126,"count":60,"type":"VEC3"},{"bufferView":23,"componentType":5126,"count":60,"type":"VEC2"},{"bufferView":24,"componentType":5126,"count":960,"max":[0.17000000178813934,0.18000000715255737,0.15999998152256012],"min":[-0.16999998688697815,-0.18000000715255737,-0.15999998152256012],"type":"VEC3"},{"bufferView":25,"componentType":5126,"count":960,"type":"VEC3"},{"bufferView":26,"componentType":5126,"count":960,"type":"VEC2"},{"bufferView":27,"componentType":5123,"count":960,"type":"SCALAR"},{"bufferView":28,"componentType":5126,"count":96,"max":[0.07500000298023224,0.3100000023841858,0.07500000298023224],"min":[-0.07500000298023224,-0.3100000023841858,-0.07500000298023224],"type":"VEC3"},{"bufferView":29,"componentType":5126,"count":96,"type":"VEC3"},{"bufferView":30,"componentType":5126,"count":96,"type":"VEC2"},{"bufferView":31,"componentType":5126,"count":96,"max":[0.07500000298023224,0.3100000023841858,0.07500000298023224],"min":[-0.07500000298023224,-0.3100000023841858,-0.07500000298023224],"type":"VEC3"},{"bufferView":32,"componentType":5126,"count":96,"type":"VEC3"},{"bufferView":33,"componentType":5126,"count":96,"type":"VEC2"},{"bufferView":34,"componentType":5126,"count":60,"max":[0.04024912416934967,0.054999999701976776,0.03402559831738472],"min":[-0.04024912416934967,-0.054999999701976776,-0.03402559831738472],"type":"VEC3"},{"bufferView":35,"componentType":5126,"count":60,"type":"VEC3"},{"bufferView":36,"componentType":5126,"count":60,"type":"VEC2"},{"bufferView":37,"componentType":5126,"count":216,"max":[0.07999999821186066,0.05000000074505806,0.13500000536441803],"min":[-0.07999999821186066,-0.05000000074505806,-0.13500000536441803],"type":"VEC3"},{"bufferView":38,"componentType":5126,"count":216,"type":"VEC3"},{"bufferView":39,"componentType":5126,"count":216,"type":"VEC2"},{"bufferView":40,"componentType":5126,"count":216,"max":[0.07999999821186066,0.05000000074505806,0.13500000536441803],"min":[-0.07999999821186066,-0.05000000074505806,-0.13500000536441803],"type":"VEC3"},{"bufferView":41,"componentType":5126,"count":216,"type":"VEC3"},{"bufferView":42,"componentType":5126,"count":216,"type":"VEC2"},{"bufferView":43,"componentType":5126,"count":216,"max":[0.1599999964237213,0.10999999940395355,0.09000000357627869],"min":[-0.1599999964237213,-0.10999999940395355,-0.09000000357627869],"type":"VEC3"},{"bufferView":44,"componentType":5126,"count":216,"type":"VEC3"},{"bufferView":45,"componentType":5126,"count":216,"type":"VEC2"},{"bufferView":46,"componentType":5126,"count":216,"max":[0.10000000149011612,0.03999999910593033,0.02500000037252903],"min":[-0.10000000149011612,-0.03999999910593033,-0.02500000037252903],"type":"VEC3"},{"bufferView":47,"componentType":5126,"count":216,"type":"VEC3"},{"bufferView":48,"componentType":5126,"count":216,"type":"VEC2"},{"bufferView":49,"componentType":5126,"count":216,"max":[0.18000000715255737,0.25999999046325684,0.10999999940395355],"min":[-0.18000000715255737,-0.25999999046325684,-0.10999999940395355],"type":"VEC3"},{"bufferView":50,"componentType":5126,"count":216,"type":"VEC3"},{"bufferView":51,"componentType":5126,"count":216,"type":"VEC2"},{"bufferView":52,"componentType":5126,"count":25,"max":[1.0416666666666667],"min":[0.041666666666666664],"type":"SCALAR"},{"bufferView":53,"componentType":5126,"count":25,"type":"VEC3"},{"bufferView":54,"componentType":5126,"count":25,"type":"VEC4"},{"bufferView":55,"componentType":5126,"count":25,"type":"VEC4"},{"bufferView":56,"componentType":5126,"count":25,"type":"VEC4"},{"bufferView":57,"componentType":5126,"count":25,"type":"VEC4"},{"bufferView":58,"componentType":5126,"count":25,"type":"VEC4"}],"bufferViews":[{"buffer":0,"byteLength":1152,"byteOffset":0,"target":34962},{"buffer":0,"byteLength":1152,"byteOffset":1152,"target":34962},{"buffer":0,"byteLength":768,"byteOffset":2304,"target":34962},{"buffer":0,"byteLength":360,"byteOffset":3072,"target":34963},{"buffer":0,"byteLength":1152,"byteOffset":3432,"target":34962},{"buffer":0,"byteLength":1152,"byteOffset":4584,"target":34962},{"buffer":0,"byteLength":768,"byteOffset":5736,"target":34962},{"buffer":0,"byteLength":2592,"byteOffset":6504,"target":34962},{"buffer":0,"byteLength":2592,"byteOffset":9096,"target":34962},{"buffer":0,"byteLength":1728,"byteOffset":11688,"target":34962},{"buffer":0,"byteLength":648,"byteOffset":13416,"target":34963},{"buffer":0,"byteLength":720,"byteOffset":14064,"target":34962},{"buffer":0,"byteLength":720,"byteOffset":14784,"target":34962},{"buffer":0,"byteLength":480,"byteOffset":15504,"target":34962},{"buffer":0,"byteLength":120,"byteOffset":15984,"target":34963},{"buffer":0,"byteLength":720,"byteOffset":16104,"target":34962},{"buffer":0,"byteLength":720,"byteOffset":16824,"target":34962},{"buffer":0,"byteLength":480,"byteOffset":17544,"target":34962},{"buffer":0,"byteLength":720,"byteOffset":18024,"target":34962},{"buffer":0,"byteLength":720,"byteOffset":18744,"target":34962},{"buffer":0,"byteLength":480,"byteOffset":19464,"target":34962},{"buffer":0,"byteLength":720,"byteOffset":19944,"target":34962},{"buffer":0,"byteLength":720,"byteOffset":20664,"target":34962},{"buffer":0,"byteLength":480,"byteOffset":21384,"target":34962},{"buffer":0,"byteLength":11520,"byteOffset":21864,"target":34962},{"buffer":0,"byteLength":11520,"byteOffset":33384,"target":34962},{"buffer":0,"byteLength":7680,"byteOffset":44904,"target":34962},{"buffer":0,"byteLength":1920,"byteOffset":52584,"target":34963},{"buffer":0,"byteLength":1152,"byteOffset":54504,"target":34962},{"buffer":0,"byteLength":1152,"byteOffset":55656,"target":34962},{"buffer":0,"byteLength":768,"byteOffset":56808,"target":34962},{"buffer":0,"byteLength":1152,"byteOffset":57576,"target":34962},{"buffer":0,"byteLength":1152,"byteOffset":58728,"target":34962},{"buffer":0,"byteLength":768,"byteOffset":59880,"target":34962},{"buffer":0,"byteLength":720,"byteOffset":60648,"target":34962},{"buffer":0,"byteLength":720,"byteOffset":61368,"target":34962},{"buffer":0,"byteLength":480,"byteOffset":62088,"target":34962},{"buffer":0,"byteLength":2592,"byteOffset":62568,"target":34962},{"buffer":0,"byteLength":2592,"byteOffset":65160,"target":34962},{"buffer":0,"byteLength":1728,"byteOffset":67752,"target":34962},{"buffer":0,"byteLength":2592,"byteOffset":69480,"target":34962},{"buffer":0,"byteLength":2592,"byteOffset":72072,"target":34962},{"buffer":0,"byteLength":1728,"byteOffset":74664,"target":34962},{"buffer":0,"byteLength":2592,"byteOffset":76392,"target":34962},{"buffer":0,"byteLength":2592,"byteOffset":78984,"target":34962},{"buffer":0,"byteLength":1728,"byteOffset":81576,"target":34962},{"buffer":0,"byteLength":2592,"byteOffset":83304,"target":34962},{"buffer":0,"byteLength":2592,"byteOffset":85896,"target":34962},{"buffer":0,"byteLength":1728,"byteOffset":88488,"target":34962},{"buffer":0,"byteLength":2592,"byteOffset":90216,"target":34962},{"buffer":0,"byteLength":2592,"byteOffset":92808,"target":34962},{"buffer":0,"byteLength":1728,"byteOffset":95400,"target":34962},{"buffer":0,"byteLength":100,"byteOffset":97128},{"buffer":0,"byteLength":300,"byteOffset":97228},{"buffer":0,"byteLength":400,"byteOffset":97528},{"buffer":0,"byteLength":400,"byteOffset":97928},{"buffer":0,"byteLength":400,"byteOffset":98328},{"buffer":0,"byteLength":400,"byteOffset":98728},{"buffer":0,"byteLength":400,"byteOffset":99128}],"buffers":[{"byteLength":99528,"uri":"mechanic.bin"}]}