{"asset":{"generator":"Khronos glTF Blender I/O v5.2.40","version":"2.0"},"scene":0,"scenes":[{"name":"Scene","nodes":[18]}],"nodes":[{"mesh":0,"name":"body","translation":[0,0.6800000071525574,0]},{"mesh":1,"name":"ear_left","translation":[0.5799999833106995,0.9100000262260437,0.3100000023841858]},{"mesh":2,"name":"ear_right","translation":[0.5799999833106995,0.9100000262260437,-0.3100000023841858]},{"mesh":3,"name":"eye_left","translation":[0.8424999713897705,0.9075000286102295,0.12999999523162842]},{"mesh":4,"name":"eye_right","translation":[0.8424999713897705,0.9075000286102295,-0.12999999523162842]},{"mesh":5,"name":"head","translation":[0.6499999761581421,0.8199999928474426,0]},{"mesh":6,"name":"hoof_0","translation":[-0.3799999952316284,0.054999999701976776,0.19499999284744263]},{"mesh":7,"name":"hoof_1","translation":[-0.3799999952316284,0.054999999701976776,-0.24500000476837158]},{"mesh":8,"name":"hoof_2","translation":[0.3799999952316284,0.054999999701976776,0.19499999284744263]},{"mesh":9,"name":"hoof_3","translation":[0.3799999952316284,0.054999999701976776,-0.24500000476837158]},{"mesh":10,"name":"leg_0","translation":[-0.3799999952316284,0.30000001192092896,0.2199999988079071]},{"mesh":11,"name":"leg_1","translation":[-0.3799999952316284,0.30000001192092896,-0.2199999988079071]},{"mesh":12,"name":"leg_2","translation":[0.3799999952316284,0.30000001192092896,0.2199999988079071]},{"mesh":13,"name":"leg_3","translation":[0.3799999952316284,0.30000001192092896,-0.2199999988079071]},{"mesh":14,"name":"tail","rotation":[0,0,-0.7071068286895752,0.7071068286895752],"translation":[-0.6650000214576721,0.7200000286102295,0]},{"mesh":15,"name":"trunk","rotation":[0,0,-0.2588190734386444,0.965925931930542],"translation":[0.9399999976158142,0.5,0]},{"mesh":16,"name":"tusk_1","rotation":[0,0,-0.6252081394195557,0.7804580926895142],"translation":[0.9200000166893005,0.6700000166893005,-0.17000000178813934]},{"mesh":17,"name":"tusk_-1","rotation":[0,0,-0.6252081394195557,0.7804580926895142],"translation":[0.9200000166893005,0.6700000166893005,0.17000000178813934]},{"children":[0,1,2,3,4,5,6,7,8,9,10,11,12,13,14,15,16,17],"name":"animal_root"}],"animations":[{"name":"idle","samplers":[{"input":60,"interpolation":"LINEAR","output":61},{"input":60,"interpolation":"LINEAR","output":62},{"input":60,"interpolation":"LINEAR","output":65},{"input":60,"interpolation":"LINEAR","output":66}],"channels":[{"sampler":0,"target":{"node":18,"path":"translation"}},{"sampler":1,"target":{"node":5,"path":"rotation"}},{"sampler":2,"target":{"node":14,"path":"rotation"}},{"sampler":3,"target":{"node":15,"path":"rotation"}}]},{"name":"walk","samplers":[{"input":60,"interpolation":"LINEAR","output":63},{"input":60,"interpolation":"LINEAR","output":64},{"input":60,"interpolation":"LINEAR","output":64},{"input":60,"interpolation":"LINEAR","output":63}],"channels":[{"sampler":0,"target":{"node":10,"path":"rotation"}},{"sampler":1,"target":{"node":11,"path":"rotation"}},{"sampler":2,"target":{"node":12,"path":"rotation"}},{"sampler":3,"target":{"node":13,"path":"rotation"}}]}],"materials":[{"doubleSided":true,"name":"zoo_elephant","pbrMetallicRoughness":{"baseColorFactor":[0.5372549295425415,0.6039215922355652,0.615686297416687,1],"metallicFactor":0,"roughnessFactor":0.8199999928474426}},{"doubleSided":true,"name":"zoo_black","pbrMetallicRoughness":{"baseColorFactor":[0.14901961386203766,0.1725490242242813,0.1921568661928177,1],"metallicFactor":0,"roughnessFactor":0.8199999928474426}},{"doubleSided":true,"name":"zoo_white","pbrMetallicRoughness":{"baseColorFactor":[0.95686274766922,0.9372549057006836,0.886274516582489,1],"metallicFactor":0,"roughnessFactor":0.8199999928474426}}],"meshes":[{"name":"Icosphere.045","primitives":[{"attributes":{"POSITION":0,"NORMAL":1,"TEXCOORD_0":2},"indices":3,"material":0}]},{"name":"Icosphere.049","primitives":[{"attributes":{"POSITION":4,"NORMAL":5,"TEXCOORD_0":6},"indices":7,"material":0}]},{"name":"Icosphere.050","primitives":[{"attributes":{"POSITION":8,"NORMAL":9,"TEXCOORD_0":10},"indices":7,"material":0}]},{"name":"Icosphere.047","primitives":[{"attributes":{"POSITION":11,"NORMAL":12,"TEXCOORD_0":13},"indices":14,"material":1}]},{"name":"Icosphere.048","primitives":[{"attributes":{"POSITION":15,"NORMAL":16,"TEXCOORD_0":17},"indices":14,"material":1}]},{"name":"Icosphere.046","primitives":[{"attributes":{"POSITION":18,"NORMAL":19,"TEXCOORD_0":20},"indices":21,"material":0}]},{"name":"Cube.072","primitives":[{"attributes":{"POSITION":22,"NORMAL":23,"TEXCOORD_0":24},"indices":25,"material":0}]},{"name":"Cube.073","primitives":[{"attributes":{"POSITION":26,"NORMAL":27,"TEXCOORD_0":28},"indices":25,"material":0}]},{"name":"Cube.074","primitives":[{"attributes":{"POSITION":29,"NORMAL":30,"TEXCOORD_0":31},"indices":25,"material":0}]},{"name":"Cube.075","primitives":[{"attributes":{"POSITION":32,"NORMAL":33,"TEXCOORD_0":34},"indices":25,"material":0}]},{"name":"Cylinder.036","primitives":[{"attributes":{"POSITION":35,"NORMAL":36,"TEXCOORD_0":37},"indices":38,"material":0}]},{"name":"Cylinder.037","primitives":[{"attributes":{"POSITION":39,"NORMAL":40,"TEXCOORD_0":41},"indices":38,"material":0}]},{"name":"Cylinder.038","primitives":[{"attributes":{"POSITION":42,"NORMAL":43,"TEXCOORD_0":44},"indices":38,"material":0}]},{"name":"Cylinder.039","primitives":[{"attributes":{"POSITION":45,"NORMAL":46,"TEXCOORD_0":47},"indices":38,"material":0}]},{"name":"Cylinder.040","primitives":[{"attributes":{"POSITION":48,"NORMAL":49,"TEXCOORD_0":50},"indices":38,"material":0}]},{"name":"Cylinder.041","primitives":[{"attributes":{"POSITION":51,"NORMAL":52,"TEXCOORD_0":53},"indices":38,"material":0}]},{"name":"Cone.003","primitives":[{"attributes":{"POSITION":54,"NORMAL":55,"TEXCOORD_0":56},"indices":38,"material":2}]},{"name":"Cone.002","primitives":[{"attributes":{"POSITION":57,"NORMAL":58,"TEXCOORD_0":59},"indices":38,"material":2}]}],"accessors":[{"bufferView":0,"componentType":5126,"count":960,"max":[0.699999988079071,0.44999998807907104,0.41999995708465576],"min":[-0.6999999284744263,-0.44999998807907104,-0.41999995708465576],"type":"VEC3"},{"bufferView":1,"componentType":5126,"count":960,"type":"VEC3"},{"bufferView":2,"componentType":5126,"count":960,"type":"VEC2"},{"bufferView":3,"componentType":5123,"count":960,"type":"SCALAR"},{"bufferView":4,"componentType":5126,"count":240,"max":[0.22825388610363007,0.25,0.044999998062849045],"min":[-0.22825388610363007,-0.25,-0.044999998062849045],"type":"VEC3"},{"bufferView":5,"componentType":5126,"count":240,"type":"VEC3"},{"bufferView":6,"componentType":5126,"count":240,"type":"VEC2"},{"bufferView":7,"componentType":5123,"count":240,"type":"SCALAR"},{"bufferView":8,"componentType":5126,"count":240,"max":[0.22825388610363007,0.25,0.044999998062849045],"min":[-0.22825388610363007,-0.25,-0.044999998062849045],"type":"VEC3"},{"bufferView":9,"componentType":5126,"count":240,"type":"VEC3"},{"bufferView":10,"componentType":5126,"count":240,"type":"VEC2"},{"bufferView":11,"componentType":5126,"count":60,"max":[0.031304873526096344,0.03500000014901161,0.021266000345349312],"min":[-0.031304873526096344,-0.03500000014901161,-0.021266000345349312],"type":"VEC3"},{"bufferView":12,"componentType":5126,"count":60,"type":"VEC3"},{"bufferView":13,"componentType":5126,"count":60,"type":"VEC2"},{"bufferView":14,"componentType":5123,"count":60,"type":"SCALAR"},{"bufferView":15,"componentType":5126,"count":60,"max":[0.031304873526096344,0.03500000014901161,0.021266000345349312],"min":[-0.031304873526096344,-0.03500000014901161,-0.021266000345349312],"type":"VEC3"},{"bufferView":16,"componentType":5126,"count":60,"type":"VEC3"},{"bufferView":17,"componentType":5126,"count":60,"type":"VEC2"},{"bufferView":18,"componentType":5126,"count":960,"max":[0.3499999940395355,0.3499999940395355,0.31999996304512024],"min":[-0.34999996423721313,-0.3499999940395355,-0.31999996304512024],"type":"VEC3"},{"bufferView":19,"componentType":5126,"count":960,"type":"VEC3"},{"bufferView":20,"componentType":5126,"count":960,"type":"VEC2"},{"bufferView":21,"componentType":5123,"count":960,"type":"SCALAR"},{"bufferView":22,"componentType":5126,"count":216,"max":[0.13199999928474426,0.05000000074505806,0.1679999977350235],"min":[-0.13199999928474426,-0.05000000074505806,-0.1679999977350235],"type":"VEC3"},{"bufferView":23,"componentType":5126,"count":216,"type":"VEC3"},{"bufferView":24,"componentType":5126,"count":216,"type":"VEC2"},{"bufferView":25,"componentType":5123,"count":324,"type":"SCALAR"},{"bufferView":26,"componentType":5126,"count":216,"max":[0.13199999928474426,0.05000000074505806,0.1679999977350235],"min":[-0.13199999928474426,-0.05000000074505806,-0.1679999977350235],"type":"VEC3"},{"bufferView":27,"componentType":5126,"count":216,"type":"VEC3"},{"bufferView":28,"componentType":5126,"count":216,"type":"VEC2"},{"bufferView":29,"componentType":5126,"count":216,"max":[0.13199999928474426,0.05000000074505806,0.1679999977350235],"min":[-0.13199999928474426,-0.05000000074505806,-0.1679999977350235],"type":"VEC3"},{"bufferView":30,"componentType":5126,"count":216,"type":"VEC3"},{"bufferView":31,"componentType":5126,"count":216,"type":"VEC2"},{"bufferView":32,"componentType":5126,"count":216,"max":[0.13199999928474426,0.05000000074505806,0.1679999977350235],"min":[-0.13199999928474426,-0.05000000074505806,-0.1679999977350235],"type":"VEC3"},{"bufferView":33,"componentType":5126,"count":216,"type":"VEC3"},{"bufferView":34,"componentType":5126,"count":216,"type":"VEC2"},{"bufferView":35,"componentType":5126,"count":96,"max":[0.11999999731779099,0.28999999165534973,0.11999999731779099],"min":[-0.11999999731779099,-0.28999999165534973,-0.11999999731779099],"type":"VEC3"},{"bufferView":36,"componentType":5126,"count":96,"type":"VEC3"},{"bufferView":37,"componentType":5126,"count":96,"type":"VEC2"},{"bufferView":38,"componentType":5123,"count":180,"type":"SCALAR"},{"bufferView":39,"componentType":5126,"count":96,"max":[0.11999999731779099,0.28999999165534973,0.11999999731779099],"min":[-0.11999999731779099,-0.28999999165534973,-0.11999999731779099],"type":"VEC3"},{"bufferView":40,"componentType":5126,"count":96,"type":"VEC3"},{"bufferView":41,"componentType":5126,"count":96,"type":"VEC2"},{"bufferView":42,"componentType":5126,"count":96,"max":[0.11999999731779099,0.28999999165534973,0.11999999731779099],"min":[-0.11999999731779099,-0.28999999165534973,-0.11999999731779099],"type":"VEC3"},{"bufferView":43,"componentType":5126,"count":96,"type":"VEC3"},{"bufferView":44,"componentType":5126,"count":96,"type":"VEC2"},{"bufferView":45,"componentType":5126,"count":96,"max":[0.11999999731779099,0.28999999165534973,0.11999999731779099],"min":[-0.11999999731779099,-0.28999999165534973,-0.11999999731779099],"type":"VEC3"},{"bufferView":46,"componentType":5126,"count":96,"type":"VEC3"},{"bufferView":47,"componentType":5126,"count":96,"type":"VEC2"},{"bufferView":48,"componentType":5126,"count":96,"max":[0.06599999964237213,0.19249999523162842,0.06599999964237213],"min":[-0.06599999964237213,-0.19249999523162842,-0.06599999964237213],"type":"VEC3"},{"bufferView":49,"componentType":5126,"count":96,"type":"VEC3"},{"bufferView":50,"componentType":5126,"count":96,"type":"VEC2"},{"bufferView":51,"componentType":5126,"count":96,"max":[0.07999999821186066,0.28999999165534973,0.07999999821186066],"min":[-0.07999999821186066,-0.28999999165534973,-0.07999999821186066],"type":"VEC3"},{"bufferView":52,"componentType":5126,"count":96,"type":"VEC3"},{"bufferView":53,"componentType":5126,"count":96,"type":"VEC2"},{"bufferView":54,"componentType":5126,"count":96,"max":[0.054999999701976776,0.1599999964237213,0.054999999701976776],"min":[-0.054999999701976776,-0.1599999964237213,-0.054999999701976776],"type":"VEC3"},{"bufferView":55,"componentType":5126,"count":96,"type":"VEC3"},{"bufferView":56,"componentType":5126,"count":96,"type":"VEC2"},{"bufferView":57,"componentType":5126,"count":96,"max":[0.054999999701976776,0.1599999964237213,0.054999999701976776],"min":[-0.054999999701976776,-0.1599999964237213,-0.054999999701976776],"type":"VEC3"},{"bufferView":58,"componentType":5126,"count":96,"type":"VEC3"},{"bufferView":59,"componentType":5126,"count":96,"type":"VEC2"},{"bufferView":60,"componentType":5126,"count":25,"max":[1.0416666666666667],"min":[0.041666666666666664],"type":"SCALAR"},{"bufferView":61,"componentType":5126,"count":25,"type":"VEC3"},{"bufferView":62,"componentType":5126,"count":25,"type":"VEC4"},{"bufferView":63,"componentType":5126,"count":25,"type":"VEC4"},{"bufferView":64,"componentType":5126,"count":25,"type":"VEC4"},{"bufferView":65,"componentType":5126,"count":25,"type":"VEC4"},{"bufferView":66,"componentType":5126,"count":25,"type":"VEC4"}],"bufferViews":[{"buffer":0,"byteLength":11520,"byteOffset":0,"target":34962},{"buffer":0,"byteLength":11520,"byteOffset":11520,"target":34962},{"buffer":0,"byteLength":7680,"byteOffset":23040,"target":34962},{"buffer":0,"byteLength":1920,"byteOffset":30720,"target":34963},{"buffer":0,"byteLength":2880,"byteOffset":32640,"target":34962},{"buffer":0,"byteLength":2880,"byteOffset":35520,"target":34962},{"buffer":0,"byteLength":1920,"byteOffset":38400,"target":34962},{"buffer":0,"byteLength":480,"byteOffset":40320,"target":34963},{"buffer":0,"byteLength":2880,"byteOffset":40800,"target":34962},{"buffer":0,"byteLength":2880,"byteOffset":43680,"target":34962},{"buffer":0,"byteLength":1920,"byteOffset":46560,"target":34962},{"buffer":0,"byteLength":720,"byteOffset":48480,"target":34962},{"buffer":0,"byteLength":720,"byteOffset":49200,"target":34962},{"buffer":0,"byteLength":480,"byteOffset":49920,"target":34962},{"buffer":0,"byteLength":120,"byteOffset":50400,"target":34963},{"buffer":0,"byteLength":720,"byteOffset":50520,"target":34962},{"buffer":0,"byteLength":720,"byteOffset":51240,"target":34962},{"buffer":0,"byteLength":480,"byteOffset":51960,"target":34962},{"buffer":0,"byteLength":11520,"byteOffset":52440,"target":34962},{"buffer":0,"byteLength":11520,"byteOffset":63960,"target":34962},{"buffer":0,"byteLength":7680,"byteOffset":75480,"target":34962},{"buffer":0,"byteLength":1920,"byteOffset":83160,"target":34963},{"buffer":0,"byteLength":2592,"byteOffset":85080,"target":34962},{"buffer":0,"byteLength":2592,"byteOffset":87672,"target":34962},{"buffer":0,"byteLength":1728,"byteOffset":90264,"target":34962},{"buffer":0,"byteLength":648,"byteOffset":91992,"target":34963},{"buffer":0,"byteLength":2592,"byteOffset":92640,"target":34962},{"buffer":0,"byteLength":2592,"byteOffset":95232,"target":34962},{"buffer":0,"byteLength":1728,"byteOffset":97824,"target":34962},{"buffer":0,"byteLength":2592,"byteOffset":99552,"target":34962},{"buffer":0,"byteLength":2592,"byteOffset":102144,"target":34962},{"buffer":0,"byteLength":1728,"byteOffset":104736,"target":34962},{"buffer":0,"byteLength":2592,"byteOffset":106464,"target":34962},{"buffer":0,"byteLength":2592,"byteOffset":109056,"target":34962},{"buffer":0,"byteLength":1728,"byteOffset":111648,"target":34962},{"buffer":0,"byteLength":1152,"byteOffset":113376,"target":34962},{"buffer":0,"byteLength":1152,"byteOffset":114528,"target":34962},{"buffer":0,"byteLength":768,"byteOffset":115680,"target":34962},{"buffer":0,"byteLength":360,"byteOffset":116448,"target":34963},{"buffer":0,"byteLength":1152,"byteOffset":116808,"target":34962},{"buffer":0,"byteLength":1152,"byteOffset":117960,"target":34962},{"buffer":0,"byteLength":768,"byteOffset":119112,"target":34962},{"buffer":0,"byteLength":1152,"byteOffset":119880,"target":34962},{"buffer":0,"byteLength":1152,"byteOffset":121032,"target":34962},{"buffer":0,"byteLength":768,"byteOffset":122184,"target":34962},{"buffer":0,"byteLength":1152,"byteOffset":122952,"target":34962},{"buffer":0,"byteLength":1152,"byteOffset":124104,"target":34962},{"buffer":0,"byteLength":768,"byteOffset":125256,"target":34962},{"buffer":0,"byteLength":1152,"byteOffset":126024,"target":34962},{"buffer":0,"byteLength":1152,"byteOffset":127176,"target":34962},{"buffer":0,"byteLength":768,"byteOffset":128328,"target":34962},{"buffer":0,"byteLength":1152,"byteOffset":129096,"target":34962},{"buffer":0,"byteLength":1152,"byteOffset":130248,"target":34962},{"buffer":0,"byteLength":768,"byteOffset":131400,"target":34962},{"buffer":0,"byteLength":1152,"byteOffset":132168,"target":34962},{"buffer":0,"byteLength":1152,"byteOffset":133320,"target":34962},{"buffer":0,"byteLength":768,"byteOffset":134472,"target":34962},{"buffer":0,"byteLength":1152,"byteOffset":135240,"target":34962},{"buffer":0,"byteLength":1152,"byteOffset":136392,"target":34962},{"buffer":0,"byteLength":768,"byteOffset":137544,"target":34962},{"buffer":0,"byteLength":100,"byteOffset":138312},{"buffer":0,"byteLength":300,"byteOffset":138412},{"buffer":0,"byteLength":400,"byteOffset":138712},{"buffer":0,"byteLength":400,"byteOffset":139112},{"buffer":0,"byteLength":400,"byteOffset":139512},{"buffer":0,"byteLength":400,"byteOffset":139912},{"buffer":0,"byteLength":400,"byteOffset":140312}],"buffers":[{"byteLength":140712,"uri":"elephant.bin"}]}