{"asset":{"generator":"Khronos glTF Blender I/O v5.2.40","version":"2.0"},"scene":0,"scenes":[{"name":"Scene","nodes":[6]}],"nodes":[{"mesh":0,"name":"cap_0.5","translation":[0.5,0.7450000047683716,0]},{"mesh":1,"name":"cap_-0.5","translation":[-0.5,0.7450000047683716,0]},{"mesh":2,"name":"post_0.5","translation":[0.5,0.36000001430511475,0]},{"mesh":3,"name":"post_-0.5","translation":[-0.5,0.36000001430511475,0]},{"mesh":4,"name":"rail_0.27","translation":[0,0.27000001072883606,0]},{"mesh":5,"name":"rail_0.51","translation":[0,0.5099999904632568,0]},{"children":[0,1,2,3,4,5],"name":"fence_segment_root"}],"materials":[{"doubleSided":true,"name":"zoo_path","pbrMetallicRoughness":{"baseColorFactor":[0.8196078538894653,0.7333333492279053,0.5529412031173706,1],"metallicFactor":0,"roughnessFactor":0.8199999928474426}},{"doubleSided":true,"name":"zoo_dark_wood","pbrMetallicRoughness":{"baseColorFactor":[0.1411764770746231,0.24705882370471954,0.21960784494876862,1],"metallicFactor":0,"roughnessFactor":0.8199999928474426}},{"doubleSided":true,"name":"zoo_wood","pbrMetallicRoughness":{"baseColorFactor":[0.21960784494876862,0.3176470696926117,0.23529411852359772,1],"metallicFactor":0,"roughnessFactor":0.8199999928474426}}],"meshes":[{"name":"Cylinder.013","primitives":[{"attributes":{"POSITION":0,"NORMAL":1,"TEXCOORD_0":2},"indices":3,"material":0}]},{"name":"Cylinder.011","primitives":[{"attributes":{"POSITION":4,"NORMAL":5,"TEXCOORD_0":6},"indices":3,"material":0}]},{"name":"Cylinder.012","primitives":[{"attributes":{"POSITION":7,"NORMAL":8,"TEXCOORD_0":9},"indices":3,"material":1}]},{"name":"Cylinder.010","primitives":[{"attributes":{"POSITION":10,"NORMAL":11,"TEXCOORD_0":12},"indices":3,"material":1}]},{"name":"Cube.039","primitives":[{"attributes":{"POSITION":13,"NORMAL":14,"TEXCOORD_0":15},"indices":16,"material":2}]},{"name":"Cube.040","primitives":[{"attributes":{"POSITION":17,"NORMAL":18,"TEXCOORD_0":19},"indices":16,"material":2}]}],"accessors":[{"bufferView":0,"componentType":5126,"count":96,"max":[0.07500000298023224,0.02500000037252903,0.07500000298023224],"min":[-0.07500000298023224,-0.02500000037252903,-0.07500000298023224],"type":"VEC3"},{"bufferView":1,"componentType":5126,"count":96,"type":"VEC3"},{"bufferView":2,"componentType":5126,"count":96,"type":"VEC2"},{"bufferView":3,"componentType":5123,"count":180,"type":"SCALAR"},{"bufferView":4,"componentType":5126,"count":96,"max":[0.07500000298023224,0.02500000037252903,0.07500000298023224],"min":[-0.07500000298023224,-0.02500000037252903,-0.07500000298023224],"type":"VEC3"},{"bufferView":5,"componentType":5126,"count":96,"type":"VEC3"},{"bufferView":6,"componentType":5126,"count":96,"type":"VEC2"},{"bufferView":7,"componentType":5126,"count":96,"max":[0.054999999701976776,0.36000001430511475,0.054999999701976776],"min":[-0.054999999701976776,-0.36000001430511475,-0.054999999701976776],"type":"VEC3"},{"bufferView":8,"componentType":5126,"count":96,"type":"VEC3"},{"bufferView":9,"componentType":5126,"count":96,"type":"VEC2"},{"bufferView":10,"componentType":5126,"count":96,"max":[0.054999999701976776,0.36000001430511475,0.054999999701976776],"min":[-0.054999999701976776,-0.36000001430511475,-0.054999999701976776],"type":"VEC3"},{"bufferView":11,"componentType":5126,"count":96,"type":"VEC3"},{"bufferView":12,"componentType":5126,"count":96,"type":"VEC2"},{"bufferView":13,"componentType":5126,"count":216,"max":[0.5,0.03500000014901161,0.03750000149011612],"min":[-0.5,-0.03500000014901161,-0.03750000149011612],"type":"VEC3"},{"bufferView":14,"componentType":5126,"count":216,"type":"VEC3"},{"bufferView":15,"componentType":5126,"count":216,"type":"VEC2"},{"bufferView":16,"componentType":5123,"count":324,"type":"SCALAR"},{"bufferView":17,"componentType":5126,"count":216,"max":[0.5,0.03500000014901161,0.03750000149011612],"min":[-0.5,-0.03500000014901161,-0.03750000149011612],"type":"VEC3"},{"bufferView":18,"componentType":5126,"count":216,"type":"VEC3"},{"bufferView":19,"componentType":5126,"count":216,"type":"VEC2"}],"bufferViews":[{"buffer":0,"byteLength":1152,"byteOffset":0,"target":34962},{"buffer":0,"byteLength":1152,"byteOffset":1152,"target":34962},{"buffer":0,"byteLength":768,"byteOffset":2304,"target":34962},{"buffer":0,"byteLength":360,"byteOffset":3072,"target":34963},{"buffer":0,"byteLength":1152,"byteOffset":3432,"target":34962},{"buffer":0,"byteLength":1152,"byteOffset":4584,"target":34962},{"buffer":0,"byteLength":768,"byteOffset":5736,"target":34962},{"buffer":0,"byteLength":1152,"byteOffset":6504,"target":34962},{"buffer":0,"byteLength":1152,"byteOffset":7656,"target":34962},{"buffer":0,"byteLength":768,"byteOffset":8808,"target":34962},{"buffer":0,"byteLength":1152,"byteOffset":9576,"target":34962},{"buffer":0,"byteLength":1152,"byteOffset":10728,"target":34962},{"buffer":0,"byteLength":768,"byteOffset":11880,"target":34962},{"buffer":0,"byteLength":2592,"byteOffset":12648,"target":34962},{"buffer":0,"byteLength":2592,"byteOffset":15240,"target":34962},{"buffer":0,"byteLength":1728,"byteOffset":17832,"target":34962},{"buffer":0,"byteLength":648,"byteOffset":19560,"target":34963},{"buffer":0,"byteLength":2592,"byteOffset":20208,"target":34962},{"buffer":0,"byteLength":2592,"byteOffset":22800,"target":34962},{"buffer":0,"byteLength":1728,"byteOffset":25392,"target":34962}],"buffers":[{"byteLength":27120,"uri":"fence_segment.bin"}]}