{"asset":{"generator":"Khronos glTF Blender I/O v5.2.40","version":"2.0"},"scene":0,"scenes":[{"name":"Scene","nodes":[33]}],"nodes":[{"mesh":0,"name":"body","translation":[0,0.6800000071525574,0]},{"mesh":1,"name":"ear_1","translation":[0.47999998927116394,1.9140000343322754,-0.1080000028014183]},{"mesh":2,"name":"ear_-1","translation":[0.47999998927116394,1.9140000343322754,0.1080000028014183]},{"mesh":3,"name":"eye_left","translation":[0.5789999961853027,1.7999999523162842,0.12999999523162842]},{"mesh":4,"name":"eye_right","translation":[0.5789999961853027,1.7999999523162842,-0.12999999523162842]},{"mesh":5,"name":"head","translation":[0.47999998927116394,1.75,0]},{"mesh":6,"name":"hoof_0","translation":[-0.3799999952316284,0.054999999701976776,0.19499999284744263]},{"mesh":7,"name":"hoof_1","translation":[-0.3799999952316284,0.054999999701976776,-0.24500000476837158]},{"mesh":8,"name":"hoof_2","translation":[0.3799999952316284,0.054999999701976776,0.19499999284744263]},{"mesh":9,"name":"hoof_3","translation":[0.3799999952316284,0.054999999701976776,-0.24500000476837158]},{"mesh":10,"name":"leg_0","translation":[-0.3799999952316284,0.30000001192092896,0.2199999988079071]},{"mesh":11,"name":"leg_1","translation":[-0.3799999952316284,0.30000001192092896,-0.2199999988079071]},{"mesh":12,"name":"leg_2","translation":[0.3799999952316284,0.30000001192092896,0.2199999988079071]},{"mesh":13,"name":"leg_3","translation":[0.3799999952316284,0.30000001192092896,-0.2199999988079071]},{"mesh":14,"name":"mane_0","translation":[0.3100000023841858,1,0.10499999672174454]},{"mesh":15,"name":"mane_1","translation":[0.3100000023841858,1.2000000476837158,0.10499999672174454]},{"mesh":16,"name":"mane_2","translation":[0.3100000023841858,1.399999976158142,0.10499999672174454]},{"mesh":17,"name":"mane_3","translation":[0.3100000023841858,1.600000023841858,0.10499999672174454]},{"mesh":18,"name":"muzzle","translation":[0.6276000142097473,1.715000033378601,0]},{"mesh":19,"name":"neck","translation":[0.41999998688697815,1.2300000190734863,0]},{"mesh":20,"name":"nose","translation":[0.7049999833106995,1.7300000190734863,0]},{"mesh":21,"name":"ossicone_1","translation":[0.47999998927116394,2,-0.07999999821186066]},{"mesh":22,"name":"ossicone_-1","translation":[0.47999998927116394,2,0.07999999821186066]},{"mesh":23,"name":"ossicone_tip_1","translation":[0.47999998927116394,2.0899999141693115,-0.07999999821186066]},{"mesh":24,"name":"ossicone_tip_-1","translation":[0.47999998927116394,2.0899999141693115,0.07999999821186066]},{"mesh":25,"name":"spot_0","translation":[-0.2800000011920929,0.7300000190734863,0.20000000298023224]},{"mesh":26,"name":"spot_1","translation":[-0.10000000149011612,0.8299999833106995,-0.1899999976158142]},{"mesh":27,"name":"spot_2","translation":[0.11999999731779099,0.6299999952316284,0.20000000298023224]},{"mesh":28,"name":"spot_3","translation":[0.2800000011920929,0.8199999928474426,-0.18000000715255737]},{"mesh":29,"name":"spot_4","translation":[0.4099999964237213,1.0800000429153442,0.10000000149011612]},{"mesh":30,"name":"spot_5","translation":[0.41999998688697815,1.350000023841858,-0.10000000149011612]},{"mesh":31,"name":"spot_6","translation":[0.4300000071525574,1.5800000429153442,0.07999999821186066]},{"mesh":32,"name":"tail","rotation":[0,0,-0.7071068286895752,0.7071068286895752],"translation":[-0.49399998784065247,0.7200000286102295,0]},{"children":[0,1,2,3,4,5,6,7,8,9,10,11,12,13,14,15,16,17,18,19,20,21,22,23,24,25,26,27,28,29,30,31,32],"name":"animal_root"}],"animations":[{"name":"idle","samplers":[{"input":107,"interpolation":"LINEAR","output":108},{"input":107,"interpolation":"LINEAR","output":109},{"input":107,"interpolation":"LINEAR","output":112},{"input":107,"interpolation":"LINEAR","output":113}],"channels":[{"sampler":0,"target":{"node":33,"path":"translation"}},{"sampler":1,"target":{"node":5,"path":"rotation"}},{"sampler":2,"target":{"node":19,"path":"rotation"}},{"sampler":3,"target":{"node":32,"path":"rotation"}}]},{"name":"walk","samplers":[{"input":107,"interpolation":"LINEAR","output":110},{"input":107,"interpolation":"LINEAR","output":111},{"input":107,"interpolation":"LINEAR","output":111},{"input":107,"interpolation":"LINEAR","output":110}],"channels":[{"sampler":0,"target":{"node":10,"path":"rotation"}},{"sampler":1,"target":{"node":11,"path":"rotation"}},{"sampler":2,"target":{"node":12,"path":"rotation"}},{"sampler":3,"target":{"node":13,"path":"rotation"}}]}],"materials":[{"doubleSided":true,"name":"zoo_giraffe","pbrMetallicRoughness":{"baseColorFactor":[0.8313725590705872,0.6078431606292725,0.29019609093666077,1],"metallicFactor":0,"roughnessFactor":0.8199999928474426}},{"doubleSided":true,"name":"zoo_black","pbrMetallicRoughness":{"baseColorFactor":[0.14901961386203766,0.1725490242242813,0.1921568661928177,1],"metallicFactor":0,"roughnessFactor":0.8199999928474426}},{"doubleSided":true,"name":"zoo_roof","pbrMetallicRoughness":{"baseColorFactor":[0.615686297416687,0.2862745225429535,0.21568627655506134,1],"metallicFactor":0,"roughnessFactor":0.8199999928474426}}],"meshes":[{"name":"Icosphere.028","primitives":[{"attributes":{"POSITION":0,"NORMAL":1,"TEXCOORD_0":2},"indices":3,"material":0}]},{"name":"Icosphere.035","primitives":[{"attributes":{"POSITION":4,"NORMAL":5,"TEXCOORD_0":6},"indices":7,"material":0}]},{"name":"Icosphere.034","primitives":[{"attributes":{"POSITION":8,"NORMAL":9,"TEXCOORD_0":10},"indices":7,"material":0}]},{"name":"Icosphere.030","primitives":[{"attributes":{"POSITION":11,"NORMAL":12,"TEXCOORD_0":13},"indices":14,"material":1}]},{"name":"Icosphere.031","primitives":[{"attributes":{"POSITION":15,"NORMAL":16,"TEXCOORD_0":17},"indices":14,"material":1}]},{"name":"Icosphere.029","primitives":[{"attributes":{"POSITION":18,"NORMAL":19,"TEXCOORD_0":20},"indices":3,"material":0}]},{"name":"Cube.064","primitives":[{"attributes":{"POSITION":21,"NORMAL":22,"TEXCOORD_0":23},"indices":24,"material":1}]},{"name":"Cube.065","primitives":[{"attributes":{"POSITION":25,"NORMAL":26,"TEXCOORD_0":27},"indices":24,"material":1}]},{"name":"Cube.066","primitives":[{"attributes":{"POSITION":28,"NORMAL":29,"TEXCOORD_0":30},"indices":24,"material":1}]},{"name":"Cube.067","primitives":[{"attributes":{"POSITION":31,"NORMAL":32,"TEXCOORD_0":33},"indices":24,"material":1}]},{"name":"Cylinder.028","primitives":[{"attributes":{"POSITION":34,"NORMAL":35,"TEXCOORD_0":36},"indices":37,"material":0}]},{"name":"Cylinder.029","primitives":[{"attributes":{"POSITION":38,"NORMAL":39,"TEXCOORD_0":40},"indices":37,"material":0}]},{"name":"Cylinder.030","primitives":[{"attributes":{"POSITION":41,"NORMAL":42,"TEXCOORD_0":43},"indices":37,"material":0}]},{"name":"Cylinder.031","primitives":[{"attributes":{"POSITION":44,"NORMAL":45,"TEXCOORD_0":46},"indices":37,"material":0}]},{"name":"Cube.068","primitives":[{"attributes":{"POSITION":47,"NORMAL":48,"TEXCOORD_0":49},"indices":24,"material":2}]},{"name":"Cube.069","primitives":[{"attributes":{"POSITION":50,"NORMAL":51,"TEXCOORD_0":52},"indices":24,"material":2}]},{"name":"Cube.070","primitives":[{"attributes":{"POSITION":53,"NORMAL":54,"TEXCOORD_0":55},"indices":24,"material":2}]},{"name":"Cube.071","primitives":[{"attributes":{"POSITION":56,"NORMAL":57,"TEXCOORD_0":58},"indices":24,"material":2}]},{"name":"Icosphere.032","primitives":[{"attributes":{"POSITION":59,"NORMAL":60,"TEXCOORD_0":61},"indices":62,"material":0}]},{"name":"Cylinder.033","primitives":[{"attributes":{"POSITION":63,"NORMAL":64,"TEXCOORD_0":65},"indices":37,"material":0}]},{"name":"Icosphere.033","primitives":[{"attributes":{"POSITION":66,"NORMAL":67,"TEXCOORD_0":68},"indices":14,"material":1}]},{"name":"Cylinder.035","primitives":[{"attributes":{"POSITION":69,"NORMAL":70,"TEXCOORD_0":71},"indices":72,"material":0}]},{"name":"Cylinder.034","primitives":[{"attributes":{"POSITION":73,"NORMAL":74,"TEXCOORD_0":75},"indices":72,"material":0}]},{"name":"Icosphere.037","primitives":[{"attributes":{"POSITION":76,"NORMAL":77,"TEXCOORD_0":78},"indices":14,"material":2}]},{"name":"Icosphere.036","primitives":[{"attributes":{"POSITION":79,"NORMAL":80,"TEXCOORD_0":81},"indices":14,"material":2}]},{"name":"Icosphere.038","primitives":[{"attributes":{"POSITION":82,"NORMAL":83,"TEXCOORD_0":84},"indices":85,"material":2}]},{"name":"Icosphere.039","primitives":[{"attributes":{"POSITION":86,"NORMAL":87,"TEXCOORD_0":88},"indices":85,"material":2}]},{"name":"Icosphere.040","primitives":[{"attributes":{"POSITION":89,"NORMAL":90,"TEXCOORD_0":91},"indices":85,"material":2}]},{"name":"Icosphere.041","primitives":[{"attributes":{"POSITION":92,"NORMAL":93,"TEXCOORD_0":94},"indices":85,"material":2}]},{"name":"Icosphere.042","primitives":[{"attributes":{"POSITION":95,"NORMAL":96,"TEXCOORD_0":97},"indices":85,"material":2}]},{"name":"Icosphere.043","primitives":[{"attributes":{"POSITION":98,"NORMAL":99,"TEXCOORD_0":100},"indices":85,"material":2}]},{"name":"Icosphere.044","primitives":[{"attributes":{"POSITION":101,"NORMAL":102,"TEXCOORD_0":103},"indices":85,"material":2}]},{"name":"Cylinder.032","primitives":[{"attributes":{"POSITION":104,"NORMAL":105,"TEXCOORD_0":106},"indices":37,"material":0}]}],"accessors":[{"bufferView":0,"componentType":5126,"count":960,"max":[0.5199999809265137,0.3199999928474426,0.23999997973442078],"min":[-0.5199999213218689,-0.3199999928474426,-0.23999997973442078],"type":"VEC3"},{"bufferView":1,"componentType":5126,"count":960,"type":"VEC3"},{"bufferView":2,"componentType":5126,"count":960,"type":"VEC2"},{"bufferView":3,"componentType":5123,"count":960,"type":"SCALAR"},{"bufferView":4,"componentType":5126,"count":240,"max":[0.06657405197620392,0.10000000149011612,0.05499999597668648],"min":[-0.06657405197620392,-0.10000000149011612,-0.05499999597668648],"type":"VEC3"},{"bufferView":5,"componentType":5126,"count":240,"type":"VEC3"},{"bufferView":6,"componentType":5126,"count":240,"type":"VEC2"},{"bufferView":7,"componentType":5123,"count":240,"type":"SCALAR"},{"bufferView":8,"componentType":5126,"count":240,"max":[0.06657405197620392,0.10000000149011612,0.05499999597668648],"min":[-0.06657405197620392,-0.10000000149011612,-0.05499999597668648],"type":"VEC3"},{"bufferView":9,"componentType":5126,"count":240,"type":"VEC3"},{"bufferView":10,"componentType":5126,"count":240,"type":"VEC2"},{"bufferView":11,"componentType":5126,"count":60,"max":[0.031304873526096344,0.03500000014901161,0.021266000345349312],"min":[-0.031304873526096344,-0.03500000014901161,-0.021266000345349312],"type":"VEC3"},{"bufferView":12,"componentType":5126,"count":60,"type":"VEC3"},{"bufferView":13,"componentType":5126,"count":60,"type":"VEC2"},{"bufferView":14,"componentType":5123,"count":60,"type":"SCALAR"},{"bufferView":15,"componentType":5126,"count":60,"max":[0.031304873526096344,0.03500000014901161,0.021266000345349312],"min":[-0.031304873526096344,-0.03500000014901161,-0.021266000345349312],"type":"VEC3"},{"bufferView":16,"componentType":5126,"count":60,"type":"VEC3"},{"bufferView":17,"componentType":5126,"count":60,"type":"VEC2"},{"bufferView":18,"componentType":5126,"count":960,"max":[0.18000000715255737,0.20000000298023224,0.14999999105930328],"min":[-0.17999999225139618,-0.20000000298023224,-0.14999999105930328],"type":"VEC3"},{"bufferView":19,"componentType":5126,"count":960,"type":"VEC3"},{"bufferView":20,"componentType":5126,"count":960,"type":"VEC2"},{"bufferView":21,"componentType":5126,"count":216,"max":[0.060499999672174454,0.05000000074505806,0.07699999958276749],"min":[-0.060499999672174454,-0.05000000074505806,-0.07699999958276749],"type":"VEC3"},{"bufferView":22,"componentType":5126,"count":216,"type":"VEC3"},{"bufferView":23,"componentType":5126,"count":216,"type":"VEC2"},{"bufferView":24,"componentType":5123,"count":324,"type":"SCALAR"},{"bufferView":25,"componentType":5126,"count":216,"max":[0.060499999672174454,0.05000000074505806,0.07699999958276749],"min":[-0.060499999672174454,-0.05000000074505806,-0.07699999958276749],"type":"VEC3"},{"bufferView":26,"componentType":5126,"count":216,"type":"VEC3"},{"bufferView":27,"componentType":5126,"count":216,"type":"VEC2"},{"bufferView":28,"componentType":5126,"count":216,"max":[0.060499999672174454,0.05000000074505806,0.07699999958276749],"min":[-0.060499999672174454,-0.05000000074505806,-0.07699999958276749],"type":"VEC3"},{"bufferView":29,"componentType":5126,"count":216,"type":"VEC3"},{"bufferView":30,"componentType":5126,"count":216,"type":"VEC2"},{"bufferView":31,"componentType":5126,"count":216,"max":[0.060499999672174454,0.05000000074505806,0.07699999958276749],"min":[-0.060499999672174454,-0.05000000074505806,-0.07699999958276749],"type":"VEC3"},{"bufferView":32,"componentType":5126,"count":216,"type":"VEC3"},{"bufferView":33,"componentType":5126,"count":216,"type":"VEC2"},{"bufferView":34,"componentType":5126,"count":96,"max":[0.054999999701976776,0.28999999165534973,0.054999999701976776],"min":[-0.054999999701976776,-0.28999999165534973,-0.054999999701976776],"type":"VEC3"},{"bufferView":35,"componentType":5126,"count":96,"type":"VEC3"},{"bufferView":36,"componentType":5126,"count":96,"type":"VEC2"},{"bufferView":37,"componentType":5123,"count":180,"type":"SCALAR"},{"bufferView":38,"componentType":5126,"count":96,"max":[0.054999999701976776,0.28999999165534973,0.054999999701976776],"min":[-0.054999999701976776,-0.28999999165534973,-0.054999999701976776],"type":"VEC3"},{"bufferView":39,"componentType":5126,"count":96,"type":"VEC3"},{"bufferView":40,"componentType":5126,"count":96,"type":"VEC2"},{"bufferView":41,"componentType":5126,"count":96,"max":[0.054999999701976776,0.28999999165534973,0.054999999701976776],"min":[-0.054999999701976776,-0.28999999165534973,-0.054999999701976776],"type":"VEC3"},{"bufferView":42,"componentType":5126,"count":96,"type":"VEC3"},{"bufferView":43,"componentType":5126,"count":96,"type":"VEC2"},{"bufferView":44,"componentType":5126,"count":96,"max":[0.054999999701976776,0.28999999165534973,0.054999999701976776],"min":[-0.054999999701976776,-0.28999999165534973,-0.054999999701976776],"type":"VEC3"},{"bufferView":45,"componentType":5126,"count":96,"type":"VEC3"},{"bufferView":46,"componentType":5126,"count":96,"type":"VEC2"},{"bufferView":47,"componentType":5126,"count":216,"max":[0.05000000074505806,0.07999999821186066,0.017500000074505806],"min":[-0.05000000074505806,-0.07999999821186066,-0.017500000074505806],"type":"VEC3"},{"bufferView":48,"componentType":5126,"count":216,"type":"VEC3"},{"bufferView":49,"componentType":5126,"count":216,"type":"VEC2"},{"bufferView":50,"componentType":5126,"count":216,"max":[0.05000000074505806,0.07999999821186066,0.017500000074505806],"min":[-0.05000000074505806,-0.07999999821186066,-0.017500000074505806],"type":"VEC3"},{"bufferView":51,"componentType":5126,"count":216,"type":"VEC3"},{"bufferView":52,"componentType":5126,"count":216,"type":"VEC2"},{"bufferView":53,"componentType":5126,"count":216,"max":[0.05000000074505806,0.07999999821186066,0.017500000074505806],"min":[-0.05000000074505806,-0.07999999821186066,-0.017500000074505806],"type":"VEC3"},{"bufferView":54,"componentType":5126,"count":216,"type":"VEC3"},{"bufferView":55,"componentType":5126,"count":216,"type":"VEC2"},{"bufferView":56,"componentType":5126,"count":216,"max":[0.05000000074505806,0.07999999821186066,0.017500000074505806],"min":[-0.05000000074505806,-0.07999999821186066,-0.017500000074505806],"type":"VEC3"},{"bufferView":57,"componentType":5126,"count":216,"type":"VEC3"},{"bufferView":58,"componentType":5126,"count":216,"type":"VEC2"},{"bufferView":59,"componentType":5126,"count":240,"max":[0.08217140287160873,0.08399999886751175,0.09749998897314072],"min":[-0.08217140287160873,-0.08399999886751175,-0.09749998897314072],"type":"VEC3"},{"bufferView":60,"componentType":5126,"count":240,"type":"VEC3"},{"bufferView":61,"componentType":5126,"count":240,"type":"VEC2"},{"bufferView":62,"componentType":5123,"count":240,"type":"SCALAR"},{"bufferView":63,"componentType":5126,"count":96,"max":[0.10999999940395355,0.4749999940395355,0.10999999940395355],"min":[-0.10999999940395355,-0.4749999940395355,-0.10999999940395355],"type":"VEC3"},{"bufferView":64,"componentType":5126,"count":96,"type":"VEC3"},{"bufferView":65,"componentType":5126,"count":96,"type":"VEC2"},{"bufferView":66,"componentType":5126,"count":60,"max":[0.049193374812603,0.04500000178813934,0.05529159680008888],"min":[-0.049193374812603,-0.04500000178813934,-0.05529159680008888],"type":"VEC3"},{"bufferView":67,"componentType":5126,"count":60,"type":"VEC3"},{"bufferView":68,"componentType":5126,"count":60,"type":"VEC2"},{"bufferView":69,"componentType":5126,"count":72,"max":[0.02500000037252903,0.07999999821186066,0.02500000037252903],"min":[-0.02500000037252903,-0.07999999821186066,-0.02500000037252903],"type":"VEC3"},{"bufferView":70,"componentType":5126,"count":72,"type":"VEC3"},{"bufferView":71,"componentType":5126,"count":72,"type":"VEC2"},{"bufferView":72,"componentType":5123,"count":132,"type":"SCALAR"},{"bufferView":73,"componentType":5126,"count":72,"max":[0.02500000037252903,0.07999999821186066,0.02500000037252903],"min":[-0.02500000037252903,-0.07999999821186066,-0.02500000037252903],"type":"VEC3"},{"bufferView":74,"componentType":5126,"count":72,"type":"VEC3"},{"bufferView":75,"componentType":5126,"count":72,"type":"VEC2"},{"bufferView":76,"componentType":5126,"count":60,"max":[0.03577699884772301,0.03999999910593033,0.03402559831738472],"min":[-0.03577699884772301,-0.03999999910593033,-0.03402559831738472],"type":"VEC3"},{"bufferView":77,"componentType":5126,"count":60,"type":"VEC3"},{"bufferView":78,"componentType":5126,"count":60,"type":"VEC2"},{"bufferView":79,"componentType":5126,"count":60,"max":[0.03577699884772301,0.03999999910593033,0.03402559831738472],"min":[-0.03577699884772301,-0.03999999910593033,-0.03402559831738472],"type":"VEC3"},{"bufferView":80,"componentType":5126,"count":60,"type":"VEC3"},{"bufferView":81,"componentType":5126,"count":60,"type":"VEC2"},{"bufferView":82,"componentType":5126,"count":60,"max":[0.07602612674236298,0.09000000357627869,0.021266000345349312],"min":[-0.07602612674236298,-0.09000000357627869,-0.021266000345349312],"type":"VEC3"},{"bufferView":83,"componentType":5126,"count":60,"type":"VEC3"},{"bufferView":84,"componentType":5126,"count":60,"type":"VEC2"},{"bufferView":85,"componentType":5123,"count":60,"type":"SCALAR"},{"bufferView":86,"componentType":5126,"count":60,"max":[0.07602612674236298,0.09000000357627869,0.021266000345349312],"min":[-0.07602612674236298,-0.09000000357627869,-0.021266000345349312],"type":"VEC3"},{"bufferView":87,"componentType":5126,"count":60,"type":"VEC3"},{"bufferView":88,"componentType":5126,"count":60,"type":"VEC2"},{"bufferView":89,"componentType":5126,"count":60,"max":[0.07602612674236298,0.09000000357627869,0.021266000345349312],"min":[-0.07602612674236298,-0.09000000357627869,-0.021266000345349312],"type":"VEC3"},{"bufferView":90,"componentType":5126,"count":60,"type":"VEC3"},{"bufferView":91,"componentType":5126,"count":60,"type":"VEC2"},{"bufferView":92,"componentType":5126,"count":60,"max":[0.07602612674236298,0.09000000357627869,0.021266000345349312],"min":[-0.07602612674236298,-0.09000000357627869,-0.021266000345349312],"type":"VEC3"},{"bufferView":93,"componentType":5126,"count":60,"type":"VEC3"},{"bufferView":94,"componentType":5126,"count":60,"type":"VEC2"},{"bufferView":95,"componentType":5126,"count":60,"max":[0.07602612674236298,0.09000000357627869,0.021266000345349312],"min":[-0.07602612674236298,-0.09000000357627869,-0.021266000345349312],"type":"VEC3"},{"bufferView":96,"componentType":5126,"count":60,"type":"VEC3"},{"bufferView":97,"componentType":5126,"count":60,"type":"VEC2"},{"bufferView":98,"componentType":5126,"count":60,"max":[0.07602612674236298,0.09000000357627869,0.021266000345349312],"min":[-0.07602612674236298,-0.09000000357627869,-0.021266000345349312],"type":"VEC3"},{"bufferView":99,"componentType":5126,"count":60,"type":"VEC3"},{"bufferView":100,"componentType":5126,"count":60,"type":"VEC2"},{"bufferView":101,"componentType":5126,"count":60,"max":[0.07602612674236298,0.09000000357627869,0.021266000345349312],"min":[-0.07602612674236298,-0.09000000357627869,-0.021266000345349312],"type":"VEC3"},{"bufferView":102,"componentType":5126,"count":60,"type":"VEC3"},{"bufferView":103,"componentType":5126,"count":60,"type":"VEC2"},{"bufferView":104,"componentType":5126,"count":96,"max":[0.030249999836087227,0.14300000667572021,0.030249999836087227],"min":[-0.030249999836087227,-0.14300000667572021,-0.030249999836087227],"type":"VEC3"},{"bufferView":105,"componentType":5126,"count":96,"type":"VEC3"},{"bufferView":106,"componentType":5126,"count":96,"type":"VEC2"},{"bufferView":107,"componentType":5126,"count":25,"max":[1.0416666666666667],"min":[0.041666666666666664],"type":"SCALAR"},{"bufferView":108,"componentType":5126,"count":25,"type":"VEC3"},{"bufferView":109,"componentType":5126,"count":25,"type":"VEC4"},{"bufferView":110,"componentType":5126,"count":25,"type":"VEC4"},{"bufferView":111,"componentType":5126,"count":25,"type":"VEC4"},{"bufferView":112,"componentType":5126,"count":25,"type":"VEC4"},{"bufferView":113,"componentType":5126,"count":25,"type":"VEC4"}],"bufferViews":[{"buffer":0,"byteLength":11520,"byteOffset":0,"target":34962},{"buffer":0,"byteLength":11520,"byteOffset":11520,"target":34962},{"buffer":0,"byteLength":7680,"byteOffset":23040,"target":34962},{"buffer":0,"byteLength":1920,"byteOffset":30720,"target":34963},{"buffer":0,"byteLength":2880,"byteOffset":32640,"target":34962},{"buffer":0,"byteLength":2880,"byteOffset":35520,"target":34962},{"buffer":0,"byteLength":1920,"byteOffset":38400,"target":34962},{"buffer":0,"byteLength":480,"byteOffset":40320,"target":34963},{"buffer":0,"byteLength":2880,"byteOffset":40800,"target":34962},{"buffer":0,"byteLength":2880,"byteOffset":43680,"target":34962},{"buffer":0,"byteLength":1920,"byteOffset":46560,"target":34962},{"buffer":0,"byteLength":720,"byteOffset":48480,"target":34962},{"buffer":0,"byteLength":720,"byteOffset":49200,"target":34962},{"buffer":0,"byteLength":480,"byteOffset":49920,"target":34962},{"buffer":0,"byteLength":120,"byteOffset":50400,"target":34963},{"buffer":0,"byteLength":720,"byteOffset":50520,"target":34962},{"buffer":0,"byteLength":720,"byteOffset":51240,"target":34962},{"buffer":0,"byteLength":480,"byteOffset":51960,"target":34962},{"buffer":0,"byteLength":11520,"byteOffset":52440,"target":34962},{"buffer":0,"byteLength":11520,"byteOffset":63960,"target":34962},{"buffer":0,"byteLength":7680,"byteOffset":75480,"target":34962},{"buffer":0,"byteLength":2592,"byteOffset":83160,"target":34962},{"buffer":0,"byteLength":2592,"byteOffset":85752,"target":34962},{"buffer":0,"byteLength":1728,"byteOffset":88344,"target":34962},{"buffer":0,"byteLength":648,"byteOffset":90072,"target":34963},{"buffer":0,"byteLength":2592,"byteOffset":90720,"target":34962},{"buffer":0,"byteLength":2592,"byteOffset":93312,"target":34962},{"buffer":0,"byteLength":1728,"byteOffset":95904,"target":34962},{"buffer":0,"byteLength":2592,"byteOffset":97632,"target":34962},{"buffer":0,"byteLength":2592,"byteOffset":100224,"target":34962},{"buffer":0,"byteLength":1728,"byteOffset":102816,"target":34962},{"buffer":0,"byteLength":2592,"byteOffset":104544,"target":34962},{"buffer":0,"byteLength":2592,"byteOffset":107136,"target":34962},{"buffer":0,"byteLength":1728,"byteOffset":109728,"target":34962},{"buffer":0,"byteLength":1152,"byteOffset":111456,"target":34962},{"buffer":0,"byteLength":1152,"byteOffset":112608,"target":34962},{"buffer":0,"byteLength":768,"byteOffset":113760,"target":34962},{"buffer":0,"byteLength":360,"byteOffset":114528,"target":34963},{"buffer":0,"byteLength":1152,"byteOffset":114888,"target":34962},{"buffer":0,"byteLength":1152,"byteOffset":116040,"target":34962},{"buffer":0,"byteLength":768,"byteOffset":117192,"target":34962},{"buffer":0,"byteLength":1152,"byteOffset":117960,"target":34962},{"buffer":0,"byteLength":1152,"byteOffset":119112,"target":34962},{"buffer":0,"byteLength":768,"byteOffset":120264,"target":34962},{"buffer":0,"byteLength":1152,"byteOffset":121032,"target":34962},{"buffer":0,"byteLength":1152,"byteOffset":122184,"target":34962},{"buffer":0,"byteLength":768,"byteOffset":123336,"target":34962},{"buffer":0,"byteLength":2592,"byteOffset":124104,"target":34962},{"buffer":0,"byteLength":2592,"byteOffset":126696,"target":34962},{"buffer":0,"byteLength":1728,"byteOffset":129288,"target":34962},{"buffer":0,"byteLength":2592,"byteOffset":131016,"target":34962},{"buffer":0,"byteLength":2592,"byteOffset":133608,"target":34962},{"buffer":0,"byteLength":1728,"byteOffset":136200,"target":34962},{"buffer":0,"byteLength":2592,"byteOffset":137928,"target":34962},{"buffer":0,"byteLength":2592,"byteOffset":140520,"target":34962},{"buffer":0,"byteLength":1728,"byteOffset":143112,"target":34962},{"buffer":0,"byteLength":2592,"byteOffset":144840,"target":34962},{"buffer":0,"byteLength":2592,"byteOffset":147432,"target":34962},{"buffer":0,"byteLength":1728,"byteOffset":150024,"target":34962},{"buffer":0,"byteLength":2880,"byteOffset":151752,"target":34962},{"buffer":0,"byteLength":2880,"byteOffset":154632,"target":34962},{"buffer":0,"byteLength":1920,"byteOffset":157512,"target":34962},{"buffer":0,"byteLength":480,"byteOffset":159432,"target":34963},{"buffer":0,"byteLength":1152,"byteOffset":159912,"target":34962},{"buffer":0,"byteLength":1152,"byteOffset":161064,"target":34962},{"buffer":0,"byteLength":768,"byteOffset":162216,"target":34962},{"buffer":0,"byteLength":720,"byteOffset":162984,"target":34962},{"buffer":0,"byteLength":720,"byteOffset":163704,"target":34962},{"buffer":0,"byteLength":480,"byteOffset":164424,"target":34962},{"buffer":0,"byteLength":864,"byteOffset":164904,"target":34962},{"buffer":0,"byteLength":864,"byteOffset":165768,"target":34962},{"buffer":0,"byteLength":576,"byteOffset":166632,"target":34962},{"buffer":0,"byteLength":264,"byteOffset":167208,"target":34963},{"buffer":0,"byteLength":864,"byteOffset":167472,"target":34962},{"buffer":0,"byteLength":864,"byteOffset":168336,"target":34962},{"buffer":0,"byteLength":576,"byteOffset":169200,"target":34962},{"buffer":0,"byteLength":720,"byteOffset":169776,"target":34962},{"buffer":0,"byteLength":720,"byteOffset":170496,"target":34962},{"buffer":0,"byteLength":480,"byteOffset":171216,"target":34962},{"buffer":0,"byteLength":720,"byteOffset":171696,"target":34962},{"buffer":0,"byteLength":720,"byteOffset":172416,"target":34962},{"buffer":0,"byteLength":480,"byteOffset":173136,"target":34962},{"buffer":0,"byteLength":720,"byteOffset":173616,"target":34962},{"buffer":0,"byteLength":720,"byteOffset":174336,"target":34962},{"buffer":0,"byteLength":480,"byteOffset":175056,"target":34962},{"buffer":0,"byteLength":120,"byteOffset":175536,"target":34963},{"buffer":0,"byteLength":720,"byteOffset":175656,"target":34962},{"buffer":0,"byteLength":720,"byteOffset":176376,"target":34962},{"buffer":0,"byteLength":480,"byteOffset":177096,"target":34962},{"buffer":0,"byteLength":720,"byteOffset":177576,"target":34962},{"buffer":0,"byteLength":720,"byteOffset":178296,"target":34962},{"buffer":0,"byteLength":480,"byteOffset":179016,"target":34962},{"buffer":0,"byteLength":720,"byteOffset":179496,"target":34962},{"buffer":0,"byteLength":720,"byteOffset":180216,"target":34962},{"buffer":0,"byteLength":480,"byteOffset":180936,"target":34962},{"buffer":0,"byteLength":720,"byteOffset":181416,"target":34962},{"buffer":0,"byteLength":720,"byteOffset":182136,"target":34962},{"buffer":0,"byteLength":480,"byteOffset":182856,"target":34962},{"buffer":0,"byteLength":720,"byteOffset":183336,"target":34962},{"buffer":0,"byteLength":720,"byteOffset":184056,"target":34962},{"buffer":0,"byteLength":480,"byteOffset":184776,"target":34962},{"buffer":0,"byteLength":720,"byteOffset":185256,"target":34962},{"buffer":0,"byteLength":720,"byteOffset":185976,"target":34962},{"buffer":0,"byteLength":480,"byteOffset":186696,"target":34962},{"buffer":0,"byteLength":1152,"byteOffset":187176,"target":34962},{"buffer":0,"byteLength":1152,"byteOffset":188328,"target":34962},{"buffer":0,"byteLength":768,"byteOffset":189480,"target":34962},{"buffer":0,"byteLength":100,"byteOffset":190248},{"buffer":0,"byteLength":300,"byteOffset":190348},{"buffer":0,"byteLength":400,"byteOffset":190648},{"buffer":0,"byteLength":400,"byteOffset":191048},{"buffer":0,"byteLength":400,"byteOffset":191448},{"buffer":0,"byteLength":400,"byteOffset":191848},{"buffer":0,"byteLength":400,"byteOffset":192248}],"buffers":[{"byteLength":192648,"uri":"giraffe.bin"}]}